<?xml version="1.0" encoding="UTF-8"?>
<!--Generator: Apple Native CoreSVG 232.5-->
<!DOCTYPE svg
PUBLIC "-//W3C//DTD SVG 1.1//EN"
       "http://www.w3.org/Graphics/SVG/1.1/DTD/svg11.dtd">
<svg version="1.1" xmlns="http://www.w3.org/2000/svg" xmlns:xlink="http://www.w3.org/1999/xlink" width="3300" height="2200">
 <!--glyph: "", point size: 100.0, font version: "19.2d2e1", template writer version: "128"-->
 <style>.monochrome-0 {-sfsymbols-motion-group:1;-sfsymbols-indices:0}
.monochrome-1 {opacity:0.0;-sfsymbols-clear-behind:true;-sfsymbols-motion-group:0;-sfsymbols-always-pulses:true}

.multicolor-0:tintColor {-sfsymbols-motion-group:1;-sfsymbols-indices:0}
.multicolor-1:white {-sfsymbols-motion-group:0;-sfsymbols-always-pulses:true}

.hierarchical-0:tertiary {-sfsymbols-motion-group:1;-sfsymbols-indices:0}
.hierarchical-1:primary {-sfsymbols-motion-group:0}

.shapeGroupLayer-0 {-sfsymbols-fill-action:draw;-sfsymbols-indices:1 2 3 4}
.shapeGroupLayer-1 {-sfsymbols-fill-action:erase;-sfsymbols-indices:5 6}
.shapeGroupLayer-2 {-sfsymbols-fill-action:draw;-sfsymbols-indices:6 8}

.SFSymbolsPreviewWireframe {fill:none;opacity:1.0;stroke:black;stroke-width:0.5}
</style>
 <g id="Notes">
  <rect height="2200" id="artboard" style="fill:white;opacity:1" width="3300" x="0" y="0"/>
  <line style="fill:none;stroke:black;opacity:1;stroke-width:0.5;" x1="263" x2="3036" y1="292" y2="292"/>
  <text style="stroke:none;fill:black;font-family:sans-serif;font-size:13;font-weight:bold;" transform="matrix(1 0 0 1 263 322)">Weight/Scale Variations</text>
  <text style="stroke:none;fill:black;font-family:sans-serif;font-size:13;text-anchor:middle;" transform="matrix(1 0 0 1 559.711 322)">Ultralight</text>
  <text style="stroke:none;fill:black;font-family:sans-serif;font-size:13;text-anchor:middle;" transform="matrix(1 0 0 1 856.422 322)">Thin</text>
  <text style="stroke:none;fill:black;font-family:sans-serif;font-size:13;text-anchor:middle;" transform="matrix(1 0 0 1 1153.13 322)">Light</text>
  <text style="stroke:none;fill:black;font-family:sans-serif;font-size:13;text-anchor:middle;" transform="matrix(1 0 0 1 1449.84 322)">Regular</text>
  <text style="stroke:none;fill:black;font-family:sans-serif;font-size:13;text-anchor:middle;" transform="matrix(1 0 0 1 1746.56 322)">Medium</text>
  <text style="stroke:none;fill:black;font-family:sans-serif;font-size:13;text-anchor:middle;" transform="matrix(1 0 0 1 2043.27 322)">Semibold</text>
  <text style="stroke:none;fill:black;font-family:sans-serif;font-size:13;text-anchor:middle;" transform="matrix(1 0 0 1 2339.98 322)">Bold</text>
  <text style="stroke:none;fill:black;font-family:sans-serif;font-size:13;text-anchor:middle;" transform="matrix(1 0 0 1 2636.69 322)">Heavy</text>
  <text style="stroke:none;fill:black;font-family:sans-serif;font-size:13;text-anchor:middle;" transform="matrix(1 0 0 1 2933.4 322)">Black</text>
  <line style="fill:none;stroke:black;opacity:1;stroke-width:0.5;" x1="263" x2="3036" y1="1903" y2="1903"/>
  <g transform="matrix(0.2 0 0 0.2 263 1933)">
   <path d="m46.2402 4.15039c21.5332 0 39.4531-17.8711 39.4531-39.4043s-17.9688-39.4043-39.502-39.4043c-21.4844 0-39.3555 17.8711-39.3555 39.4043s17.9199 39.4043 39.4043 39.4043Zm0-7.42188c-17.7246 0-31.8848-14.209-31.8848-31.9824s14.1113-31.9824 31.8359-31.9824c17.7734 0 32.0312 14.209 32.0312 31.9824s-14.209 31.9824-31.9824 31.9824Zm-17.9688-31.9824c0 2.14844 1.51367 3.61328 3.75977 3.61328h10.498v10.5957c0 2.19727 1.46484 3.71094 3.61328 3.71094 2.24609 0 3.71094-1.51367 3.71094-3.71094v-10.5957h10.5957c2.19727 0 3.71094-1.46484 3.71094-3.61328 0-2.19727-1.51367-3.71094-3.71094-3.71094h-10.5957v-10.5469c0-2.24609-1.46484-3.75977-3.71094-3.75977-2.14844 0-3.61328 1.51367-3.61328 3.75977v10.5469h-10.498c-2.24609 0-3.75977 1.51367-3.75977 3.71094Z"/>
  </g>
  <g transform="matrix(0.2 0 0 0.2 281.506 1933)">
   <path d="m58.5449 14.5508c27.2461 0 49.8047-22.6074 49.8047-49.8047 0-27.2461-22.6074-49.8047-49.8535-49.8047-27.1973 0-49.7559 22.5586-49.7559 49.8047 0 27.1973 22.6074 49.8047 49.8047 49.8047Zm0-8.30078c-23.0469 0-41.4551-18.457-41.4551-41.5039s18.3594-41.5039 41.4062-41.5039 41.5527 18.457 41.5527 41.5039-18.457 41.5039-41.5039 41.5039Zm-22.6562-41.5039c0 2.39258 1.66016 4.00391 4.15039 4.00391h14.3555v14.4043c0 2.44141 1.66016 4.15039 4.05273 4.15039 2.44141 0 4.15039-1.66016 4.15039-4.15039v-14.4043h14.4043c2.44141 0 4.15039-1.61133 4.15039-4.00391 0-2.44141-1.70898-4.15039-4.15039-4.15039h-14.4043v-14.3555c0-2.49023-1.70898-4.19922-4.15039-4.19922-2.39258 0-4.05273 1.70898-4.05273 4.19922v14.3555h-14.3555c-2.49023 0-4.15039 1.70898-4.15039 4.15039Z"/>
  </g>
  <g transform="matrix(0.2 0 0 0.2 304.924 1933)">
   <path d="m74.8535 28.3203c34.8145 0 63.623-28.8086 63.623-63.5742 0-34.8145-28.8574-63.623-63.6719-63.623-34.7656 0-63.5254 28.8086-63.5254 63.623 0 34.7656 28.8086 63.5742 63.5742 63.5742Zm0-9.08203c-30.1758 0-54.4434-24.3164-54.4434-54.4922 0-30.2246 24.2188-54.4922 54.3945-54.4922 30.2246 0 54.541 24.2676 54.541 54.4922 0 30.1758-24.2676 54.4922-54.4922 54.4922Zm-28.8574-54.4922c0 2.58789 1.85547 4.39453 4.58984 4.39453h19.7266v19.7754c0 2.68555 1.85547 4.58984 4.44336 4.58984 2.68555 0 4.54102-1.85547 4.54102-4.58984v-19.7754h19.7754c2.68555 0 4.58984-1.80664 4.58984-4.39453 0-2.73438-1.85547-4.58984-4.58984-4.58984h-19.7754v-19.7266c0-2.73438-1.85547-4.63867-4.54102-4.63867-2.58789 0-4.44336 1.9043-4.44336 4.63867v19.7266h-19.7266c-2.73438 0-4.58984 1.85547-4.58984 4.58984Z"/>
  </g>
  <text style="stroke:none;fill:black;font-family:sans-serif;font-size:13;font-weight:bold;" transform="matrix(1 0 0 1 263 1953)">Design Variations</text>
  <text style="stroke:none;fill:black;font-family:sans-serif;font-size:13;" transform="matrix(1 0 0 1 263 1971)">Symbols are supported in up to nine weights and three scales.</text>
  <text style="stroke:none;fill:black;font-family:sans-serif;font-size:13;" transform="matrix(1 0 0 1 263 1989)">For optimal layout with text and other symbols, vertically align</text>
  <text style="stroke:none;fill:black;font-family:sans-serif;font-size:13;" transform="matrix(1 0 0 1 263 2007)">symbols with the adjacent text.</text>
  <line style="fill:none;stroke:#00AEEF;stroke-width:0.5;opacity:1.0;" x1="776" x2="776" y1="1919" y2="1933"/>
  <g transform="matrix(0.2 0 0 0.2 776 1933)">
   <path d="m16.5527 0.78125c2.58789 0 3.85742-0.976562 4.78516-3.71094l6.29883-17.2363h28.8086l6.29883 17.2363c0.927734 2.73438 2.19727 3.71094 4.73633 3.71094 2.58789 0 4.24805-1.5625 4.24805-4.00391 0-0.830078-0.146484-1.61133-0.537109-2.63672l-22.9004-60.9863c-1.12305-2.97852-3.125-4.49219-6.25-4.49219-3.02734 0-5.07812 1.46484-6.15234 4.44336l-22.9004 61.084c-0.390625 1.02539-0.537109 1.80664-0.537109 2.63672 0 2.44141 1.5625 3.95508 4.10156 3.95508Zm13.4766-28.3691 11.8652-32.8613h0.244141l11.8652 32.8613Z"/>
  </g>
  <line style="fill:none;stroke:#00AEEF;stroke-width:0.5;opacity:1.0;" x1="792.836" x2="792.836" y1="1919" y2="1933"/>
  <text style="stroke:none;fill:black;font-family:sans-serif;font-size:13;font-weight:bold;" transform="matrix(1 0 0 1 776 1953)">Margins</text>
  <text style="stroke:none;fill:black;font-family:sans-serif;font-size:13;" transform="matrix(1 0 0 1 776 1971)">Leading and trailing margins on the left and right side of each symbol</text>
  <text style="stroke:none;fill:black;font-family:sans-serif;font-size:13;" transform="matrix(1 0 0 1 776 1989)">can be adjusted by modifying the x-location of the margin guidelines.</text>
  <text style="stroke:none;fill:black;font-family:sans-serif;font-size:13;" transform="matrix(1 0 0 1 776 2007)">Modifications are automatically applied proportionally to all</text>
  <text style="stroke:none;fill:black;font-family:sans-serif;font-size:13;" transform="matrix(1 0 0 1 776 2025)">scales and weights.</text>
  <g transform="matrix(0.2 0 0 0.2 1289 1933)">
   <path d="m14.209 9.32617 8.49609 8.54492c4.29688 4.3457 9.22852 4.05273 13.8672-1.07422l53.4668-58.9355-4.83398-4.88281-53.0762 58.3984c-1.75781 2.00195-3.41797 2.49023-5.76172 0.146484l-5.85938-5.81055c-2.34375-2.29492-1.80664-4.00391 0.195312-5.81055l57.373-54.0039-4.88281-4.83398-57.959 54.4434c-4.93164 4.58984-5.32227 9.47266-1.02539 13.8184Zm32.0801-90.9668c-2.09961 2.05078-2.24609 4.93164-1.07422 6.88477 1.17188 1.80664 3.4668 2.97852 6.68945 2.14844 7.32422-1.70898 14.9414-2.00195 22.0703 2.68555l-2.92969 7.27539c-1.70898 4.15039-0.830078 7.08008 1.85547 9.81445l11.4746 11.5723c2.44141 2.44141 4.49219 2.53906 7.32422 2.05078l5.32227-0.976562 3.32031 3.36914-0.195312 2.7832c-0.195312 2.49023 0.439453 4.39453 2.88086 6.78711l3.80859 3.71094c2.39258 2.39258 5.46875 2.53906 7.8125 0.195312l14.5508-14.5996c2.34375-2.34375 2.24609-5.32227-0.146484-7.71484l-3.85742-3.80859c-2.39258-2.39258-4.24805-3.17383-6.64062-2.97852l-2.88086 0.244141-3.22266-3.17383 1.2207-5.61523c0.634766-2.83203-0.146484-5.0293-3.07617-7.95898l-10.9863-10.9375c-16.6992-16.6016-38.8672-16.2109-53.3203-1.75781Zm7.4707 1.85547c12.1582-8.88672 28.6133-7.37305 39.7461 3.75977l12.1582 12.0605c1.17188 1.17188 1.36719 2.09961 1.02539 3.80859l-1.61133 7.42188 7.51953 7.42188 4.93164-0.292969c1.26953-0.0488281 1.66016 0.0488281 2.63672 1.02539l2.88086 2.88086-12.207 12.207-2.88086-2.88086c-0.976562-0.976562-1.12305-1.36719-1.07422-2.68555l0.341797-4.88281-7.4707-7.42188-7.61719 1.26953c-1.61133 0.341797-2.34375 0.195312-3.56445-0.976562l-10.0098-10.0098c-1.26953-1.17188-1.41602-2.00195-0.634766-3.85742l4.39453-10.4492c-7.8125-7.27539-17.9688-10.4004-28.125-7.42188-0.78125 0.195312-1.07422-0.439453-0.439453-0.976562Z"/>
  </g>
  <text style="stroke:none;fill:black;font-family:sans-serif;font-size:13;font-weight:bold;" transform="matrix(1 0 0 1 1289 1953)">Exporting</text>
  <text style="stroke:none;fill:black;font-family:sans-serif;font-size:13;" transform="matrix(1 0 0 1 1289 1971)">Symbols should be outlined when exporting to ensure the</text>
  <text style="stroke:none;fill:black;font-family:sans-serif;font-size:13;" transform="matrix(1 0 0 1 1289 1989)">design is preserved when submitting to Xcode.</text>
  <text id="template-version" style="stroke:none;fill:black;font-family:sans-serif;font-size:13;text-anchor:end;" transform="matrix(1 0 0 1 3036 1933)">Template v.5.0</text>
  <text style="stroke:none;fill:black;font-family:sans-serif;font-size:13;text-anchor:end;" transform="matrix(1 0 0 1 3036 1951)">Requires Xcode 15 or greater</text>
  <text id="descriptive-name" style="stroke:none;fill:black;font-family:sans-serif;font-size:13;text-anchor:end;" transform="matrix(1 0 0 1 3036 1969)">Generated from circle.fill</text>
  <text style="stroke:none;fill:black;font-family:sans-serif;font-size:13;text-anchor:end;" transform="matrix(1 0 0 1 3036 1987)">Typeset at 100.0 points</text>
  <text style="stroke:none;fill:black;font-family:sans-serif;font-size:13;" transform="matrix(1 0 0 1 263 726)">Small</text>
  <text style="stroke:none;fill:black;font-family:sans-serif;font-size:13;" transform="matrix(1 0 0 1 263 1156)">Medium</text>
  <text style="stroke:none;fill:black;font-family:sans-serif;font-size:13;" transform="matrix(1 0 0 1 263 1586)">Large</text>
 </g>
 <g id="Guides">
  <g id="H-reference" style="fill:#27AAE1;stroke:none;" transform="matrix(1 0 0 1 339 696)">
   <path d="M0.993654 0L3.63775 0L29.3281-67.1323L30.0303-67.1323L30.0303-70.459L28.1226-70.459ZM11.6885-24.4799L46.9815-24.4799L46.2315-26.7285L12.4385-26.7285ZM55.1196 0L57.7637 0L30.6382-70.459L29.4326-70.459L29.4326-67.1323Z"/>
  </g>
  <line id="Baseline-S" style="fill:none;stroke:#27AAE1;opacity:1;stroke-width:0.5;" x1="263" x2="3036" y1="696" y2="696"/>
  <line id="Capline-S" style="fill:none;stroke:#27AAE1;opacity:1;stroke-width:0.5;" x1="263" x2="3036" y1="625.541" y2="625.541"/>
  <g id="H-reference" style="fill:#27AAE1;stroke:none;" transform="matrix(1 0 0 1 339 1126)">
   <path d="M0.993654 0L3.63775 0L29.3281-67.1323L30.0303-67.1323L30.0303-70.459L28.1226-70.459ZM11.6885-24.4799L46.9815-24.4799L46.2315-26.7285L12.4385-26.7285ZM55.1196 0L57.7637 0L30.6382-70.459L29.4326-70.459L29.4326-67.1323Z"/>
  </g>
  <line id="Baseline-M" style="fill:none;stroke:#27AAE1;opacity:1;stroke-width:0.5;" x1="263" x2="3036" y1="1126" y2="1126"/>
  <line id="Capline-M" style="fill:none;stroke:#27AAE1;opacity:1;stroke-width:0.5;" x1="263" x2="3036" y1="1055.54" y2="1055.54"/>
  <g id="H-reference" style="fill:#27AAE1;stroke:none;" transform="matrix(1 0 0 1 339 1556)">
   <path d="M0.993654 0L3.63775 0L29.3281-67.1323L30.0303-67.1323L30.0303-70.459L28.1226-70.459ZM11.6885-24.4799L46.9815-24.4799L46.2315-26.7285L12.4385-26.7285ZM55.1196 0L57.7637 0L30.6382-70.459L29.4326-70.459L29.4326-67.1323Z"/>
  </g>
  <line id="Baseline-L" style="fill:none;stroke:#27AAE1;opacity:1;stroke-width:0.5;" x1="263" x2="3036" y1="1556" y2="1556"/>
  <line id="Capline-L" style="fill:none;stroke:#27AAE1;opacity:1;stroke-width:0.5;" x1="263" x2="3036" y1="1485.54" y2="1485.54"/>
  <line id="left-margin-Ultralight-S" style="fill:none;stroke:#00AEEF;stroke-width:0.5;opacity:1.0;" x1="515.649" x2="515.649" y1="600.785" y2="720.121"/>
  <line id="right-margin-Ultralight-S" style="fill:none;stroke:#00AEEF;stroke-width:0.5;opacity:1.0;" x1="603.773" x2="603.773" y1="600.785" y2="720.121"/>
  <line id="left-margin-Regular-S" style="fill:none;stroke:#00AEEF;stroke-width:0.5;opacity:1.0;" x1="1403.58" x2="1403.58" y1="600.785" y2="720.121"/>
  <line id="right-margin-Regular-S" style="fill:none;stroke:#00AEEF;stroke-width:0.5;opacity:1.0;" x1="1496.11" x2="1496.11" y1="600.785" y2="720.121"/>
  <line id="left-margin-Black-S" style="fill:none;stroke:#00AEEF;stroke-width:0.5;opacity:1.0;" x1="2884.57" x2="2884.57" y1="600.785" y2="720.121"/>
  <line id="right-margin-Black-S" style="fill:none;stroke:#00AEEF;stroke-width:0.5;opacity:1.0;" x1="2982.23" x2="2982.23" y1="600.785" y2="720.121"/>
 </g>
 <g id="Symbols">
  <g id="Black-S" transform="matrix(1 0 0 1 2884.57 696)">
   <path class="SFSymbolsPreviewWireframe" d="M48.8281 6.78711C71.9727 6.78711 90.8203-12.0605 90.8203-35.2051C90.8203-58.3496 71.9727-77.1973 48.8281-77.1973C25.6836-77.1973 6.83594-58.3496 6.83594-35.2051C6.83594-12.0605 25.6836 6.78711 48.8281 6.78711ZM36.2723-34.2929C40.7417-34.2929 44.2911-38.105 44.2911-42.9025C44.2911-47.5308 40.6365-51.3991 36.2723-51.3991C31.8762-51.3991 28.249-47.5094 28.249-42.9056C28.249-38.0775 31.8-34.2929 36.2723-34.2929ZM36.2723-40.2264C35.1544-40.2264 34.1825-41.3207 34.1825-42.9056C34.1825-44.2951 35.2032-45.4656 36.2723-45.4656C37.311-45.4656 38.3562-44.2891 38.3562-42.9025C38.3562-41.3207 37.4192-40.2264 36.2723-40.2264ZM26.455-16.3597L46.1001-16.3597C49.818-16.3597 51.6488-18.2175 51.6488-21.402C51.6488-27.817 44.7101-33.3784 36.2798-33.3784C27.845-33.3784 20.9064-27.817 20.9064-21.402C20.9064-18.2175 22.7371-16.3597 26.455-16.3597ZM27.8474-22.3266C27.7297-22.3266 27.7365-22.4689 27.7365-22.4586C27.7365-24.6983 31.3394-27.4694 36.2798-27.4694C41.2188-27.4694 44.8187-24.6983 44.8187-22.4586C44.8187-22.4689 44.8255-22.3266 44.7077-22.3266ZM47.9309-12.4032L70.5183-12.4032C78.0982-12.4032 80.737-16.8498 80.737-21.1094C80.737-30.1736 70.8836-37.4063 59.2254-37.4063C47.5628-37.4063 37.7135-30.1736 37.7135-21.1094C37.7135-16.8498 40.3512-12.4032 47.9309-12.4032ZM59.2179-34.7259C64.3066-34.7259 68.2943-39.0248 68.2943-44.4647C68.2943-49.7062 64.2029-54.0978 59.2179-54.0978C54.2328-54.0978 50.1402-49.7138 50.1402-44.4677C50.1402-39.0263 54.1276-34.7259 59.2179-34.7259ZM59.2179-40.7736C57.5568-40.7736 56.1713-42.2984 56.1713-44.4966C56.1713-46.4416 57.636-48.0517 59.2179-48.0517C60.8286-48.0517 62.2628-46.4356 62.2628-44.4647C62.2628-42.3243 60.9078-40.7736 59.2179-40.7736ZM47.9309-16.3886L70.5183-16.3886C74.6254-16.3886 76.7472-17.9433 76.7472-21.1094C76.7472-27.7125 68.8472-33.4179 59.2254-33.4179C49.5991-33.4179 41.6989-27.7125 41.6989-21.1094C41.6989-17.9433 43.8208-16.3886 47.9309-16.3886ZM48.9514-22.4348C48.8772-22.4348 48.8885-22.5876 48.8885-22.6153C48.8885-24.1301 52.8179-27.3717 59.2254-27.3717C65.6284-27.3717 69.5593-24.1301 69.5593-22.6153C69.5593-22.5876 69.569-22.4348 69.498-22.4348Z"/>
  </g>
  <g id="Regular-S" transform="matrix(1 0 0 1 1403.58 696)">
   <path class="SFSymbolsPreviewWireframe" d="M46.2402 4.15039C67.7734 4.15039 85.6934-13.7207 85.6934-35.2539C85.6934-56.7871 67.7246-74.6582 46.1914-74.6582C24.707-74.6582 6.83594-56.7871 6.83594-35.2539C6.83594-13.7207 24.7559 4.15039 46.2402 4.15039ZM33.9595-34.7449C38.1477-34.7449 41.5561-38.4481 41.5561-43.0149C41.5561-47.4558 38.149-51.0794 33.9595-51.0794C29.7857-51.0794 26.3457-47.4036 26.3457-42.9871C26.3457-38.422 29.7697-34.7449 33.9595-34.7449ZM33.9595-39.1531C32.2447-39.1531 30.7539-40.8362 30.7539-42.9871C30.7539-45.031 32.2346-46.6712 33.9595-46.6712C35.6862-46.6712 37.1619-45.0572 37.1619-43.0149C37.1619-40.8362 35.6865-39.1531 33.9595-39.1531ZM23.7593-16.9328L44.1507-16.9328C47.3262-16.9328 48.9096-18.3542 48.9096-20.9877C48.9096-27.4929 42.0667-33.1492 33.9489-33.1492C25.8433-33.1492 19.0004-27.4929 19.0004-20.9877C19.0004-18.3542 20.5837-16.9328 23.7593-16.9328ZM23.9941-21.3409C23.8476-21.3409 23.7846-21.4522 23.7846-21.5617C23.7846-25.1034 28.3625-28.7655 33.9489-28.7655C39.5491-28.7655 44.1254-25.1034 44.1254-21.5617C44.1254-21.4522 44.0624-21.3409 43.9159-21.3409ZM44.8072-13.594L67.9515-13.594C74.3698-13.594 76.8669-16.9764 76.8669-20.7945C76.8669-28.4796 68.2708-36.5049 56.3725-36.5049C44.4866-36.5049 35.878-28.4796 35.878-20.7945C35.878-16.9764 38.3889-13.594 44.8072-13.594ZM56.3831-34.993C61.1865-34.993 65.0778-39.1984 65.0778-44.3599C65.0778-49.4422 61.1739-53.54 56.3831-53.54C51.5923-53.54 47.673-49.4021 47.673-44.3321C47.673-39.1845 51.5641-34.993 56.3831-34.993ZM56.3831-39.4637C54.1868-39.4637 52.2965-41.5814 52.2965-44.3442C52.2965-47.0052 54.175-49.0555 56.3831-49.0555C58.6034-49.0555 60.4541-47.0314 60.4541-44.3599C60.4541-41.6213 58.5916-39.4637 56.3831-39.4637ZM44.8072-16.945L67.9515-16.945C71.6788-16.945 73.5283-18.1822 73.5283-20.7945C73.5283-26.4853 66.5125-33.1524 56.3725-33.1524C46.2448-33.1524 39.2289-26.4853 39.2289-20.7945C39.2289-18.1822 41.0783-16.945 44.8072-16.945ZM44.5662-21.4295C44.3991-21.4295 44.3239-21.5318 44.3239-21.6877C44.3239-23.9558 48.6934-28.6678 56.3725-28.6678C64.0639-28.6678 68.4195-23.9558 68.4195-21.6877C68.4195-21.5318 68.3579-21.4295 68.1925-21.4295Z"/>
  </g>
  <g id="Ultralight-S" transform="matrix(1 0 0 1 515.649 696)">
   <path class="SFSymbolsPreviewWireframe" d="M44.0606 1.97072C64.5039 1.97072 81.2886-14.8105 81.2886-35.2539C81.2886-55.6973 64.5005-72.4785 44.0571-72.4785C23.5718-72.4785 6.83594-55.6973 6.83594-35.2539C6.83594-14.8105 23.5752 1.97072 44.0606 1.97072ZM32.0056-35.0564C35.8556-35.0564 38.9069-38.4107 38.9069-42.6757C38.9069-46.7711 35.8137-50.1127 32.0056-50.1127C28.2176-50.1127 25.1232-46.7266 25.1232-42.6556C25.1232-38.4006 28.17-35.0564 32.0056-35.0564ZM32.0056-36.9364C29.214-36.9364 27.0031-39.4202 27.0031-42.6556C27.0031-45.7128 29.2515-48.2328 32.0056-48.2328C34.7698-48.2328 37.0369-45.7472 37.0369-42.6757C37.0369-39.4202 34.7973-36.9364 32.0056-36.9364ZM21.0183-17.9174L42.9398-17.9174C45.1229-17.9174 46.2123-18.8434 46.2123-20.7485C46.2123-26.6583 40.2943-32.6834 31.9669-32.6834C23.6638-32.6834 17.7458-26.6583 17.7458-20.7485C17.7458-18.8434 18.8351-17.9174 21.0183-17.9174ZM20.7922-19.773C19.9493-19.773 19.6257-20.0721 19.6257-20.8387C19.6257-26.1468 25.2834-30.8278 31.9669-30.8278C38.6604-30.8278 44.3324-26.1468 44.3324-20.8387C44.3324-20.0721 44.0088-19.773 43.1659-19.773ZM41.4868-15.8956L66.5197-15.8956C70.6127-15.8956 72.3766-17.8935 72.3766-20.612C72.3766-26.7302 65.2141-34.6376 53.9984-34.6376C42.8069-34.6376 35.6201-26.7302 35.6201-20.612C35.6201-17.8935 37.3939-15.8956 41.4868-15.8956ZM54.0372-35.3512C58.4543-35.3512 61.9607-39.2037 61.9607-44.0591C61.9607-48.7561 58.4024-52.5516 54.0372-52.5516C49.6719-52.5516 46.118-48.7116 46.118-44.039C46.118-39.1937 49.6244-35.3512 54.0372-35.3512ZM54.0372-37.2412C50.7485-37.2412 48.1182-40.2076 48.1182-44.039C48.1182-47.6977 50.776-50.6515 54.0372-50.6515C57.2983-50.6515 59.9604-47.7322 59.9604-44.0591C59.9604-40.2276 57.3258-37.2412 54.0372-37.2412ZM41.4868-17.9174L66.5197-17.9174C69.1318-17.9174 70.3793-18.7601 70.3793-20.612C70.3793-25.5838 64.1223-32.6302 53.9984-32.6302C43.8989-32.6302 37.6419-25.5838 37.6419-20.612C37.6419-18.7601 38.8891-17.9174 41.4868-17.9174ZM41.0402-19.8175C39.9801-19.8175 39.6322-20.0634 39.6322-20.7924C39.6322-24.6706 44.9053-30.7302 53.9984-30.7302C63.1158-30.7302 68.3791-24.6706 68.3791-20.7924C68.3791-20.0634 68.0408-19.8175 66.9664-19.8175Z"/>
  </g>
 </g>
 <g id="LayerTree">
  <g class="monochrome-0 multicolor-0:tintColor hierarchical-0:tertiary"/>
  <g class="monochrome-1 multicolor-1:white hierarchical-1:primary">
   <g class="shapeGroupLayer-0"/>
   <g class="shapeGroupLayer-1"/>
   <g class="shapeGroupLayer-2"/>
  </g>
 </g>
</svg>
