<?xml version="1.0" encoding="UTF-8"?>
<!--Generator: Apple Native CoreSVG 341-->
<!DOCTYPE svg
PUBLIC "-//W3C//DTD SVG 1.1//EN"
       "http://www.w3.org/Graphics/SVG/1.1/DTD/svg11.dtd">
<svg version="1.1" xmlns="http://www.w3.org/2000/svg" xmlns:xlink="http://www.w3.org/1999/xlink" viewBox="0 0 3300 2200">
 <!--glyph: "", point size: 100.0, font version: "20.0d10e1", template writer version: "138.0.0"-->
 <style>.monochrome-0 {-sfsymbols-motion-group:3;-sfsymbols-layer-tags:617bc08dd356b774}
.monochrome-1 {-sfsymbols-motion-group:2;-sfsymbols-layer-tags:617bc08dd356b774}
.monochrome-2 {opacity:0.0;-sfsymbols-clear-behind:true;-sfsymbols-motion-group:1;-sfsymbols-layer-tags:617bc08dd356b774}
.monochrome-3 {-sfsymbols-motion-group:0;-sfsymbols-layer-tags:617bc08dd356b774}

.multicolor-0:tintColor {-sfsymbols-motion-group:3;-sfsymbols-layer-tags:617bc08dd356b774}
.multicolor-1:tintColor {-sfsymbols-motion-group:2;-sfsymbols-layer-tags:617bc08dd356b774}
.multicolor-2:tintColor {-sfsymbols-motion-group:1;-sfsymbols-layer-tags:617bc08dd356b774}
.multicolor-3:tintColor {-sfsymbols-motion-group:0;-sfsymbols-layer-tags:617bc08dd356b774}

.hierarchical-0:primary {-sfsymbols-motion-group:3;-sfsymbols-layer-tags:617bc08dd356b774}
.hierarchical-1:secondary {-sfsymbols-motion-group:2;-sfsymbols-layer-tags:617bc08dd356b774}
.hierarchical-2:tertiary {-sfsymbols-motion-group:1;-sfsymbols-layer-tags:617bc08dd356b774}
.hierarchical-3:primary {-sfsymbols-motion-group:0;-sfsymbols-layer-tags:617bc08dd356b774}

.SFSymbolsPreviewWireframe {fill:none;opacity:1.0;stroke:black;stroke-width:0.5}
</style>
 <g id="Notes">
  <rect height="2200" id="artboard" style="fill:white;opacity:1" width="3300" x="0" y="0"/>
  <line style="fill:none;stroke:black;opacity:1;stroke-width:0.5;" x1="263" x2="3036" y1="292" y2="292"/>
  <text style="stroke:none;fill:black;font-family:sans-serif;font-size:13;font-weight:bold;" transform="matrix(1 0 0 1 263 322)">Weight/Scale Variations</text>
  <text style="stroke:none;fill:black;font-family:sans-serif;font-size:13;text-anchor:middle;" transform="matrix(1 0 0 1 559.711 322)">Ultralight</text>
  <text style="stroke:none;fill:black;font-family:sans-serif;font-size:13;text-anchor:middle;" transform="matrix(1 0 0 1 856.422 322)">Thin</text>
  <text style="stroke:none;fill:black;font-family:sans-serif;font-size:13;text-anchor:middle;" transform="matrix(1 0 0 1 1153.13 322)">Light</text>
  <text style="stroke:none;fill:black;font-family:sans-serif;font-size:13;text-anchor:middle;" transform="matrix(1 0 0 1 1449.84 322)">Regular</text>
  <text style="stroke:none;fill:black;font-family:sans-serif;font-size:13;text-anchor:middle;" transform="matrix(1 0 0 1 1746.56 322)">Medium</text>
  <text style="stroke:none;fill:black;font-family:sans-serif;font-size:13;text-anchor:middle;" transform="matrix(1 0 0 1 2043.27 322)">Semibold</text>
  <text style="stroke:none;fill:black;font-family:sans-serif;font-size:13;text-anchor:middle;" transform="matrix(1 0 0 1 2339.98 322)">Bold</text>
  <text style="stroke:none;fill:black;font-family:sans-serif;font-size:13;text-anchor:middle;" transform="matrix(1 0 0 1 2636.69 322)">Heavy</text>
  <text style="stroke:none;fill:black;font-family:sans-serif;font-size:13;text-anchor:middle;" transform="matrix(1 0 0 1 2933.4 322)">Black</text>
  <line style="fill:none;stroke:black;opacity:1;stroke-width:0.5;" x1="263" x2="3036" y1="1903" y2="1903"/>
  <g transform="matrix(0.2 0 0 0.2 263 1933)">
   <path d="m46.2402 4.15039c21.7773 0 39.4531-17.627 39.4531-39.4043s-17.6758-39.4043-39.4531-39.4043c-21.7285 0-39.4043 17.627-39.4043 39.4043s17.6758 39.4043 39.4043 39.4043Zm0-7.42188c-17.6758 0-31.9336-14.3066-31.9336-31.9824s14.2578-31.9824 31.9336-31.9824 31.9824 14.3066 31.9824 31.9824-14.3066 31.9824-31.9824 31.9824Zm-17.9688-31.9824c0 2.14844 1.51367 3.61328 3.75977 3.61328h10.498v10.5957c0 2.19727 1.46484 3.71094 3.61328 3.71094 2.24609 0 3.71094-1.51367 3.71094-3.71094v-10.5957h10.5957c2.19727 0 3.71094-1.46484 3.71094-3.61328 0-2.19727-1.51367-3.71094-3.71094-3.71094h-10.5957v-10.5469c0-2.24609-1.46484-3.75977-3.71094-3.75977-2.14844 0-3.61328 1.51367-3.61328 3.75977v10.5469h-10.498c-2.24609 0-3.75977 1.51367-3.75977 3.71094Z"/>
  </g>
  <g transform="matrix(0.2 0 0 0.2 281.506 1933)">
   <path d="m58.5449 14.5508c27.4902 0 49.8047-22.3145 49.8047-49.8047s-22.3145-49.8047-49.8047-49.8047-49.8047 22.3145-49.8047 49.8047 22.3145 49.8047 49.8047 49.8047Zm0-8.30078c-22.9492 0-41.5039-18.5547-41.5039-41.5039s18.5547-41.5039 41.5039-41.5039 41.5039 18.5547 41.5039 41.5039-18.5547 41.5039-41.5039 41.5039Zm-22.6562-41.5039c0 2.39258 1.66016 4.00391 4.15039 4.00391h14.3555v14.4043c0 2.44141 1.66016 4.15039 4.05273 4.15039 2.44141 0 4.15039-1.66016 4.15039-4.15039v-14.4043h14.4043c2.44141 0 4.15039-1.61133 4.15039-4.00391 0-2.44141-1.70898-4.15039-4.15039-4.15039h-14.4043v-14.3555c0-2.49023-1.70898-4.19922-4.15039-4.19922-2.39258 0-4.05273 1.70898-4.05273 4.19922v14.3555h-14.3555c-2.49023 0-4.15039 1.70898-4.15039 4.15039Z"/>
  </g>
  <g transform="matrix(0.2 0 0 0.2 304.924 1933)">
   <path d="m74.8535 28.3203c35.1074 0 63.623-28.4668 63.623-63.5742s-28.5156-63.623-63.623-63.623-63.5742 28.5156-63.5742 63.623 28.4668 63.5742 63.5742 63.5742Zm0-9.08203c-30.127 0-54.4922-24.3652-54.4922-54.4922s24.3652-54.4922 54.4922-54.4922 54.4922 24.3652 54.4922 54.4922-24.3652 54.4922-54.4922 54.4922Zm-28.8574-54.4922c0 2.58789 1.85547 4.39453 4.58984 4.39453h19.7266v19.7754c0 2.68555 1.85547 4.58984 4.44336 4.58984 2.68555 0 4.54102-1.85547 4.54102-4.58984v-19.7754h19.7754c2.68555 0 4.58984-1.80664 4.58984-4.39453 0-2.73438-1.85547-4.58984-4.58984-4.58984h-19.7754v-19.7266c0-2.73438-1.85547-4.63867-4.54102-4.63867-2.58789 0-4.44336 1.9043-4.44336 4.63867v19.7266h-19.7266c-2.73438 0-4.58984 1.85547-4.58984 4.58984Z"/>
  </g>
  <text style="stroke:none;fill:black;font-family:sans-serif;font-size:13;font-weight:bold;" transform="matrix(1 0 0 1 263 1953)">Design Variations</text>
  <text style="stroke:none;fill:black;font-family:sans-serif;font-size:13;" transform="matrix(1 0 0 1 263 1971)">Symbols are supported in up to nine weights and three scales.</text>
  <text style="stroke:none;fill:black;font-family:sans-serif;font-size:13;" transform="matrix(1 0 0 1 263 1989)">For optimal layout with text and other symbols, vertically align</text>
  <text style="stroke:none;fill:black;font-family:sans-serif;font-size:13;" transform="matrix(1 0 0 1 263 2007)">symbols with the adjacent text.</text>
  <line style="fill:none;stroke:#00AEEF;stroke-width:0.5;opacity:1.0;" x1="776" x2="776" y1="1919" y2="1933"/>
  <g transform="matrix(0.2 0 0 0.2 776 1933)">
   <path d="m16.5527 0.78125c2.58789 0 3.85742-0.976562 4.78516-3.71094l6.29883-17.2363h28.8086l6.29883 17.2363c0.927734 2.73438 2.19727 3.71094 4.73633 3.71094 2.58789 0 4.24805-1.5625 4.24805-4.00391 0-0.830078-0.146484-1.61133-0.537109-2.63672l-22.9004-60.9863c-1.12305-2.97852-3.125-4.49219-6.25-4.49219-3.02734 0-5.07812 1.46484-6.15234 4.44336l-22.9004 61.084c-0.390625 1.02539-0.537109 1.80664-0.537109 2.63672 0 2.44141 1.5625 3.95508 4.10156 3.95508Zm13.4766-28.3691 11.8652-32.8613h0.244141l11.8652 32.8613Z"/>
  </g>
  <line style="fill:none;stroke:#00AEEF;stroke-width:0.5;opacity:1.0;" x1="792.836" x2="792.836" y1="1919" y2="1933"/>
  <text style="stroke:none;fill:black;font-family:sans-serif;font-size:13;font-weight:bold;" transform="matrix(1 0 0 1 776 1953)">Margins</text>
  <text style="stroke:none;fill:black;font-family:sans-serif;font-size:13;" transform="matrix(1 0 0 1 776 1971)">Leading and trailing margins on the left and right side of each symbol</text>
  <text style="stroke:none;fill:black;font-family:sans-serif;font-size:13;" transform="matrix(1 0 0 1 776 1989)">can be adjusted by modifying the x-location of the margin guidelines.</text>
  <text style="stroke:none;fill:black;font-family:sans-serif;font-size:13;" transform="matrix(1 0 0 1 776 2007)">Modifications are automatically applied proportionally to all</text>
  <text style="stroke:none;fill:black;font-family:sans-serif;font-size:13;" transform="matrix(1 0 0 1 776 2025)">scales and weights.</text>
  <g transform="matrix(0.2 0 0 0.2 1289 1933)">
   <path d="m14.209 9.32617 8.49609 8.54492c4.29688 4.3457 9.22852 4.05273 13.8672-1.07422l53.4668-58.9355-4.83398-4.88281-53.0762 58.3984c-1.75781 2.00195-3.41797 2.49023-5.76172 0.146484l-5.85938-5.81055c-2.34375-2.29492-1.80664-4.00391 0.195312-5.81055l57.373-54.0039-4.88281-4.83398-57.959 54.4434c-4.93164 4.58984-5.32227 9.47266-1.02539 13.8184Zm32.0801-90.9668c-2.09961 2.05078-2.24609 4.93164-1.07422 6.88477 1.17188 1.80664 3.4668 2.97852 6.68945 2.14844 7.32422-1.70898 14.9414-2.00195 22.0703 2.68555l-2.92969 7.27539c-1.70898 4.15039-0.830078 7.08008 1.85547 9.81445l11.4746 11.5723c2.44141 2.44141 4.49219 2.53906 7.32422 2.05078l5.32227-0.976562 3.32031 3.36914-0.195312 2.7832c-0.195312 2.49023 0.439453 4.39453 2.88086 6.78711l3.80859 3.71094c2.39258 2.39258 5.46875 2.53906 7.8125 0.195312l14.5508-14.5996c2.34375-2.34375 2.24609-5.32227-0.146484-7.71484l-3.85742-3.80859c-2.39258-2.39258-4.24805-3.17383-6.64062-2.97852l-2.88086 0.244141-3.22266-3.17383 1.2207-5.61523c0.634766-2.83203-0.146484-5.0293-3.07617-7.95898l-10.9863-10.9375c-16.6992-16.6016-38.8672-16.2109-53.3203-1.75781Zm7.4707 1.85547c12.1582-8.88672 28.6133-7.37305 39.7461 3.75977l12.1582 12.0605c1.17188 1.17188 1.36719 2.09961 1.02539 3.80859l-1.61133 7.42188 7.51953 7.42188 4.93164-0.292969c1.26953-0.0488281 1.66016 0.0488281 2.63672 1.02539l2.88086 2.88086-12.207 12.207-2.88086-2.88086c-0.976562-0.976562-1.12305-1.36719-1.07422-2.68555l0.341797-4.88281-7.4707-7.42188-7.61719 1.26953c-1.61133 0.341797-2.34375 0.195312-3.56445-0.976562l-10.0098-10.0098c-1.26953-1.17188-1.41602-2.00195-0.634766-3.85742l4.39453-10.4492c-7.8125-7.27539-17.9688-10.4004-28.125-7.42188-0.78125 0.195312-1.07422-0.439453-0.439453-0.976562Z"/>
  </g>
  <text style="stroke:none;fill:black;font-family:sans-serif;font-size:13;font-weight:bold;" transform="matrix(1 0 0 1 1289 1953)">Exporting</text>
  <text style="stroke:none;fill:black;font-family:sans-serif;font-size:13;" transform="matrix(1 0 0 1 1289 1971)">Symbols should be outlined when exporting to ensure the</text>
  <text style="stroke:none;fill:black;font-family:sans-serif;font-size:13;" transform="matrix(1 0 0 1 1289 1989)">design is preserved when submitting to Xcode.</text>
  <text id="template-version" style="stroke:none;fill:black;font-family:sans-serif;font-size:13;text-anchor:end;" transform="matrix(1 0 0 1 3036 1933)">Template v.6.0</text>
  <text style="stroke:none;fill:black;font-family:sans-serif;font-size:13;text-anchor:end;" transform="matrix(1 0 0 1 3036 1951)">Requires Xcode 16 or greater</text>
  <text id="descriptive-name" style="stroke:none;fill:black;font-family:sans-serif;font-size:13;text-anchor:end;" transform="matrix(1 0 0 1 3036 1969)">Generated from xabber.invite</text>
  <text style="stroke:none;fill:black;font-family:sans-serif;font-size:13;text-anchor:end;" transform="matrix(1 0 0 1 3036 1987)">Typeset at 100.0 points</text>
  <text style="stroke:none;fill:black;font-family:sans-serif;font-size:13;" transform="matrix(1 0 0 1 263 726)">Small</text>
  <text style="stroke:none;fill:black;font-family:sans-serif;font-size:13;" transform="matrix(1 0 0 1 263 1156)">Medium</text>
  <text style="stroke:none;fill:black;font-family:sans-serif;font-size:13;" transform="matrix(1 0 0 1 263 1586)">Large</text>
 </g>
 <g id="Guides">
  <g id="H-reference" style="fill:#27AAE1;stroke:none;" transform="matrix(1 0 0 1 339 696)">
   <path d="M0.993654 0L3.63775 0L29.3281-67.1323L30.0303-67.1323L30.0303-70.459L28.1226-70.459ZM11.6885-24.4799L46.9815-24.4799L46.2315-26.7285L12.4385-26.7285ZM55.1196 0L57.7637 0L30.6382-70.459L29.4326-70.459L29.4326-67.1323Z"/>
  </g>
  <line id="Baseline-S" style="fill:none;stroke:#27AAE1;opacity:1;stroke-width:0.5;" x1="263" x2="3036" y1="696" y2="696"/>
  <line id="Capline-S" style="fill:none;stroke:#27AAE1;opacity:1;stroke-width:0.5;" x1="263" x2="3036" y1="625.541" y2="625.541"/>
  <g id="H-reference" style="fill:#27AAE1;stroke:none;" transform="matrix(1 0 0 1 339 1126)">
   <path d="M0.993654 0L3.63775 0L29.3281-67.1323L30.0303-67.1323L30.0303-70.459L28.1226-70.459ZM11.6885-24.4799L46.9815-24.4799L46.2315-26.7285L12.4385-26.7285ZM55.1196 0L57.7637 0L30.6382-70.459L29.4326-70.459L29.4326-67.1323Z"/>
  </g>
  <line id="Baseline-M" style="fill:none;stroke:#27AAE1;opacity:1;stroke-width:0.5;" x1="263" x2="3036" y1="1126" y2="1126"/>
  <line id="Capline-M" style="fill:none;stroke:#27AAE1;opacity:1;stroke-width:0.5;" x1="263" x2="3036" y1="1055.54" y2="1055.54"/>
  <g id="H-reference" style="fill:#27AAE1;stroke:none;" transform="matrix(1 0 0 1 339 1556)">
   <path d="M0.993654 0L3.63775 0L29.3281-67.1323L30.0303-67.1323L30.0303-70.459L28.1226-70.459ZM11.6885-24.4799L46.9815-24.4799L46.2315-26.7285L12.4385-26.7285ZM55.1196 0L57.7637 0L30.6382-70.459L29.4326-70.459L29.4326-67.1323Z"/>
  </g>
  <line id="Baseline-L" style="fill:none;stroke:#27AAE1;opacity:1;stroke-width:0.5;" x1="263" x2="3036" y1="1556" y2="1556"/>
  <line id="Capline-L" style="fill:none;stroke:#27AAE1;opacity:1;stroke-width:0.5;" x1="263" x2="3036" y1="1485.54" y2="1485.54"/>
  <line id="right-margin-Black-S" style="fill:none;stroke:#00AEEF;stroke-width:0.5;opacity:1.0;" x1="2993.36" x2="2993.36" y1="600.785" y2="720.121"/>
  <line id="left-margin-Black-S" style="fill:none;stroke:#00AEEF;stroke-width:0.5;opacity:1.0;" x1="2873.44" x2="2873.44" y1="600.785" y2="720.121"/>
  <line id="right-margin-Regular-S" style="fill:none;stroke:#00AEEF;stroke-width:0.5;opacity:1.0;" x1="1506.17" x2="1506.17" y1="600.785" y2="720.121"/>
  <line id="left-margin-Regular-S" style="fill:none;stroke:#00AEEF;stroke-width:0.5;opacity:1.0;" x1="1393.52" x2="1393.52" y1="600.785" y2="720.121"/>
  <line id="right-margin-Ultralight-S" style="fill:none;stroke:#00AEEF;stroke-width:0.5;opacity:1.0;" x1="613.832" x2="613.832" y1="600.785" y2="720.121"/>
  <line id="left-margin-Ultralight-S" style="fill:none;stroke:#00AEEF;stroke-width:0.5;opacity:1.0;" x1="505.59" x2="505.59" y1="600.785" y2="720.121"/>
 </g>
 <g id="Symbols">
  <g id="Black-S" transform="matrix(1 0 0 1 2873.44 696)">
   <path class="monochrome-0 multicolor-0:tintColor hierarchical-0:primary SFSymbolsPreviewWireframe" d="M25 11.6211L94.9219 11.6211C104.492 11.6211 110.156 5.95703 110.156-3.61328L110.156-40.1367C110.156-47.998 106.445-54.0039 100.146-58.1055L70.9961-77.0996C63.1836-82.1777 56.7383-82.1777 48.9258-77.0996L19.7754-58.1055C13.4766-54.0039 9.7656-47.998 9.7656-40.1367L9.7656-3.61328C9.7656 5.95703 15.4297 11.6211 25 11.6211ZM26.0742-1.26953C23.877-1.26953 22.6562-2.49023 22.6562-4.6875L22.6562-39.9414C22.6562-43.2617 23.877-45.4102 26.4648-47.0703L55.6152-66.0645C58.6914-68.0664 61.2305-68.0664 64.3066-66.0645L93.457-47.0703C96.0449-45.4102 97.2656-43.2617 97.2656-39.9414L97.2656-4.6875C97.2656-2.49023 96.0449-1.26953 93.8477-1.26953L26.0742-1.26953ZM59.9609-35.4492C56.4941-35.4492 54.0039-34.375 50.9277-31.5918L16.3574-0.488281L23.877 7.08008L57.6172-23.3887C58.3984-24.0723 59.1309-24.4629 59.9609-24.4629C60.791-24.4629 61.5234-24.0723 62.3047-23.3887L96.0449 7.08008L103.564-0.488281L68.9941-31.5918C65.918-34.375 63.4277-35.4492 59.9609-35.4492ZM24.8535-51.123L17.2852-43.5547L43.75-17.0898L51.5137-24.4629L24.8535-51.123ZM95.0684-51.123L68.4082-24.4629L76.1719-17.0898L102.637-43.5547L95.0684-51.123ZM31.56-36.5L31.56-74C31.56-77.3137 34.2463-80 37.56-80L82.06-80C85.3737-80 88.06-77.3137 88.06-74L88.06-36.5L88.06-36.5L72.56-22L64.83-28.5407C61.8024-31.1026 57.3548-31.0595 54.3774-28.4394L47.06-22L47.06-22L31.56-36.5Z"/>
   <path class="monochrome-1 multicolor-1:tintColor hierarchical-1:secondary SFSymbolsPreviewWireframe" d="M82.06-85.5C88.4113-85.5 93.56-80.3513 93.56-74L93.56-36.5C93.56-34.9777 92.929-33.5235 91.8173-32.4835L76.3173-17.9835C74.2796-16.0773 71.1374-15.999 69.0073-17.8014L61.2773-24.3421C60.3312-25.1427 58.9413-25.1292 58.0109-24.3104L50.6934-17.8711C48.5681-16.0008 45.3701-16.0494 43.3026-17.9835L27.8026-32.4835C26.6909-33.5235 26.06-34.9777 26.06-36.5L26.06-74C26.06-80.3513 31.2087-85.5 37.56-85.5L82.06-85.5Z"/>
   <path class="monochrome-2 multicolor-2:tintColor hierarchical-2:tertiary SFSymbolsPreviewWireframe" d="M82.06-74.5L37.56-74.5C37.2838-74.5 37.06-74.2761 37.06-74L37.06-38.886L47.173-29.426L50.744-32.5683C55.6817-36.9135 63.0155-37.0587 68.1163-32.9591L68.3827-32.7394L72.376-29.36L82.56-38.887L82.56-74C82.56-74.2455 82.3831-74.4496 82.1499-74.4919L82.06-74.5Z"/>
   <path class="monochrome-3 multicolor-3:tintColor hierarchical-3:primary SFSymbolsPreviewWireframe" d="M53.9517-43.232L59.834-47.5327L65.7164-43.232C67.2543-42.1184 69.1382-43.0016 68.3692-45.1904L66.1009-52.0639L71.9833-56.2494C73.252-57.2094 73.1751-59.4749 70.9452-59.4749L63.6787-59.3982L61.4873-66.31C60.8336-68.23 58.8344-68.23 58.1808-66.31L55.9893-59.3982L48.6844-59.4749C46.5314-59.4749 46.3007-57.2094 47.6463-56.2494L53.5672-52.0255L51.2603-45.1904C50.5299-43.1552 52.3753-42.08 53.9517-43.232Z"/>
  </g>
  <g id="Regular-S" transform="matrix(1 0 0 1 1393.52 696)">
   <path class="monochrome-0 multicolor-0:tintColor hierarchical-0:primary SFSymbolsPreviewWireframe" d="M22.2168 9.27734L91.7969 9.27734C98.7305 9.27734 102.881 5.22461 102.881-2.97852L102.881-41.2109C102.881-46.582 101.807-49.4629 98.1934-52.0508L64.5508-75.7812C58.3496-80.127 54.248-80.127 48.0469-75.7812L14.4531-52.0508C10.8398-49.4629 9.7656-46.582 9.7656-41.2109L9.7656-2.97852C9.7656 5.22461 13.916 9.27734 22.2168 9.27734ZM21.9238 2.63672C18.457 2.63672 16.4551 0.732422 16.4551-2.97852L16.4551-42.4316C16.4551-44.6777 17.1387-46.1426 18.6035-47.168L52.8809-71.0449C55.4199-72.9004 57.1289-72.9004 59.7168-71.0449L94.043-47.168C95.5078-46.1426 96.1914-44.6777 96.1914-42.4316L96.1914-2.92969C96.1914 0.732422 94.1895 2.63672 90.6738 2.63672L21.9238 2.63672ZM56.2988-32.6172C53.7598-32.6172 51.2695-31.6406 49.0234-29.6387L13.1348 2.73438L17.627 7.22656L52.7832-24.4141C53.8574-25.3906 55.0781-25.8789 56.2988-25.8789C57.5684-25.8789 58.7891-25.3906 59.8633-24.4141L95.0195 7.22656L99.5117 2.73438L63.5742-29.6387C61.377-31.6406 58.8867-32.6172 56.2988-32.6172ZM18.0664-50.0977L13.5742-45.5566L40.332-18.7988L44.873-23.291L18.0664-50.0977ZM94.6289-50.1465L67.7734-23.291L72.3145-18.7988L99.1211-45.6055L94.6289-50.1465ZM28.48-35.5L28.48-74C28.48-77.3137 31.1663-80 34.48-80L78.98-80C82.2937-80 84.98-77.3137 84.98-74L84.98-35.5L84.98-35.5L68.98-20.5L62.4553-26.5027C59.0604-29.626 53.8537-29.6768 50.3986-26.6203L43.48-20.5L43.48-20.5L28.48-35.5Z"/>
   <path class="monochrome-1 multicolor-1:tintColor hierarchical-1:secondary SFSymbolsPreviewWireframe" d="M78.98-83.3C84.1162-83.3 88.28-79.1362 88.28-74L88.28-35.5C88.28-34.5879 87.9024-33.7164 87.237-33.0925L71.237-18.0925C69.9763-16.9107 68.0174-16.9015 66.7457-18.0714L60.221-24.0742C58.0709-26.0522 54.7733-26.0844 52.5851-24.1486L45.6665-18.0283C44.3601-16.8726 42.3799-16.9332 41.1465-18.1665L26.1465-33.1665C25.5277-33.7854 25.18-34.6248 25.18-35.5L25.18-74C25.18-79.1362 29.3437-83.3 34.48-83.3L78.98-83.3Z"/>
   <path class="monochrome-2 multicolor-2:tintColor hierarchical-2:tertiary SFSymbolsPreviewWireframe" d="M78.98-76.7L34.48-76.7C32.9888-76.7 31.78-75.4912 31.78-74L31.78-36.867L43.618-25.029L48.2121-29.092C52.8513-33.1959 59.801-33.2009 64.4431-29.1521L64.6896-28.9313L68.958-25.004L81.68-36.931L81.68-74C81.68-75.4338 80.5623-76.6066 79.1507-76.6947L78.98-76.7Z"/>
   <path class="monochrome-3 multicolor-3:tintColor hierarchical-3:primary SFSymbolsPreviewWireframe" d="M50.222-40.1831L56.7697-44.8707L63.238-40.1831C64.6665-39.1284 66.3729-40.105 65.7379-41.98L63.1982-49.4411L69.865-54.2067C71.4126-55.3005 70.738-57.0194 68.9919-57.0194L60.7379-57.0194L58.2776-64.5195C57.7617-66.1602 55.7776-66.1602 55.2221-64.5195L52.7617-57.0194L44.4681-57.0194C42.722-57.0194 42.0474-55.3005 43.595-54.2067L50.3411-49.4411L47.7617-41.98C47.1268-40.105 48.7934-39.1284 50.222-40.1831Z"/>
  </g>
  <g id="Ultralight-S" transform="matrix(1 0 0 1 505.59 696)">
   <path class="monochrome-0 multicolor-0:tintColor hierarchical-0:primary SFSymbolsPreviewWireframe" d="M19.7647 7.82423L88.5274 7.82423C94.916 7.82423 98.4761 4.31641 98.4761-2.16114L98.4761-43.3906C98.4761-49.352 97.856-51.1431 93.1529-54.1396L59.2832-75.7358C55.3072-78.3106 52.25-78.3106 48.2739-75.7358L15.0889-54.1396C10.4312-51.0976 9.7656-49.352 9.7656-43.3906L9.7656-2.16114C9.7656 4.31641 13.3257 7.82423 19.7647 7.82423ZM19.835 5.63377C14.7788 5.63377 11.9595 2.82127 11.9595-2.25196L11.9595-43.4307C11.9595-48.3105 12.3252-49.7754 16.2422-52.2993L49.2481-73.8603C52.5137-75.9883 55.0401-75.9883 58.3091-73.8603L91.9995-52.2993C95.9619-49.8208 96.2822-48.3105 96.2822-43.4307L96.2822-2.24854C96.2822 2.82127 93.4629 5.63377 88.4033 5.63377L19.835 5.63377ZM54.0737-31.7998C52.0342-31.7998 50.3159-31.0049 48.3423-29.23L11.9087 3.41552L13.5401 5.04689L49.9224-27.6836C51.4053-29.0234 52.6714-29.6025 54.0737-29.6025C55.4795-29.6025 56.7456-29.0234 58.2285-27.6836L94.6108 5.04689L96.1968 3.41552L59.8052-29.23C57.835-31.0049 56.1167-31.7998 54.0737-31.7998ZM12.2994-49.8706L10.7588-48.1904L39.6963-19.3437L41.2857-20.8843L12.2994-49.8706ZM95.9458-49.874L66.9561-20.8843L68.5454-19.3437L97.4863-48.1938L95.9458-49.874ZM25.91-35L25.91-77C25.91-79.2091 27.7008-81 29.91-81L78.41-81C80.6191-81 82.41-79.2091 82.41-77L82.41-35L82.41-35L68.41-21L57.8032-29.778C55.5535-31.6398 52.2902-31.6116 50.073-29.7112L39.91-21L39.91-21L25.91-35Z"/>
   <path class="monochrome-1 multicolor-1:tintColor hierarchical-1:secondary SFSymbolsPreviewWireframe" d="M78.41-82.25C81.3095-82.25 83.66-79.8995 83.66-77L83.66-35C83.66-34.6685 83.5283-34.3505 83.2939-34.1161L69.2939-20.1161C68.8379-19.6601 68.1098-19.6259 67.613-20.037L57.0062-28.815C55.2253-30.2889 52.6418-30.2666 50.8865-28.7621L40.7235-20.0509C40.2275-19.6259 39.488-19.6543 39.0261-20.1161L25.0261-34.1161C24.7917-34.3505 24.66-34.6685 24.66-35L24.66-77C24.66-79.8995 27.0105-82.25 29.91-82.25L78.41-82.25Z"/>
   <path class="monochrome-2 multicolor-2:tintColor hierarchical-2:tertiary SFSymbolsPreviewWireframe" d="M78.41-79.75L29.91-79.75C28.3912-79.75 27.16-78.5188 27.16-77L27.16-35.517L39.974-22.703L49.2596-30.6603C51.8662-32.8945 55.6696-32.9872 58.3771-30.9184L58.6002-30.741L68.33-22.688L81.16-35.518L81.16-77C81.16-78.4625 80.0183-79.6584 78.5775-79.745L78.41-79.75Z"/>
   <path class="monochrome-3 multicolor-3:tintColor hierarchical-3:primary SFSymbolsPreviewWireframe" d="M47.0308-41.9727L54.1628-46.9776L61.2892-41.9727C61.9422-41.4712 62.6515-41.8602 62.3859-42.7041L59.664-50.8665L66.8043-55.841C67.4287-56.2738 67.1972-57.1428 66.3745-57.1428L57.5377-57.1428L54.8213-65.2364C54.6009-65.9212 53.6877-65.9212 53.5014-65.2364L50.7851-57.1428L41.9455-57.1428C41.1228-57.1428 40.8912-56.2738 41.5157-55.841L48.6616-50.8665L45.9369-42.7041C45.6713-41.8602 46.3778-41.4712 47.0308-41.9727Z"/>
  </g>
 </g>
</svg>
