<?xml version="1.0" encoding="UTF-8"?>
<!--Generator: Apple Native CoreSVG 232.5-->
<!DOCTYPE svg
PUBLIC "-//W3C//DTD SVG 1.1//EN"
       "http://www.w3.org/Graphics/SVG/1.1/DTD/svg11.dtd">
<svg version="1.1" xmlns="http://www.w3.org/2000/svg" xmlns:xlink="http://www.w3.org/1999/xlink" width="3300" height="2200">
 <!--glyph: "", point size: 100.0, font version: "19.2d2e1", template writer version: "128"-->
 <style>.monochrome-0 {-sfsymbols-motion-group:1}
.monochrome-1 {opacity:0.0;-sfsymbols-clear-behind:true;-sfsymbols-motion-group:0;-sfsymbols-always-pulses:true}

.multicolor-0:tintColor {-sfsymbols-motion-group:1}
.multicolor-1:white {-sfsymbols-motion-group:0;-sfsymbols-always-pulses:true}

.hierarchical-0:tertiary {-sfsymbols-motion-group:1}
.hierarchical-1:primary {-sfsymbols-motion-group:0}

.SFSymbolsPreviewWireframe {fill:none;opacity:1.0;stroke:black;stroke-width:0.5}
</style>
 <g id="Notes">
  <rect height="2200" id="artboard" style="fill:white;opacity:1" width="3300" x="0" y="0"/>
  <line style="fill:none;stroke:black;opacity:1;stroke-width:0.5;" x1="263" x2="3036" y1="292" y2="292"/>
  <text style="stroke:none;fill:black;font-family:sans-serif;font-size:13;font-weight:bold;" transform="matrix(1 0 0 1 263 322)">Weight/Scale Variations</text>
  <text style="stroke:none;fill:black;font-family:sans-serif;font-size:13;text-anchor:middle;" transform="matrix(1 0 0 1 559.711 322)">Ultralight</text>
  <text style="stroke:none;fill:black;font-family:sans-serif;font-size:13;text-anchor:middle;" transform="matrix(1 0 0 1 856.422 322)">Thin</text>
  <text style="stroke:none;fill:black;font-family:sans-serif;font-size:13;text-anchor:middle;" transform="matrix(1 0 0 1 1153.13 322)">Light</text>
  <text style="stroke:none;fill:black;font-family:sans-serif;font-size:13;text-anchor:middle;" transform="matrix(1 0 0 1 1449.84 322)">Regular</text>
  <text style="stroke:none;fill:black;font-family:sans-serif;font-size:13;text-anchor:middle;" transform="matrix(1 0 0 1 1746.56 322)">Medium</text>
  <text style="stroke:none;fill:black;font-family:sans-serif;font-size:13;text-anchor:middle;" transform="matrix(1 0 0 1 2043.27 322)">Semibold</text>
  <text style="stroke:none;fill:black;font-family:sans-serif;font-size:13;text-anchor:middle;" transform="matrix(1 0 0 1 2339.98 322)">Bold</text>
  <text style="stroke:none;fill:black;font-family:sans-serif;font-size:13;text-anchor:middle;" transform="matrix(1 0 0 1 2636.69 322)">Heavy</text>
  <text style="stroke:none;fill:black;font-family:sans-serif;font-size:13;text-anchor:middle;" transform="matrix(1 0 0 1 2933.4 322)">Black</text>
  <line style="fill:none;stroke:black;opacity:1;stroke-width:0.5;" x1="263" x2="3036" y1="1903" y2="1903"/>
  <g transform="matrix(0.2 0 0 0.2 263 1933)">
   <path d="m46.2402 4.15039c21.5332 0 39.4531-17.8711 39.4531-39.4043s-17.9688-39.4043-39.502-39.4043c-21.4844 0-39.3555 17.8711-39.3555 39.4043s17.9199 39.4043 39.4043 39.4043Zm0-7.42188c-17.7246 0-31.8848-14.209-31.8848-31.9824s14.1113-31.9824 31.8359-31.9824c17.7734 0 32.0312 14.209 32.0312 31.9824s-14.209 31.9824-31.9824 31.9824Zm-17.9688-31.9824c0 2.14844 1.51367 3.61328 3.75977 3.61328h10.498v10.5957c0 2.19727 1.46484 3.71094 3.61328 3.71094 2.24609 0 3.71094-1.51367 3.71094-3.71094v-10.5957h10.5957c2.19727 0 3.71094-1.46484 3.71094-3.61328 0-2.19727-1.51367-3.71094-3.71094-3.71094h-10.5957v-10.5469c0-2.24609-1.46484-3.75977-3.71094-3.75977-2.14844 0-3.61328 1.51367-3.61328 3.75977v10.5469h-10.498c-2.24609 0-3.75977 1.51367-3.75977 3.71094Z"/>
  </g>
  <g transform="matrix(0.2 0 0 0.2 281.506 1933)">
   <path d="m58.5449 14.5508c27.2461 0 49.8047-22.6074 49.8047-49.8047 0-27.2461-22.6074-49.8047-49.8535-49.8047-27.1973 0-49.7559 22.5586-49.7559 49.8047 0 27.1973 22.6074 49.8047 49.8047 49.8047Zm0-8.30078c-23.0469 0-41.4551-18.457-41.4551-41.5039s18.3594-41.5039 41.4062-41.5039 41.5527 18.457 41.5527 41.5039-18.457 41.5039-41.5039 41.5039Zm-22.6562-41.5039c0 2.39258 1.66016 4.00391 4.15039 4.00391h14.3555v14.4043c0 2.44141 1.66016 4.15039 4.05273 4.15039 2.44141 0 4.15039-1.66016 4.15039-4.15039v-14.4043h14.4043c2.44141 0 4.15039-1.61133 4.15039-4.00391 0-2.44141-1.70898-4.15039-4.15039-4.15039h-14.4043v-14.3555c0-2.49023-1.70898-4.19922-4.15039-4.19922-2.39258 0-4.05273 1.70898-4.05273 4.19922v14.3555h-14.3555c-2.49023 0-4.15039 1.70898-4.15039 4.15039Z"/>
  </g>
  <g transform="matrix(0.2 0 0 0.2 304.924 1933)">
   <path d="m74.8535 28.3203c34.8145 0 63.623-28.8086 63.623-63.5742 0-34.8145-28.8574-63.623-63.6719-63.623-34.7656 0-63.5254 28.8086-63.5254 63.623 0 34.7656 28.8086 63.5742 63.5742 63.5742Zm0-9.08203c-30.1758 0-54.4434-24.3164-54.4434-54.4922 0-30.2246 24.2188-54.4922 54.3945-54.4922 30.2246 0 54.541 24.2676 54.541 54.4922 0 30.1758-24.2676 54.4922-54.4922 54.4922Zm-28.8574-54.4922c0 2.58789 1.85547 4.39453 4.58984 4.39453h19.7266v19.7754c0 2.68555 1.85547 4.58984 4.44336 4.58984 2.68555 0 4.54102-1.85547 4.54102-4.58984v-19.7754h19.7754c2.68555 0 4.58984-1.80664 4.58984-4.39453 0-2.73438-1.85547-4.58984-4.58984-4.58984h-19.7754v-19.7266c0-2.73438-1.85547-4.63867-4.54102-4.63867-2.58789 0-4.44336 1.9043-4.44336 4.63867v19.7266h-19.7266c-2.73438 0-4.58984 1.85547-4.58984 4.58984Z"/>
  </g>
  <text style="stroke:none;fill:black;font-family:sans-serif;font-size:13;font-weight:bold;" transform="matrix(1 0 0 1 263 1953)">Design Variations</text>
  <text style="stroke:none;fill:black;font-family:sans-serif;font-size:13;" transform="matrix(1 0 0 1 263 1971)">Symbols are supported in up to nine weights and three scales.</text>
  <text style="stroke:none;fill:black;font-family:sans-serif;font-size:13;" transform="matrix(1 0 0 1 263 1989)">For optimal layout with text and other symbols, vertically align</text>
  <text style="stroke:none;fill:black;font-family:sans-serif;font-size:13;" transform="matrix(1 0 0 1 263 2007)">symbols with the adjacent text.</text>
  <line style="fill:none;stroke:#00AEEF;stroke-width:0.5;opacity:1.0;" x1="776" x2="776" y1="1919" y2="1933"/>
  <g transform="matrix(0.2 0 0 0.2 776 1933)">
   <path d="m16.5527 0.78125c2.58789 0 3.85742-0.976562 4.78516-3.71094l6.29883-17.2363h28.8086l6.29883 17.2363c0.927734 2.73438 2.19727 3.71094 4.73633 3.71094 2.58789 0 4.24805-1.5625 4.24805-4.00391 0-0.830078-0.146484-1.61133-0.537109-2.63672l-22.9004-60.9863c-1.12305-2.97852-3.125-4.49219-6.25-4.49219-3.02734 0-5.07812 1.46484-6.15234 4.44336l-22.9004 61.084c-0.390625 1.02539-0.537109 1.80664-0.537109 2.63672 0 2.44141 1.5625 3.95508 4.10156 3.95508Zm13.4766-28.3691 11.8652-32.8613h0.244141l11.8652 32.8613Z"/>
  </g>
  <line style="fill:none;stroke:#00AEEF;stroke-width:0.5;opacity:1.0;" x1="792.836" x2="792.836" y1="1919" y2="1933"/>
  <text style="stroke:none;fill:black;font-family:sans-serif;font-size:13;font-weight:bold;" transform="matrix(1 0 0 1 776 1953)">Margins</text>
  <text style="stroke:none;fill:black;font-family:sans-serif;font-size:13;" transform="matrix(1 0 0 1 776 1971)">Leading and trailing margins on the left and right side of each symbol</text>
  <text style="stroke:none;fill:black;font-family:sans-serif;font-size:13;" transform="matrix(1 0 0 1 776 1989)">can be adjusted by modifying the x-location of the margin guidelines.</text>
  <text style="stroke:none;fill:black;font-family:sans-serif;font-size:13;" transform="matrix(1 0 0 1 776 2007)">Modifications are automatically applied proportionally to all</text>
  <text style="stroke:none;fill:black;font-family:sans-serif;font-size:13;" transform="matrix(1 0 0 1 776 2025)">scales and weights.</text>
  <g transform="matrix(0.2 0 0 0.2 1289 1933)">
   <path d="m14.209 9.32617 8.49609 8.54492c4.29688 4.3457 9.22852 4.05273 13.8672-1.07422l53.4668-58.9355-4.83398-4.88281-53.0762 58.3984c-1.75781 2.00195-3.41797 2.49023-5.76172 0.146484l-5.85938-5.81055c-2.34375-2.29492-1.80664-4.00391 0.195312-5.81055l57.373-54.0039-4.88281-4.83398-57.959 54.4434c-4.93164 4.58984-5.32227 9.47266-1.02539 13.8184Zm32.0801-90.9668c-2.09961 2.05078-2.24609 4.93164-1.07422 6.88477 1.17188 1.80664 3.4668 2.97852 6.68945 2.14844 7.32422-1.70898 14.9414-2.00195 22.0703 2.68555l-2.92969 7.27539c-1.70898 4.15039-0.830078 7.08008 1.85547 9.81445l11.4746 11.5723c2.44141 2.44141 4.49219 2.53906 7.32422 2.05078l5.32227-0.976562 3.32031 3.36914-0.195312 2.7832c-0.195312 2.49023 0.439453 4.39453 2.88086 6.78711l3.80859 3.71094c2.39258 2.39258 5.46875 2.53906 7.8125 0.195312l14.5508-14.5996c2.34375-2.34375 2.24609-5.32227-0.146484-7.71484l-3.85742-3.80859c-2.39258-2.39258-4.24805-3.17383-6.64062-2.97852l-2.88086 0.244141-3.22266-3.17383 1.2207-5.61523c0.634766-2.83203-0.146484-5.0293-3.07617-7.95898l-10.9863-10.9375c-16.6992-16.6016-38.8672-16.2109-53.3203-1.75781Zm7.4707 1.85547c12.1582-8.88672 28.6133-7.37305 39.7461 3.75977l12.1582 12.0605c1.17188 1.17188 1.36719 2.09961 1.02539 3.80859l-1.61133 7.42188 7.51953 7.42188 4.93164-0.292969c1.26953-0.0488281 1.66016 0.0488281 2.63672 1.02539l2.88086 2.88086-12.207 12.207-2.88086-2.88086c-0.976562-0.976562-1.12305-1.36719-1.07422-2.68555l0.341797-4.88281-7.4707-7.42188-7.61719 1.26953c-1.61133 0.341797-2.34375 0.195312-3.56445-0.976562l-10.0098-10.0098c-1.26953-1.17188-1.41602-2.00195-0.634766-3.85742l4.39453-10.4492c-7.8125-7.27539-17.9688-10.4004-28.125-7.42188-0.78125 0.195312-1.07422-0.439453-0.439453-0.976562Z"/>
  </g>
  <text style="stroke:none;fill:black;font-family:sans-serif;font-size:13;font-weight:bold;" transform="matrix(1 0 0 1 1289 1953)">Exporting</text>
  <text style="stroke:none;fill:black;font-family:sans-serif;font-size:13;" transform="matrix(1 0 0 1 1289 1971)">Symbols should be outlined when exporting to ensure the</text>
  <text style="stroke:none;fill:black;font-family:sans-serif;font-size:13;" transform="matrix(1 0 0 1 1289 1989)">design is preserved when submitting to Xcode.</text>
  <text id="template-version" style="stroke:none;fill:black;font-family:sans-serif;font-size:13;text-anchor:end;" transform="matrix(1 0 0 1 3036 1933)">Template v.5.0</text>
  <text style="stroke:none;fill:black;font-family:sans-serif;font-size:13;text-anchor:end;" transform="matrix(1 0 0 1 3036 1951)">Requires Xcode 15 or greater</text>
  <text id="descriptive-name" style="stroke:none;fill:black;font-family:sans-serif;font-size:13;text-anchor:end;" transform="matrix(1 0 0 1 3036 1969)">Generated from square.fill</text>
  <text style="stroke:none;fill:black;font-family:sans-serif;font-size:13;text-anchor:end;" transform="matrix(1 0 0 1 3036 1987)">Typeset at 100.0 points</text>
  <text style="stroke:none;fill:black;font-family:sans-serif;font-size:13;" transform="matrix(1 0 0 1 263 726)">Small</text>
  <text style="stroke:none;fill:black;font-family:sans-serif;font-size:13;" transform="matrix(1 0 0 1 263 1156)">Medium</text>
  <text style="stroke:none;fill:black;font-family:sans-serif;font-size:13;" transform="matrix(1 0 0 1 263 1586)">Large</text>
 </g>
 <g id="Guides">
  <g id="H-reference" style="fill:#27AAE1;stroke:none;" transform="matrix(1 0 0 1 339 696)">
   <path d="M0.993654 0L3.63775 0L29.3281-67.1323L30.0303-67.1323L30.0303-70.459L28.1226-70.459ZM11.6885-24.4799L46.9815-24.4799L46.2315-26.7285L12.4385-26.7285ZM55.1196 0L57.7637 0L30.6382-70.459L29.4326-70.459L29.4326-67.1323Z"/>
  </g>
  <line id="Baseline-S" style="fill:none;stroke:#27AAE1;opacity:1;stroke-width:0.5;" x1="263" x2="3036" y1="696" y2="696"/>
  <line id="Capline-S" style="fill:none;stroke:#27AAE1;opacity:1;stroke-width:0.5;" x1="263" x2="3036" y1="625.541" y2="625.541"/>
  <g id="H-reference" style="fill:#27AAE1;stroke:none;" transform="matrix(1 0 0 1 339 1126)">
   <path d="M0.993654 0L3.63775 0L29.3281-67.1323L30.0303-67.1323L30.0303-70.459L28.1226-70.459ZM11.6885-24.4799L46.9815-24.4799L46.2315-26.7285L12.4385-26.7285ZM55.1196 0L57.7637 0L30.6382-70.459L29.4326-70.459L29.4326-67.1323Z"/>
  </g>
  <line id="Baseline-M" style="fill:none;stroke:#27AAE1;opacity:1;stroke-width:0.5;" x1="263" x2="3036" y1="1126" y2="1126"/>
  <line id="Capline-M" style="fill:none;stroke:#27AAE1;opacity:1;stroke-width:0.5;" x1="263" x2="3036" y1="1055.54" y2="1055.54"/>
  <g id="H-reference" style="fill:#27AAE1;stroke:none;" transform="matrix(1 0 0 1 339 1556)">
   <path d="M0.993654 0L3.63775 0L29.3281-67.1323L30.0303-67.1323L30.0303-70.459L28.1226-70.459ZM11.6885-24.4799L46.9815-24.4799L46.2315-26.7285L12.4385-26.7285ZM55.1196 0L57.7637 0L30.6382-70.459L29.4326-70.459L29.4326-67.1323Z"/>
  </g>
  <line id="Baseline-L" style="fill:none;stroke:#27AAE1;opacity:1;stroke-width:0.5;" x1="263" x2="3036" y1="1556" y2="1556"/>
  <line id="Capline-L" style="fill:none;stroke:#27AAE1;opacity:1;stroke-width:0.5;" x1="263" x2="3036" y1="1485.54" y2="1485.54"/>
  <line id="left-margin-Ultralight-S" style="fill:none;stroke:#00AEEF;stroke-width:0.5;opacity:1.0;" x1="516.35" x2="516.35" y1="600.785" y2="720.121"/>
  <line id="right-margin-Ultralight-S" style="fill:none;stroke:#00AEEF;stroke-width:0.5;opacity:1.0;" x1="603.073" x2="603.073" y1="600.785" y2="720.121"/>
  <line id="left-margin-Regular-S" style="fill:none;stroke:#00AEEF;stroke-width:0.5;opacity:1.0;" x1="1404.51" x2="1404.51" y1="600.785" y2="720.121"/>
  <line id="right-margin-Regular-S" style="fill:none;stroke:#00AEEF;stroke-width:0.5;opacity:1.0;" x1="1495.18" x2="1495.18" y1="600.785" y2="720.121"/>
  <line id="left-margin-Black-S" style="fill:none;stroke:#00AEEF;stroke-width:0.5;opacity:1.0;" x1="2885.5" x2="2885.5" y1="600.785" y2="720.121"/>
  <line id="right-margin-Black-S" style="fill:none;stroke:#00AEEF;stroke-width:0.5;opacity:1.0;" x1="2981.3" x2="2981.3" y1="600.785" y2="720.121"/>
 </g>
 <g id="Symbols">
  <g id="Black-S" transform="matrix(1 0 0 1 2885.5 696)">
   <path class="monochrome-0 multicolor-0:tintColor hierarchical-0:tertiary SFSymbolsPreviewWireframe" d="M25 2.92969L70.8008 2.92969C80.3711 2.92969 86.0352-2.73438 86.0352-12.3047L86.0352-58.1055C86.0352-67.6758 80.3711-73.3398 70.8008-73.3398L25-73.3398C15.4297-73.3398 9.76562-67.6758 9.76562-58.1055L9.76562-12.3047C9.76562-2.73438 15.4297 2.92969 25 2.92969Z"/>
   <path class="monochrome-1 multicolor-1:white hierarchical-1:primary SFSymbolsPreviewWireframe" d="M30.9793-15.7921L64.8271-15.7921C68.625-15.7921 71.2095-18.3764 71.2095-22.1788L71.2095-48.2388C71.2095-52.0732 68.625-54.6545 64.8271-54.6545L30.9793-54.6545C27.1798-54.6545 24.597-52.0732 24.597-48.2388L24.597-22.1788C24.597-18.3764 27.1798-15.7921 30.9793-15.7921ZM31.0875-22.2008C30.7052-22.2008 30.3829-22.4911 30.3829-22.9068L30.3829-23.7021C30.3829-24.125 30.7142-24.4243 31.1281-24.4243L32.1772-24.4243C32.5956-24.4243 32.9268-24.125 32.9268-23.7021L32.9268-22.946C32.9268-22.5046 32.5956-22.2008 32.1772-22.2008ZM31.1281-27.9992C30.7142-27.9992 30.3829-28.3245 30.3829-28.7519L30.3829-29.5291C30.3829-29.94 30.7202-30.2743 31.1281-30.2743L32.1772-30.2743C32.5956-30.2743 32.9268-29.94 32.9268-29.5291L32.9268-28.7519C32.9268-28.3245 32.5956-27.9992 32.1772-27.9992ZM31.1281-34.1155C30.7142-34.1155 30.3829-34.4422 30.3829-34.8697L30.3829-35.6439C30.3829-36.0547 30.7202-36.389 31.1281-36.389L32.1772-36.389C32.5956-36.389 32.9268-36.0547 32.9268-35.6439L32.9268-34.8697C32.9268-34.4422 32.5956-34.1155 32.1772-34.1155ZM31.1281-40.2362C30.7142-40.2362 30.3829-40.5584 30.3829-40.9874L30.3829-41.763C30.3829-42.1754 30.7202-42.5082 31.1281-42.5082L32.1772-42.5082C32.5956-42.5082 32.9268-42.1754 32.9268-41.763L32.9268-40.9874C32.9268-40.5584 32.5956-40.2362 32.1772-40.2362ZM31.1281-46.0801C30.7142-46.0801 30.3829-46.3779 30.3829-46.8054L30.3829-47.5991C30.3829-48.0134 30.7052-48.3052 31.0875-48.3052L32.1772-48.3052C32.5956-48.3052 32.9268-48.0013 32.9268-47.56L32.9268-46.8054C32.9268-46.3779 32.5956-46.0801 32.1772-46.0801ZM63.34-22.2008C62.9216-22.2008 62.5903-22.5046 62.5903-22.946L62.5903-23.7021C62.5903-24.125 62.9216-24.4243 63.34-24.4243L64.3875-24.4243C64.8014-24.4243 65.1327-24.125 65.1327-23.7021L65.1327-22.9068C65.1327-22.4911 64.812-22.2008 64.4281-22.2008ZM63.34-27.9992C62.9216-27.9992 62.5903-28.3245 62.5903-28.7519L62.5903-29.5291C62.5903-29.94 62.9216-30.2743 63.34-30.2743L64.3875-30.2743C64.7954-30.2743 65.1327-29.94 65.1327-29.5291L65.1327-28.7519C65.1327-28.3245 64.8014-27.9992 64.3875-27.9992ZM63.34-34.1155C62.9216-34.1155 62.5903-34.4422 62.5903-34.8697L62.5903-35.6439C62.5903-36.0547 62.9216-36.389 63.34-36.389L64.3875-36.389C64.7954-36.389 65.1327-36.0547 65.1327-35.6439L65.1327-34.8697C65.1327-34.4422 64.8014-34.1155 64.3875-34.1155ZM63.34-40.2362C62.9216-40.2362 62.5903-40.5584 62.5903-40.9874L62.5903-41.763C62.5903-42.1754 62.9216-42.5082 63.34-42.5082L64.3875-42.5082C64.7954-42.5082 65.1327-42.1754 65.1327-41.763L65.1327-40.9874C65.1327-40.5584 64.8014-40.2362 64.3875-40.2362ZM35.7617-35.2522C35.7617-36.7574 36.9912-37.9868 38.4963-37.9868L57.31-37.9868C58.8137-37.9868 60.0446-36.7574 60.0446-35.2522C60.0446-33.7486 58.8137-32.5176 57.31-32.5176L38.4963-32.5176C36.9912-32.5176 35.7617-33.7486 35.7617-35.2522ZM63.34-46.0801C62.9216-46.0801 62.5903-46.3779 62.5903-46.8054L62.5903-47.56C62.5903-48.0013 62.9216-48.3052 63.34-48.3052L64.4281-48.3052C64.812-48.3052 65.1327-48.0134 65.1327-47.5991L65.1327-46.8054C65.1327-46.3779 64.8014-46.0801 64.3875-46.0801Z"/>
  </g>
  <g id="Regular-S" transform="matrix(1 0 0 1 1404.51 696)">
   <path class="monochrome-0 multicolor-0:tintColor hierarchical-0:tertiary SFSymbolsPreviewWireframe" d="M22.2168 0.390625L68.457 0.390625C76.8066 0.390625 80.9082-3.71094 80.9082-11.9141L80.9082-58.4961C80.9082-66.6992 76.8066-70.8008 68.457-70.8008L22.2168-70.8008C13.916-70.8008 9.76562-66.6992 9.76562-58.4961L9.76562-11.9141C9.76562-3.71094 13.916 0.390625 22.2168 0.390625Z"/>
   <path class="monochrome-1 multicolor-1:white hierarchical-1:primary SFSymbolsPreviewWireframe" d="M27.5667-16.722L63.1087-16.722C66.2062-16.722 68.2679-18.7836 68.2679-21.8394L68.2679-48.5896C68.2679-51.6591 66.2062-53.719 63.1087-53.719L27.5667-53.719C24.4831-53.719 22.4076-51.6591 22.4076-48.5896L22.4076-21.8394C22.4076-18.7836 24.4831-16.722 27.5667-16.722ZM27.6259-21.4894C27.1289-21.4894 26.783-21.8511 26.783-22.3184L26.783-23.7355C26.783-24.2396 27.1338-24.5767 27.6331-24.5767L29.2926-24.5767C29.7795-24.5767 30.1303-24.2396 30.1303-23.7355L30.1303-22.3395C30.1303-21.8437 29.7795-21.4894 29.2926-21.4894ZM27.6331-27.5592C27.1338-27.5592 26.783-27.9362 26.783-28.3986L26.783-29.8059C26.783-30.3035 27.1371-30.656 27.6331-30.656L29.2926-30.656C29.7795-30.656 30.1303-30.3035 30.1303-29.8059L30.1303-28.3986C30.1303-27.9362 29.7795-27.5592 29.2926-27.5592ZM27.6331-33.692C27.1338-33.692 26.783-34.0551 26.783-34.5176L26.783-35.9232C26.783-36.4209 27.1371-36.7733 27.6331-36.7733L29.2926-36.7733C29.7795-36.7733 30.1303-36.4209 30.1303-35.9232L30.1303-34.5176C30.1303-34.0551 29.7795-33.692 29.2926-33.692ZM27.6331-39.7831C27.1338-39.7831 26.783-40.1585 26.783-40.6071L26.783-42.0283C26.783-42.512 27.1371-42.8783 27.6331-42.8783L29.2926-42.8783C29.7795-42.8783 30.1303-42.512 30.1303-42.0283L30.1303-40.6071C30.1303-40.1585 29.7795-39.7831 29.2926-39.7831ZM27.6331-45.8887C27.1338-45.8887 26.783-46.2396 26.783-46.702L26.783-48.133C26.783-48.6143 27.1289-48.962 27.6259-48.962L29.2926-48.962C29.7795-48.962 30.1303-48.6078 30.1303-48.1119L30.1303-46.702C30.1303-46.2396 29.7795-45.8887 29.2926-45.8887ZM61.2615-21.4894C60.7746-21.4894 60.4237-21.8437 60.4237-22.3395L60.4237-23.7355C60.4237-24.2396 60.7746-24.5767 61.2615-24.5767L62.9349-24.5767C63.4342-24.5767 63.785-24.2396 63.785-23.7355L63.785-22.3184C63.785-21.8511 63.4251-21.4894 62.9421-21.4894ZM61.2615-27.5592C60.7746-27.5592 60.4237-27.9362 60.4237-28.3986L60.4237-29.8059C60.4237-30.3035 60.7746-30.656 61.2615-30.656L62.9349-30.656C63.4309-30.656 63.785-30.3035 63.785-29.8059L63.785-28.3986C63.785-27.9362 63.4342-27.5592 62.9349-27.5592ZM61.2615-33.692C60.7746-33.692 60.4237-34.0551 60.4237-34.5176L60.4237-35.9232C60.4237-36.4209 60.7746-36.7733 61.2615-36.7733L62.9349-36.7733C63.4309-36.7733 63.785-36.4209 63.785-35.9232L63.785-34.5176C63.785-34.0551 63.4342-33.692 62.9349-33.692ZM61.2615-39.7831C60.7746-39.7831 60.4237-40.1585 60.4237-40.6071L60.4237-42.0283C60.4237-42.512 60.7746-42.8783 61.2615-42.8783L62.9349-42.8783C63.4309-42.8783 63.785-42.512 63.785-42.0283L63.785-40.6071C63.785-40.1585 63.4342-39.7831 62.9349-39.7831ZM32.7156-35.2327C32.7156-36.3982 33.6641-37.3467 34.8296-37.3467L55.8458-37.3467C57.0252-37.3467 57.9598-36.3982 57.9598-35.2327C57.9598-34.0532 57.0252-33.1187 55.8458-33.1187L34.8296-33.1187C33.6641-33.1187 32.7156-34.0532 32.7156-35.2327ZM61.2615-45.8887C60.7746-45.8887 60.4237-46.2396 60.4237-46.702L60.4237-48.1119C60.4237-48.6078 60.7746-48.962 61.2615-48.962L62.9421-48.962C63.4251-48.962 63.785-48.6143 63.785-48.133L63.785-46.702C63.785-46.2396 63.4342-45.8887 62.9349-45.8887Z"/>
  </g>
  <g id="Ultralight-S" transform="matrix(1 0 0 1 516.35 696)">
   <path class="monochrome-0 multicolor-0:tintColor hierarchical-0:tertiary SFSymbolsPreviewWireframe" d="M19.7647-1.562L66.9585-1.562C73.4917-1.562 76.9576-5.11864 76.9576-11.5508L76.9576-58.7686C76.9576-65.2007 73.4917-68.7573 66.9585-68.7573L19.7647-68.7573C13.2349-68.7573 9.76562-65.2915 9.76562-58.7686L9.76562-11.5508C9.76562-5.02782 13.2349-1.562 19.7647-1.562Z"/>
   <path class="monochrome-1 multicolor-1:white hierarchical-1:primary SFSymbolsPreviewWireframe" d="M24.0776-18.0094L62.6453-18.0094C64.5612-18.0094 65.6745-19.1228 65.6745-21.0086L65.6745-49.3684C65.6745-51.2399 64.5612-52.3676 62.6453-52.3676L24.0776-52.3676C22.1717-52.3676 21.0484-51.2399 21.0484-49.3684L21.0484-21.0086C21.0484-19.1228 22.1717-18.0094 24.0776-18.0094ZM24.1164-19.9997C23.3866-19.9997 22.9484-20.4579 22.9484-21.1577L22.9484-23.9398C22.9484-24.4725 23.3434-24.8819 23.9193-24.8819L27.1758-24.8819C27.7273-24.8819 28.1223-24.4725 28.1223-23.9398L28.1223-20.9706C28.1223-20.3903 27.7273-19.9997 27.1758-19.9997ZM23.9193-26.4756C23.3434-26.4756 22.9484-26.905 22.9484-27.4077L22.9484-30.2761C22.9484-30.8664 23.3146-31.247 23.9193-31.247L27.1758-31.247C27.7273-31.247 28.1223-30.8664 28.1223-30.2761L28.1223-27.4077C28.1223-26.905 27.7273-26.4756 27.1758-26.4756ZM23.9193-32.8006C23.3434-32.8006 22.9484-33.22 22.9484-33.7227L22.9484-36.6055C22.9484-37.1958 23.3146-37.5764 23.9193-37.5764L27.1758-37.5764C27.7273-37.5764 28.1223-37.1958 28.1223-36.6055L28.1223-33.7227C28.1223-33.22 27.7273-32.8006 27.1758-32.8006ZM23.9193-39.0955C23.3434-39.0955 22.9484-39.5394 22.9484-40.032L22.9484-42.9105C22.9484-43.4908 23.3146-43.8814 23.9193-43.8814L27.1758-43.8814C27.7273-43.8814 28.1223-43.4908 28.1223-42.9105L28.1223-40.032C28.1223-39.5394 27.7273-39.0955 27.1758-39.0955ZM23.9193-45.4951C23.3434-45.4951 22.9484-45.9145 22.9484-46.4172L22.9484-49.2093C22.9484-49.9191 23.3866-50.3673 24.1164-50.3673L27.1758-50.3673C27.7273-50.3673 28.1223-49.9767 28.1223-49.3964L28.1223-46.4172C28.1223-45.9145 27.7273-45.4951 27.1758-45.4951ZM59.5471-19.9997C58.9956-19.9997 58.6006-20.3903 58.6006-20.9706L58.6006-23.9398C58.6006-24.4725 58.9956-24.8819 59.5471-24.8819L62.8136-24.8819C63.3895-24.8819 63.7845-24.4725 63.7845-23.9398L63.7845-21.1577C63.7845-20.4579 63.3363-19.9997 62.6165-19.9997ZM59.5471-26.4756C58.9956-26.4756 58.6006-26.905 58.6006-27.4077L58.6006-30.2761C58.6006-30.8664 58.9956-31.247 59.5471-31.247L62.8136-31.247C63.4183-31.247 63.7845-30.8664 63.7845-30.2761L63.7845-27.4077C63.7845-26.905 63.3895-26.4756 62.8136-26.4756ZM59.5471-32.8006C58.9956-32.8006 58.6006-33.22 58.6006-33.7227L58.6006-36.6055C58.6006-37.1958 58.9956-37.5764 59.5471-37.5764L62.8136-37.5764C63.4183-37.5764 63.7845-37.1958 63.7845-36.6055L63.7845-33.7227C63.7845-33.22 63.3895-32.8006 62.8136-32.8006ZM59.5471-39.0955C58.9956-39.0955 58.6006-39.5394 58.6006-40.032L58.6006-42.9105C58.6006-43.4908 58.9956-43.8814 59.5471-43.8814L62.8136-43.8814C63.4183-43.8814 63.7845-43.4908 63.7845-42.9105L63.7845-40.032C63.7845-39.5394 63.3895-39.0955 62.8136-39.0955ZM29.6414-35.1885C29.6414-35.7033 30.0717-36.1335 30.5864-36.1335L56.1364-36.1335C56.6612-36.1335 57.0815-35.7033 57.0815-35.1885C57.0815-34.6637 56.6612-34.2435 56.1364-34.2435L30.5864-34.2435C30.0717-34.2435 29.6414-34.6637 29.6414-35.1885ZM59.5471-45.4951C58.9956-45.4951 58.6006-45.9145 58.6006-46.4172L58.6006-49.3964C58.6006-49.9767 58.9956-50.3673 59.5471-50.3673L62.6165-50.3673C63.3363-50.3673 63.7845-49.9191 63.7845-49.2093L63.7845-46.4172C63.7845-45.9145 63.3895-45.4951 62.8136-45.4951Z"/>
  </g>
 </g>
</svg>
