<?xml version="1.0" encoding="UTF-8"?>
<!--Generator: Apple Native CoreSVG 232.5-->
<!DOCTYPE svg
PUBLIC "-//W3C//DTD SVG 1.1//EN"
       "http://www.w3.org/Graphics/SVG/1.1/DTD/svg11.dtd">
<svg version="1.1" xmlns="http://www.w3.org/2000/svg" xmlns:xlink="http://www.w3.org/1999/xlink" width="3300" height="2200">
 <!--glyph: "", point size: 100.0, font version: "19.2d2e1", template writer version: "128"-->
 <style>.monochrome-0 {-sfsymbols-motion-group:1}
.monochrome-1 {opacity:0.0;-sfsymbols-clear-behind:true;-sfsymbols-motion-group:0;-sfsymbols-always-pulses:true}

.multicolor-0:tintColor {-sfsymbols-motion-group:1}
.multicolor-1:white {-sfsymbols-motion-group:0;-sfsymbols-always-pulses:true}

.hierarchical-0:tertiary {-sfsymbols-motion-group:1}
.hierarchical-1:primary {-sfsymbols-motion-group:0}

.SFSymbolsPreviewWireframe {fill:none;opacity:1.0;stroke:black;stroke-width:0.5}
</style>
 <g id="Notes">
  <rect height="2200" id="artboard" style="fill:white;opacity:1" width="3300" x="0" y="0"/>
  <line style="fill:none;stroke:black;opacity:1;stroke-width:0.5;" x1="263" x2="3036" y1="292" y2="292"/>
  <text style="stroke:none;fill:black;font-family:sans-serif;font-size:13;font-weight:bold;" transform="matrix(1 0 0 1 263 322)">Weight/Scale Variations</text>
  <text style="stroke:none;fill:black;font-family:sans-serif;font-size:13;text-anchor:middle;" transform="matrix(1 0 0 1 559.711 322)">Ultralight</text>
  <text style="stroke:none;fill:black;font-family:sans-serif;font-size:13;text-anchor:middle;" transform="matrix(1 0 0 1 856.422 322)">Thin</text>
  <text style="stroke:none;fill:black;font-family:sans-serif;font-size:13;text-anchor:middle;" transform="matrix(1 0 0 1 1153.13 322)">Light</text>
  <text style="stroke:none;fill:black;font-family:sans-serif;font-size:13;text-anchor:middle;" transform="matrix(1 0 0 1 1449.84 322)">Regular</text>
  <text style="stroke:none;fill:black;font-family:sans-serif;font-size:13;text-anchor:middle;" transform="matrix(1 0 0 1 1746.56 322)">Medium</text>
  <text style="stroke:none;fill:black;font-family:sans-serif;font-size:13;text-anchor:middle;" transform="matrix(1 0 0 1 2043.27 322)">Semibold</text>
  <text style="stroke:none;fill:black;font-family:sans-serif;font-size:13;text-anchor:middle;" transform="matrix(1 0 0 1 2339.98 322)">Bold</text>
  <text style="stroke:none;fill:black;font-family:sans-serif;font-size:13;text-anchor:middle;" transform="matrix(1 0 0 1 2636.69 322)">Heavy</text>
  <text style="stroke:none;fill:black;font-family:sans-serif;font-size:13;text-anchor:middle;" transform="matrix(1 0 0 1 2933.4 322)">Black</text>
  <line style="fill:none;stroke:black;opacity:1;stroke-width:0.5;" x1="263" x2="3036" y1="1903" y2="1903"/>
  <g transform="matrix(0.2 0 0 0.2 263 1933)">
   <path d="m46.2402 4.15039c21.5332 0 39.4531-17.8711 39.4531-39.4043s-17.9688-39.4043-39.502-39.4043c-21.4844 0-39.3555 17.8711-39.3555 39.4043s17.9199 39.4043 39.4043 39.4043Zm0-7.42188c-17.7246 0-31.8848-14.209-31.8848-31.9824s14.1113-31.9824 31.8359-31.9824c17.7734 0 32.0312 14.209 32.0312 31.9824s-14.209 31.9824-31.9824 31.9824Zm-17.9688-31.9824c0 2.14844 1.51367 3.61328 3.75977 3.61328h10.498v10.5957c0 2.19727 1.46484 3.71094 3.61328 3.71094 2.24609 0 3.71094-1.51367 3.71094-3.71094v-10.5957h10.5957c2.19727 0 3.71094-1.46484 3.71094-3.61328 0-2.19727-1.51367-3.71094-3.71094-3.71094h-10.5957v-10.5469c0-2.24609-1.46484-3.75977-3.71094-3.75977-2.14844 0-3.61328 1.51367-3.61328 3.75977v10.5469h-10.498c-2.24609 0-3.75977 1.51367-3.75977 3.71094Z"/>
  </g>
  <g transform="matrix(0.2 0 0 0.2 281.506 1933)">
   <path d="m58.5449 14.5508c27.2461 0 49.8047-22.6074 49.8047-49.8047 0-27.2461-22.6074-49.8047-49.8535-49.8047-27.1973 0-49.7559 22.5586-49.7559 49.8047 0 27.1973 22.6074 49.8047 49.8047 49.8047Zm0-8.30078c-23.0469 0-41.4551-18.457-41.4551-41.5039s18.3594-41.5039 41.4062-41.5039 41.5527 18.457 41.5527 41.5039-18.457 41.5039-41.5039 41.5039Zm-22.6562-41.5039c0 2.39258 1.66016 4.00391 4.15039 4.00391h14.3555v14.4043c0 2.44141 1.66016 4.15039 4.05273 4.15039 2.44141 0 4.15039-1.66016 4.15039-4.15039v-14.4043h14.4043c2.44141 0 4.15039-1.61133 4.15039-4.00391 0-2.44141-1.70898-4.15039-4.15039-4.15039h-14.4043v-14.3555c0-2.49023-1.70898-4.19922-4.15039-4.19922-2.39258 0-4.05273 1.70898-4.05273 4.19922v14.3555h-14.3555c-2.49023 0-4.15039 1.70898-4.15039 4.15039Z"/>
  </g>
  <g transform="matrix(0.2 0 0 0.2 304.924 1933)">
   <path d="m74.8535 28.3203c34.8145 0 63.623-28.8086 63.623-63.5742 0-34.8145-28.8574-63.623-63.6719-63.623-34.7656 0-63.5254 28.8086-63.5254 63.623 0 34.7656 28.8086 63.5742 63.5742 63.5742Zm0-9.08203c-30.1758 0-54.4434-24.3164-54.4434-54.4922 0-30.2246 24.2188-54.4922 54.3945-54.4922 30.2246 0 54.541 24.2676 54.541 54.4922 0 30.1758-24.2676 54.4922-54.4922 54.4922Zm-28.8574-54.4922c0 2.58789 1.85547 4.39453 4.58984 4.39453h19.7266v19.7754c0 2.68555 1.85547 4.58984 4.44336 4.58984 2.68555 0 4.54102-1.85547 4.54102-4.58984v-19.7754h19.7754c2.68555 0 4.58984-1.80664 4.58984-4.39453 0-2.73438-1.85547-4.58984-4.58984-4.58984h-19.7754v-19.7266c0-2.73438-1.85547-4.63867-4.54102-4.63867-2.58789 0-4.44336 1.9043-4.44336 4.63867v19.7266h-19.7266c-2.73438 0-4.58984 1.85547-4.58984 4.58984Z"/>
  </g>
  <text style="stroke:none;fill:black;font-family:sans-serif;font-size:13;font-weight:bold;" transform="matrix(1 0 0 1 263 1953)">Design Variations</text>
  <text style="stroke:none;fill:black;font-family:sans-serif;font-size:13;" transform="matrix(1 0 0 1 263 1971)">Symbols are supported in up to nine weights and three scales.</text>
  <text style="stroke:none;fill:black;font-family:sans-serif;font-size:13;" transform="matrix(1 0 0 1 263 1989)">For optimal layout with text and other symbols, vertically align</text>
  <text style="stroke:none;fill:black;font-family:sans-serif;font-size:13;" transform="matrix(1 0 0 1 263 2007)">symbols with the adjacent text.</text>
  <line style="fill:none;stroke:#00AEEF;stroke-width:0.5;opacity:1.0;" x1="776" x2="776" y1="1919" y2="1933"/>
  <g transform="matrix(0.2 0 0 0.2 776 1933)">
   <path d="m16.5527 0.78125c2.58789 0 3.85742-0.976562 4.78516-3.71094l6.29883-17.2363h28.8086l6.29883 17.2363c0.927734 2.73438 2.19727 3.71094 4.73633 3.71094 2.58789 0 4.24805-1.5625 4.24805-4.00391 0-0.830078-0.146484-1.61133-0.537109-2.63672l-22.9004-60.9863c-1.12305-2.97852-3.125-4.49219-6.25-4.49219-3.02734 0-5.07812 1.46484-6.15234 4.44336l-22.9004 61.084c-0.390625 1.02539-0.537109 1.80664-0.537109 2.63672 0 2.44141 1.5625 3.95508 4.10156 3.95508Zm13.4766-28.3691 11.8652-32.8613h0.244141l11.8652 32.8613Z"/>
  </g>
  <line style="fill:none;stroke:#00AEEF;stroke-width:0.5;opacity:1.0;" x1="792.836" x2="792.836" y1="1919" y2="1933"/>
  <text style="stroke:none;fill:black;font-family:sans-serif;font-size:13;font-weight:bold;" transform="matrix(1 0 0 1 776 1953)">Margins</text>
  <text style="stroke:none;fill:black;font-family:sans-serif;font-size:13;" transform="matrix(1 0 0 1 776 1971)">Leading and trailing margins on the left and right side of each symbol</text>
  <text style="stroke:none;fill:black;font-family:sans-serif;font-size:13;" transform="matrix(1 0 0 1 776 1989)">can be adjusted by modifying the x-location of the margin guidelines.</text>
  <text style="stroke:none;fill:black;font-family:sans-serif;font-size:13;" transform="matrix(1 0 0 1 776 2007)">Modifications are automatically applied proportionally to all</text>
  <text style="stroke:none;fill:black;font-family:sans-serif;font-size:13;" transform="matrix(1 0 0 1 776 2025)">scales and weights.</text>
  <g transform="matrix(0.2 0 0 0.2 1289 1933)">
   <path d="m14.209 9.32617 8.49609 8.54492c4.29688 4.3457 9.22852 4.05273 13.8672-1.07422l53.4668-58.9355-4.83398-4.88281-53.0762 58.3984c-1.75781 2.00195-3.41797 2.49023-5.76172 0.146484l-5.85938-5.81055c-2.34375-2.29492-1.80664-4.00391 0.195312-5.81055l57.373-54.0039-4.88281-4.83398-57.959 54.4434c-4.93164 4.58984-5.32227 9.47266-1.02539 13.8184Zm32.0801-90.9668c-2.09961 2.05078-2.24609 4.93164-1.07422 6.88477 1.17188 1.80664 3.4668 2.97852 6.68945 2.14844 7.32422-1.70898 14.9414-2.00195 22.0703 2.68555l-2.92969 7.27539c-1.70898 4.15039-0.830078 7.08008 1.85547 9.81445l11.4746 11.5723c2.44141 2.44141 4.49219 2.53906 7.32422 2.05078l5.32227-0.976562 3.32031 3.36914-0.195312 2.7832c-0.195312 2.49023 0.439453 4.39453 2.88086 6.78711l3.80859 3.71094c2.39258 2.39258 5.46875 2.53906 7.8125 0.195312l14.5508-14.5996c2.34375-2.34375 2.24609-5.32227-0.146484-7.71484l-3.85742-3.80859c-2.39258-2.39258-4.24805-3.17383-6.64062-2.97852l-2.88086 0.244141-3.22266-3.17383 1.2207-5.61523c0.634766-2.83203-0.146484-5.0293-3.07617-7.95898l-10.9863-10.9375c-16.6992-16.6016-38.8672-16.2109-53.3203-1.75781Zm7.4707 1.85547c12.1582-8.88672 28.6133-7.37305 39.7461 3.75977l12.1582 12.0605c1.17188 1.17188 1.36719 2.09961 1.02539 3.80859l-1.61133 7.42188 7.51953 7.42188 4.93164-0.292969c1.26953-0.0488281 1.66016 0.0488281 2.63672 1.02539l2.88086 2.88086-12.207 12.207-2.88086-2.88086c-0.976562-0.976562-1.12305-1.36719-1.07422-2.68555l0.341797-4.88281-7.4707-7.42188-7.61719 1.26953c-1.61133 0.341797-2.34375 0.195312-3.56445-0.976562l-10.0098-10.0098c-1.26953-1.17188-1.41602-2.00195-0.634766-3.85742l4.39453-10.4492c-7.8125-7.27539-17.9688-10.4004-28.125-7.42188-0.78125 0.195312-1.07422-0.439453-0.439453-0.976562Z"/>
  </g>
  <text style="stroke:none;fill:black;font-family:sans-serif;font-size:13;font-weight:bold;" transform="matrix(1 0 0 1 1289 1953)">Exporting</text>
  <text style="stroke:none;fill:black;font-family:sans-serif;font-size:13;" transform="matrix(1 0 0 1 1289 1971)">Symbols should be outlined when exporting to ensure the</text>
  <text style="stroke:none;fill:black;font-family:sans-serif;font-size:13;" transform="matrix(1 0 0 1 1289 1989)">design is preserved when submitting to Xcode.</text>
  <text id="template-version" style="stroke:none;fill:black;font-family:sans-serif;font-size:13;text-anchor:end;" transform="matrix(1 0 0 1 3036 1933)">Template v.5.0</text>
  <text style="stroke:none;fill:black;font-family:sans-serif;font-size:13;text-anchor:end;" transform="matrix(1 0 0 1 3036 1951)">Requires Xcode 15 or greater</text>
  <text id="descriptive-name" style="stroke:none;fill:black;font-family:sans-serif;font-size:13;text-anchor:end;" transform="matrix(1 0 0 1 3036 1969)">Generated from square.fill</text>
  <text style="stroke:none;fill:black;font-family:sans-serif;font-size:13;text-anchor:end;" transform="matrix(1 0 0 1 3036 1987)">Typeset at 100.0 points</text>
  <text style="stroke:none;fill:black;font-family:sans-serif;font-size:13;" transform="matrix(1 0 0 1 263 726)">Small</text>
  <text style="stroke:none;fill:black;font-family:sans-serif;font-size:13;" transform="matrix(1 0 0 1 263 1156)">Medium</text>
  <text style="stroke:none;fill:black;font-family:sans-serif;font-size:13;" transform="matrix(1 0 0 1 263 1586)">Large</text>
 </g>
 <g id="Guides">
  <g id="H-reference" style="fill:#27AAE1;stroke:none;" transform="matrix(1 0 0 1 339 696)">
   <path d="M0.993654 0L3.63775 0L29.3281-67.1323L30.0303-67.1323L30.0303-70.459L28.1226-70.459ZM11.6885-24.4799L46.9815-24.4799L46.2315-26.7285L12.4385-26.7285ZM55.1196 0L57.7637 0L30.6382-70.459L29.4326-70.459L29.4326-67.1323Z"/>
  </g>
  <line id="Baseline-S" style="fill:none;stroke:#27AAE1;opacity:1;stroke-width:0.5;" x1="263" x2="3036" y1="696" y2="696"/>
  <line id="Capline-S" style="fill:none;stroke:#27AAE1;opacity:1;stroke-width:0.5;" x1="263" x2="3036" y1="625.541" y2="625.541"/>
  <g id="H-reference" style="fill:#27AAE1;stroke:none;" transform="matrix(1 0 0 1 339 1126)">
   <path d="M0.993654 0L3.63775 0L29.3281-67.1323L30.0303-67.1323L30.0303-70.459L28.1226-70.459ZM11.6885-24.4799L46.9815-24.4799L46.2315-26.7285L12.4385-26.7285ZM55.1196 0L57.7637 0L30.6382-70.459L29.4326-70.459L29.4326-67.1323Z"/>
  </g>
  <line id="Baseline-M" style="fill:none;stroke:#27AAE1;opacity:1;stroke-width:0.5;" x1="263" x2="3036" y1="1126" y2="1126"/>
  <line id="Capline-M" style="fill:none;stroke:#27AAE1;opacity:1;stroke-width:0.5;" x1="263" x2="3036" y1="1055.54" y2="1055.54"/>
  <g id="H-reference" style="fill:#27AAE1;stroke:none;" transform="matrix(1 0 0 1 339 1556)">
   <path d="M0.993654 0L3.63775 0L29.3281-67.1323L30.0303-67.1323L30.0303-70.459L28.1226-70.459ZM11.6885-24.4799L46.9815-24.4799L46.2315-26.7285L12.4385-26.7285ZM55.1196 0L57.7637 0L30.6382-70.459L29.4326-70.459L29.4326-67.1323Z"/>
  </g>
  <line id="Baseline-L" style="fill:none;stroke:#27AAE1;opacity:1;stroke-width:0.5;" x1="263" x2="3036" y1="1556" y2="1556"/>
  <line id="Capline-L" style="fill:none;stroke:#27AAE1;opacity:1;stroke-width:0.5;" x1="263" x2="3036" y1="1485.54" y2="1485.54"/>
  <line id="left-margin-Ultralight-S" style="fill:none;stroke:#00AEEF;stroke-width:0.5;opacity:1.0;" x1="516.35" x2="516.35" y1="600.785" y2="720.121"/>
  <line id="right-margin-Ultralight-S" style="fill:none;stroke:#00AEEF;stroke-width:0.5;opacity:1.0;" x1="603.073" x2="603.073" y1="600.785" y2="720.121"/>
  <line id="left-margin-Regular-S" style="fill:none;stroke:#00AEEF;stroke-width:0.5;opacity:1.0;" x1="1404.51" x2="1404.51" y1="600.785" y2="720.121"/>
  <line id="right-margin-Regular-S" style="fill:none;stroke:#00AEEF;stroke-width:0.5;opacity:1.0;" x1="1495.18" x2="1495.18" y1="600.785" y2="720.121"/>
  <line id="left-margin-Black-S" style="fill:none;stroke:#00AEEF;stroke-width:0.5;opacity:1.0;" x1="2885.5" x2="2885.5" y1="600.785" y2="720.121"/>
  <line id="right-margin-Black-S" style="fill:none;stroke:#00AEEF;stroke-width:0.5;opacity:1.0;" x1="2981.3" x2="2981.3" y1="600.785" y2="720.121"/>
 </g>
 <g id="Symbols">
  <g id="Black-S" transform="matrix(1 0 0 1 2885.5 696)">
   <path class="monochrome-0 multicolor-0:tintColor hierarchical-0:tertiary SFSymbolsPreviewWireframe" d="M25 2.92969L70.8008 2.92969C80.3711 2.92969 86.0352-2.73438 86.0352-12.3047L86.0352-58.1055C86.0352-67.6758 80.3711-73.3398 70.8008-73.3398L25-73.3398C15.4297-73.3398 9.76562-67.6758 9.76562-58.1055L9.76562-12.3047C9.76562-2.73438 15.4297 2.92969 25 2.92969Z"/>
   <path class="monochrome-1 multicolor-1:white hierarchical-1:primary SFSymbolsPreviewWireframe" d="M47.8834-10.9053C54.0945-10.9053 59.3105-17.4829 59.3105-24.5168C59.3105-24.5646 59.3857-24.6497 59.5026-24.7905C59.5548-24.7717 59.6039-24.721 59.627-24.7008C60.6291-24.2508 60.8799-23.6187 60.7256-22.536L59.5361-14.6869C59.2071-12.5785 60.5446-11.349 62.2358-11.349C64.035-11.349 64.8896-12.4733 65.1593-14.2681L66.5986-23.6389C67.1414-27.0997 65.7753-29.0405 61.944-29.8593L52.9155-31.8091L52.917-32.0333C53.2939-32.1989 53.644-32.3844 54.0004-32.652L60.8318-33.1103C64.4865-33.3653 66.2365-35.8782 66.2365-39.6223L66.2365-45.8498C66.2365-47.5897 65.1701-48.6302 63.4256-48.6302C61.6508-48.6302 60.6742-47.5957 60.6742-45.8498L60.6742-40.8364C60.6742-38.831 59.4928-38.2192 57.7813-38.1137L54.6717-37.9387C54.4201-38.4457 54.0569-38.8795 53.5896-39.1818L53.5896-39.4061C57.2372-40.0498 59.0618-42.2588 59.0618-45.5111C59.0618-47.2714 58.6845-48.9671 57.9676-50.5165L58.6321-50.9585C61.3139-52.7855 61.847-55.3454 60.2014-58.5846L59.3386-60.4174C58.7184-61.5875 57.987-62.0796 56.9221-62.0796C55.5935-62.0796 54.559-61.0375 54.559-59.7668C54.559-59.1695 54.6078-58.8495 54.9203-58.2947L55.494-57.0863C55.9875-56.1278 55.7425-55.057 54.8419-54.4414C54.7837-54.4061 54.727-54.3449 54.6703-54.3096C52.7897-55.7644 50.412-56.6335 47.8834-56.6335C45.3519-56.6335 42.9758-55.7644 41.0936-54.3081C41.0354-54.3449 40.9787-54.4046 40.9205-54.4399C40.0199-55.057 39.7749-56.1278 40.2684-57.0863L40.8391-58.2947C41.1546-58.8495 41.2034-59.1695 41.2034-59.7668C41.2034-61.0375 40.1689-62.0796 38.8388-62.0796C37.7739-62.0796 37.0425-61.5875 36.4239-60.4174L35.5595-58.5846C33.9154-55.3454 34.4485-52.7855 37.1288-50.9585L37.7933-50.515C37.081-48.9641 36.7066-47.2699 36.7066-45.5111C36.7066-42.2588 38.5298-40.0498 42.1773-39.4061L42.1773-39.1818C41.7115-38.8795 41.3483-38.4457 41.0967-37.9387L37.9856-38.1137C36.2711-38.2192 35.0927-38.831 35.0927-40.8364L35.0927-45.8498C35.0927-47.5957 34.1161-48.6302 32.3398-48.6302C30.5968-48.6302 29.5274-47.5897 29.5274-45.8498L29.5274-39.6223C29.5274-35.8782 31.2789-33.3653 34.9321-33.1103L41.7665-32.652C42.1244-32.3844 42.47-32.1989 42.85-32.0333L42.85-31.8091L33.8244-29.8593C29.9931-29.0405 28.627-27.0997 29.1698-23.6389L30.6091-14.2681C30.8788-12.4733 31.7304-11.349 33.5311-11.349C35.2238-11.349 36.5614-12.5785 36.2323-14.6869L35.0413-22.536C34.884-23.6766 35.1668-24.2797 36.2556-24.7297C36.2468-24.7499 36.2426-24.7717 36.2627-24.7905C36.3827-24.6497 36.4579-24.5646 36.4579-24.5168C36.4579-17.4829 41.7014-10.9053 47.8834-10.9053Z"/>
  </g>
  <g id="Regular-S" transform="matrix(1 0 0 1 1404.51 696)">
   <path class="monochrome-0 multicolor-0:tintColor hierarchical-0:tertiary SFSymbolsPreviewWireframe" d="M22.2168 0.390625L68.457 0.390625C76.8066 0.390625 80.9082-3.71094 80.9082-11.9141L80.9082-58.4961C80.9082-66.6992 76.8066-70.8008 68.457-70.8008L22.2168-70.8008C13.916-70.8008 9.76562-66.6992 9.76562-58.4961L9.76562-11.9141C9.76562-3.71094 13.916 0.390625 22.2168 0.390625Z"/>
   <path class="monochrome-1 multicolor-1:white hierarchical-1:primary SFSymbolsPreviewWireframe" d="M45.3295-11.9799C51.1154-11.9799 56.022-18.1435 56.022-24.7226C56.022-25.1629 56.0037-25.5679 55.9673-25.9588C56.236-25.8674 56.5325-25.7916 56.789-25.714C57.942-25.313 58.2417-24.8156 58.0944-23.7767L56.8058-15.3015C56.5522-13.6809 57.5598-12.7324 58.8749-12.7324C60.2492-12.7324 60.8969-13.5939 61.1107-14.9804L62.6059-24.6154C63.0465-27.371 61.9491-28.8934 58.9099-29.5624L49.9067-31.5908L49.8928-31.7982C50.4682-32.0771 50.9105-32.5111 51.249-33.0526L57.7598-33.7601C60.6657-34.0655 62.0394-35.9336 62.0394-38.8956L62.0394-45.413C62.0394-46.7475 61.2316-47.5448 59.8799-47.5448C58.5301-47.5448 57.7603-46.7508 57.7603-45.413L57.7603-39.8245C57.7603-38.2223 56.8378-37.7437 55.4624-37.6158L51.5901-37.2029C51.3566-37.7238 50.9921-38.2009 50.5151-38.5101L50.5151-38.7176C53.9444-39.3278 55.7901-41.4024 55.7901-44.4532C55.7901-46.5265 55.1739-48.4611 54.1063-50.1014L54.4515-50.3249C56.6703-51.8552 57.1421-54.1579 55.7737-56.814L54.9243-58.4668C54.4341-59.4049 53.8538-59.7991 53.0026-59.7991C51.9115-59.7991 51.088-58.9863 51.088-57.9489C51.088-57.4677 51.1369-57.219 51.3962-56.7424L52.0066-55.5856C52.5349-54.6188 52.4158-53.7048 51.6499-53.0838C51.5847-53.0276 51.5057-52.9609 51.4267-52.9046C49.7013-54.1537 47.5825-54.8872 45.3295-54.8872C43.0749-54.8872 40.9716-54.1537 39.2601-52.9185C39.195-52.9609 39.116-53.0415 39.0509-53.0978C38.2849-53.7048 38.1658-54.6188 38.6941-55.5856L39.3029-56.7424C39.5639-57.219 39.6127-57.4677 39.6127-57.9489C39.6127-58.9863 38.7892-59.7991 37.712-59.7991C36.8609-59.7991 36.2805-59.4049 35.7764-58.4668L34.9409-56.814C33.5586-54.1579 34.0304-51.8552 36.2631-50.3249L36.5789-50.1153C35.499-48.4889 34.855-46.5404 34.855-44.4532C34.855-41.4024 36.7147-39.3278 40.1439-38.7176L40.1439-38.5101C39.653-38.2009 39.2884-37.7238 39.055-37.2029L35.1966-37.6158C33.8196-37.7437 32.8987-38.2223 32.8987-39.8245L32.8987-45.413C32.8987-46.7508 32.1289-47.5448 30.7635-47.5448C29.4274-47.5448 28.618-46.7475 28.618-45.413L28.618-38.8956C28.618-35.9336 29.9778-34.0655 32.8976-33.7601L39.41-33.0526C39.7346-32.5111 40.1892-32.0771 40.7662-31.7982L40.7662-31.5908L31.7353-29.5624C28.696-28.8934 27.5986-27.371 28.0392-24.6154L29.5344-14.9804C29.7482-13.5939 30.3943-12.7324 31.7841-12.7324C33.0853-12.7324 34.0929-13.6809 33.8394-15.3015L32.5646-23.7767C32.4157-24.8399 32.7292-25.3252 33.9185-25.7261C34.1613-25.8037 34.4213-25.8674 34.6762-25.9588C34.6414-25.5679 34.6231-25.1629 34.6231-24.7226C34.6231-18.1435 39.5558-11.9799 45.3295-11.9799Z"/>
  </g>
  <g id="Ultralight-S" transform="matrix(1 0 0 1 516.35 696)">
   <path class="monochrome-0 multicolor-0:tintColor hierarchical-0:tertiary SFSymbolsPreviewWireframe" d="M19.7647-1.562L66.9585-1.562C73.4917-1.562 76.9576-5.11864 76.9576-11.5508L76.9576-58.7686C76.9576-65.2007 73.4917-68.7573 66.9585-68.7573L19.7647-68.7573C13.2349-68.7573 9.76562-65.2915 9.76562-58.7686L9.76562-11.5508C9.76562-5.02782 13.2349-1.562 19.7647-1.562Z"/>
   <path class="monochrome-1 multicolor-1:white hierarchical-1:primary SFSymbolsPreviewWireframe" d="M43.3615-12.7563C48.6-12.7563 53.3883-18.5006 53.3883-24.7362C53.3883-26.2557 53.0172-27.4474 52.2995-28.3643C53.0699-28.1602 53.8603-27.9762 54.6308-27.7822C56.073-27.4016 56.5731-26.6412 56.3259-25.1985L54.8004-15.4902C54.6914-14.7776 55.1605-14.3473 55.7685-14.3473C56.4154-14.3473 56.6735-14.7187 56.7868-15.39L58.3824-25.531C58.7342-27.7771 57.8309-29.0122 55.3939-29.5882L47.5952-31.4331L47.5851-31.6284C48.6342-32.1242 49.2332-33.2482 49.3635-34.408L54.3515-35.0854C56.7917-35.4272 57.8183-36.5742 57.8183-38.866L57.8183-45.2777C57.8183-45.9289 57.4526-46.2802 56.8201-46.2802C56.1976-46.2802 55.8176-45.9001 55.8176-45.2777L55.8176-39.2286C55.8176-37.7376 55.1571-37.1599 53.6642-36.9558L49.346-36.3411C49.1407-37.0221 48.7601-37.6356 48.1711-38.0249L48.1711-38.2202C51.4426-38.8061 53.1685-40.7837 53.1685-43.6889C53.1685-46.4688 51.9743-48.9814 50.1279-50.7623L50.4226-51.0082C52.2018-52.3841 52.329-54.0808 51.0708-56.0003L49.2853-58.4838C49.0242-58.924 48.733-59.0975 48.3516-59.0975C47.8225-59.0975 47.4367-58.7505 47.4367-58.227C47.4367-57.9947 47.4855-57.8426 47.6765-57.5426L49.4393-55.162C50.1879-54.0991 50.2499-53.1783 49.2209-52.3133C49.0757-52.1969 48.9205-52.0661 48.7653-51.9496C47.1971-53.0051 45.3403-53.6255 43.3615-53.6255C41.3971-53.6255 39.5359-53.0051 37.9778-51.9597C37.8326-52.0661 37.6774-52.2069 37.5322-52.3233C36.5033-53.1783 36.5652-54.0991 37.3138-55.162L39.091-57.5426C39.2676-57.8426 39.3164-57.9947 39.3164-58.227C39.3164-58.7505 38.9307-59.0975 38.4115-59.0975C38.0301-59.0975 37.7389-58.924 37.4678-58.4838L35.6923-56.0003C34.4241-54.0808 34.5513-52.3841 36.3405-51.0082L36.6296-50.7723C34.7587-49.0014 33.5445-46.4788 33.5445-43.6889C33.5445-40.7837 35.2805-38.8061 38.5519-38.2202L38.5519-38.0249C37.9529-37.6356 37.5723-37.0221 37.367-36.3411L33.0588-36.9558C31.5804-37.1599 30.9055-37.7376 30.9055-39.2286L30.9055-45.2777C30.9055-45.9001 30.5254-46.2802 29.9073-46.2802C29.2705-46.2802 28.9191-45.9289 28.9191-45.2777L28.9191-38.866C28.9191-36.5742 29.9358-35.4272 32.3859-35.0854L37.3595-34.408C37.4798-33.2482 38.1033-32.1242 39.1379-31.6284L39.1379-31.4331L31.3192-29.5882C28.8821-29.0122 27.9788-27.7771 28.3306-25.531L29.9262-15.39C30.0396-14.7187 30.312-14.3473 30.9545-14.3473C31.5525-14.3473 32.0216-14.7776 31.9126-15.4902L30.3972-25.1985C30.1643-26.6412 30.65-27.4016 32.0922-27.7822C32.8771-27.9762 33.6431-28.1602 34.428-28.3643C33.6958-27.4474 33.3248-26.2557 33.3248-24.7362C33.3248-18.5006 38.123-12.7563 43.3615-12.7563Z"/>
  </g>
 </g>
</svg>
