<?xml version="1.0" encoding="UTF-8"?>
<!--Generator: Apple Native CoreSVG 341-->
<!DOCTYPE svg
PUBLIC "-//W3C//DTD SVG 1.1//EN"
       "http://www.w3.org/Graphics/SVG/1.1/DTD/svg11.dtd">
<svg version="1.1" xmlns="http://www.w3.org/2000/svg" xmlns:xlink="http://www.w3.org/1999/xlink" viewBox="0 0 3300 2200">
 <!--glyph: "", point size: 100.0, font version: "20.0d8e1", template writer version: "138.0.0"-->
 <style>.monochrome-0 {-sfsymbols-motion-group:1;-sfsymbols-layer-tags:51739fe1cfcfda7 square.fill}
.monochrome-1 {opacity:0.0;-sfsymbols-clear-behind:true;-sfsymbols-motion-group:0;-sfsymbols-always-pulses:true;-sfsymbols-layer-tags:51739fe1cfcfda7 a216a6ebfb327b5 seal}
.monochrome-2 {opacity:0.0;-sfsymbols-clear-behind:true;-sfsymbols-motion-group:0;-sfsymbols-always-pulses:true;-sfsymbols-layer-tags:4c5e58b30f6ab932 51739fe1cfcfda7 a216a6ebfb327b5 person.fill}

.multicolor-0:tintColor {-sfsymbols-motion-group:1;-sfsymbols-layer-tags:51739fe1cfcfda7 square.fill}
.multicolor-1:white {-sfsymbols-motion-group:0;-sfsymbols-always-pulses:true;-sfsymbols-layer-tags:51739fe1cfcfda7 a216a6ebfb327b5 seal}
.multicolor-2:white {-sfsymbols-motion-group:0;-sfsymbols-always-pulses:true;-sfsymbols-layer-tags:4c5e58b30f6ab932 51739fe1cfcfda7 a216a6ebfb327b5 person.fill}

.hierarchical-0:tertiary {-sfsymbols-motion-group:1;-sfsymbols-layer-tags:51739fe1cfcfda7 square.fill}
.hierarchical-1:primary {-sfsymbols-motion-group:0;-sfsymbols-layer-tags:51739fe1cfcfda7 a216a6ebfb327b5 seal}
.hierarchical-2:primary {-sfsymbols-motion-group:0;-sfsymbols-layer-tags:4c5e58b30f6ab932 51739fe1cfcfda7 a216a6ebfb327b5 person.fill}

.SFSymbolsPreviewWireframe {fill:none;opacity:1.0;stroke:black;stroke-width:0.5}
</style>
 <g id="Notes">
  <rect height="2200" id="artboard" style="fill:white;opacity:1" width="3300" x="0" y="0"/>
  <line style="fill:none;stroke:black;opacity:1;stroke-width:0.5;" x1="263" x2="3036" y1="292" y2="292"/>
  <text style="stroke:none;fill:black;font-family:sans-serif;font-size:13;font-weight:bold;" transform="matrix(1 0 0 1 263 322)">Weight/Scale Variations</text>
  <text style="stroke:none;fill:black;font-family:sans-serif;font-size:13;text-anchor:middle;" transform="matrix(1 0 0 1 559.711 322)">Ultralight</text>
  <text style="stroke:none;fill:black;font-family:sans-serif;font-size:13;text-anchor:middle;" transform="matrix(1 0 0 1 856.422 322)">Thin</text>
  <text style="stroke:none;fill:black;font-family:sans-serif;font-size:13;text-anchor:middle;" transform="matrix(1 0 0 1 1153.13 322)">Light</text>
  <text style="stroke:none;fill:black;font-family:sans-serif;font-size:13;text-anchor:middle;" transform="matrix(1 0 0 1 1449.84 322)">Regular</text>
  <text style="stroke:none;fill:black;font-family:sans-serif;font-size:13;text-anchor:middle;" transform="matrix(1 0 0 1 1746.56 322)">Medium</text>
  <text style="stroke:none;fill:black;font-family:sans-serif;font-size:13;text-anchor:middle;" transform="matrix(1 0 0 1 2043.27 322)">Semibold</text>
  <text style="stroke:none;fill:black;font-family:sans-serif;font-size:13;text-anchor:middle;" transform="matrix(1 0 0 1 2339.98 322)">Bold</text>
  <text style="stroke:none;fill:black;font-family:sans-serif;font-size:13;text-anchor:middle;" transform="matrix(1 0 0 1 2636.69 322)">Heavy</text>
  <text style="stroke:none;fill:black;font-family:sans-serif;font-size:13;text-anchor:middle;" transform="matrix(1 0 0 1 2933.4 322)">Black</text>
  <line style="fill:none;stroke:black;opacity:1;stroke-width:0.5;" x1="263" x2="3036" y1="1903" y2="1903"/>
  <g transform="matrix(0.2 0 0 0.2 263 1933)">
   <path d="m46.2402 4.15039c21.7773 0 39.4531-17.627 39.4531-39.4043s-17.6758-39.4043-39.4531-39.4043c-21.7285 0-39.4043 17.627-39.4043 39.4043s17.6758 39.4043 39.4043 39.4043Zm0-7.42188c-17.6758 0-31.9336-14.3066-31.9336-31.9824s14.2578-31.9824 31.9336-31.9824 31.9824 14.3066 31.9824 31.9824-14.3066 31.9824-31.9824 31.9824Zm-17.9688-31.9824c0 2.14844 1.51367 3.61328 3.75977 3.61328h10.498v10.5957c0 2.19727 1.46484 3.71094 3.61328 3.71094 2.24609 0 3.71094-1.51367 3.71094-3.71094v-10.5957h10.5957c2.19727 0 3.71094-1.46484 3.71094-3.61328 0-2.19727-1.51367-3.71094-3.71094-3.71094h-10.5957v-10.5469c0-2.24609-1.46484-3.75977-3.71094-3.75977-2.14844 0-3.61328 1.51367-3.61328 3.75977v10.5469h-10.498c-2.24609 0-3.75977 1.51367-3.75977 3.71094Z"/>
  </g>
  <g transform="matrix(0.2 0 0 0.2 281.506 1933)">
   <path d="m58.5449 14.5508c27.4902 0 49.8047-22.3145 49.8047-49.8047s-22.3145-49.8047-49.8047-49.8047-49.8047 22.3145-49.8047 49.8047 22.3145 49.8047 49.8047 49.8047Zm0-8.30078c-22.9492 0-41.5039-18.5547-41.5039-41.5039s18.5547-41.5039 41.5039-41.5039 41.5039 18.5547 41.5039 41.5039-18.5547 41.5039-41.5039 41.5039Zm-22.6562-41.5039c0 2.39258 1.66016 4.00391 4.15039 4.00391h14.3555v14.4043c0 2.44141 1.66016 4.15039 4.05273 4.15039 2.44141 0 4.15039-1.66016 4.15039-4.15039v-14.4043h14.4043c2.44141 0 4.15039-1.61133 4.15039-4.00391 0-2.44141-1.70898-4.15039-4.15039-4.15039h-14.4043v-14.3555c0-2.49023-1.70898-4.19922-4.15039-4.19922-2.39258 0-4.05273 1.70898-4.05273 4.19922v14.3555h-14.3555c-2.49023 0-4.15039 1.70898-4.15039 4.15039Z"/>
  </g>
  <g transform="matrix(0.2 0 0 0.2 304.924 1933)">
   <path d="m74.8535 28.3203c35.1074 0 63.623-28.4668 63.623-63.5742s-28.5156-63.623-63.623-63.623-63.5742 28.5156-63.5742 63.623 28.4668 63.5742 63.5742 63.5742Zm0-9.08203c-30.127 0-54.4922-24.3652-54.4922-54.4922s24.3652-54.4922 54.4922-54.4922 54.4922 24.3652 54.4922 54.4922-24.3652 54.4922-54.4922 54.4922Zm-28.8574-54.4922c0 2.58789 1.85547 4.39453 4.58984 4.39453h19.7266v19.7754c0 2.68555 1.85547 4.58984 4.44336 4.58984 2.68555 0 4.54102-1.85547 4.54102-4.58984v-19.7754h19.7754c2.68555 0 4.58984-1.80664 4.58984-4.39453 0-2.73438-1.85547-4.58984-4.58984-4.58984h-19.7754v-19.7266c0-2.73438-1.85547-4.63867-4.54102-4.63867-2.58789 0-4.44336 1.9043-4.44336 4.63867v19.7266h-19.7266c-2.73438 0-4.58984 1.85547-4.58984 4.58984Z"/>
  </g>
  <text style="stroke:none;fill:black;font-family:sans-serif;font-size:13;font-weight:bold;" transform="matrix(1 0 0 1 263 1953)">Design Variations</text>
  <text style="stroke:none;fill:black;font-family:sans-serif;font-size:13;" transform="matrix(1 0 0 1 263 1971)">Symbols are supported in up to nine weights and three scales.</text>
  <text style="stroke:none;fill:black;font-family:sans-serif;font-size:13;" transform="matrix(1 0 0 1 263 1989)">For optimal layout with text and other symbols, vertically align</text>
  <text style="stroke:none;fill:black;font-family:sans-serif;font-size:13;" transform="matrix(1 0 0 1 263 2007)">symbols with the adjacent text.</text>
  <line style="fill:none;stroke:#00AEEF;stroke-width:0.5;opacity:1.0;" x1="776" x2="776" y1="1919" y2="1933"/>
  <g transform="matrix(0.2 0 0 0.2 776 1933)">
   <path d="m16.5527 0.78125c2.58789 0 3.85742-0.976562 4.78516-3.71094l6.29883-17.2363h28.8086l6.29883 17.2363c0.927734 2.73438 2.19727 3.71094 4.73633 3.71094 2.58789 0 4.24805-1.5625 4.24805-4.00391 0-0.830078-0.146484-1.61133-0.537109-2.63672l-22.9004-60.9863c-1.12305-2.97852-3.125-4.49219-6.25-4.49219-3.02734 0-5.07812 1.46484-6.15234 4.44336l-22.9004 61.084c-0.390625 1.02539-0.537109 1.80664-0.537109 2.63672 0 2.44141 1.5625 3.95508 4.10156 3.95508Zm13.4766-28.3691 11.8652-32.8613h0.244141l11.8652 32.8613Z"/>
  </g>
  <line style="fill:none;stroke:#00AEEF;stroke-width:0.5;opacity:1.0;" x1="792.836" x2="792.836" y1="1919" y2="1933"/>
  <text style="stroke:none;fill:black;font-family:sans-serif;font-size:13;font-weight:bold;" transform="matrix(1 0 0 1 776 1953)">Margins</text>
  <text style="stroke:none;fill:black;font-family:sans-serif;font-size:13;" transform="matrix(1 0 0 1 776 1971)">Leading and trailing margins on the left and right side of each symbol</text>
  <text style="stroke:none;fill:black;font-family:sans-serif;font-size:13;" transform="matrix(1 0 0 1 776 1989)">can be adjusted by modifying the x-location of the margin guidelines.</text>
  <text style="stroke:none;fill:black;font-family:sans-serif;font-size:13;" transform="matrix(1 0 0 1 776 2007)">Modifications are automatically applied proportionally to all</text>
  <text style="stroke:none;fill:black;font-family:sans-serif;font-size:13;" transform="matrix(1 0 0 1 776 2025)">scales and weights.</text>
  <g transform="matrix(0.2 0 0 0.2 1289 1933)">
   <path d="m14.209 9.32617 8.49609 8.54492c4.29688 4.3457 9.22852 4.05273 13.8672-1.07422l53.4668-58.9355-4.83398-4.88281-53.0762 58.3984c-1.75781 2.00195-3.41797 2.49023-5.76172 0.146484l-5.85938-5.81055c-2.34375-2.29492-1.80664-4.00391 0.195312-5.81055l57.373-54.0039-4.88281-4.83398-57.959 54.4434c-4.93164 4.58984-5.32227 9.47266-1.02539 13.8184Zm32.0801-90.9668c-2.09961 2.05078-2.24609 4.93164-1.07422 6.88477 1.17188 1.80664 3.4668 2.97852 6.68945 2.14844 7.32422-1.70898 14.9414-2.00195 22.0703 2.68555l-2.92969 7.27539c-1.70898 4.15039-0.830078 7.08008 1.85547 9.81445l11.4746 11.5723c2.44141 2.44141 4.49219 2.53906 7.32422 2.05078l5.32227-0.976562 3.32031 3.36914-0.195312 2.7832c-0.195312 2.49023 0.439453 4.39453 2.88086 6.78711l3.80859 3.71094c2.39258 2.39258 5.46875 2.53906 7.8125 0.195312l14.5508-14.5996c2.34375-2.34375 2.24609-5.32227-0.146484-7.71484l-3.85742-3.80859c-2.39258-2.39258-4.24805-3.17383-6.64062-2.97852l-2.88086 0.244141-3.22266-3.17383 1.2207-5.61523c0.634766-2.83203-0.146484-5.0293-3.07617-7.95898l-10.9863-10.9375c-16.6992-16.6016-38.8672-16.2109-53.3203-1.75781Zm7.4707 1.85547c12.1582-8.88672 28.6133-7.37305 39.7461 3.75977l12.1582 12.0605c1.17188 1.17188 1.36719 2.09961 1.02539 3.80859l-1.61133 7.42188 7.51953 7.42188 4.93164-0.292969c1.26953-0.0488281 1.66016 0.0488281 2.63672 1.02539l2.88086 2.88086-12.207 12.207-2.88086-2.88086c-0.976562-0.976562-1.12305-1.36719-1.07422-2.68555l0.341797-4.88281-7.4707-7.42188-7.61719 1.26953c-1.61133 0.341797-2.34375 0.195312-3.56445-0.976562l-10.0098-10.0098c-1.26953-1.17188-1.41602-2.00195-0.634766-3.85742l4.39453-10.4492c-7.8125-7.27539-17.9688-10.4004-28.125-7.42188-0.78125 0.195312-1.07422-0.439453-0.439453-0.976562Z"/>
  </g>
  <text style="stroke:none;fill:black;font-family:sans-serif;font-size:13;font-weight:bold;" transform="matrix(1 0 0 1 1289 1953)">Exporting</text>
  <text style="stroke:none;fill:black;font-family:sans-serif;font-size:13;" transform="matrix(1 0 0 1 1289 1971)">Symbols should be outlined when exporting to ensure the</text>
  <text style="stroke:none;fill:black;font-family:sans-serif;font-size:13;" transform="matrix(1 0 0 1 1289 1989)">design is preserved when submitting to Xcode.</text>
  <text id="template-version" style="stroke:none;fill:black;font-family:sans-serif;font-size:13;text-anchor:end;" transform="matrix(1 0 0 1 3036 1933)">Template v.6.0</text>
  <text style="stroke:none;fill:black;font-family:sans-serif;font-size:13;text-anchor:end;" transform="matrix(1 0 0 1 3036 1951)">Requires Xcode 16 or greater</text>
  <text id="descriptive-name" style="stroke:none;fill:black;font-family:sans-serif;font-size:13;text-anchor:end;" transform="matrix(1 0 0 1 3036 1969)">Generated from square.fill</text>
  <text style="stroke:none;fill:black;font-family:sans-serif;font-size:13;text-anchor:end;" transform="matrix(1 0 0 1 3036 1987)">Typeset at 100.0 points</text>
  <text style="stroke:none;fill:black;font-family:sans-serif;font-size:13;" transform="matrix(1 0 0 1 263 726)">Small</text>
  <text style="stroke:none;fill:black;font-family:sans-serif;font-size:13;" transform="matrix(1 0 0 1 263 1156)">Medium</text>
  <text style="stroke:none;fill:black;font-family:sans-serif;font-size:13;" transform="matrix(1 0 0 1 263 1586)">Large</text>
 </g>
 <g id="Guides">
  <g id="H-reference" style="fill:#27AAE1;stroke:none;" transform="matrix(1 0 0 1 339 696)">
   <path d="M0.993654 0L3.63775 0L29.3281-67.1323L30.0303-67.1323L30.0303-70.459L28.1226-70.459ZM11.6885-24.4799L46.9815-24.4799L46.2315-26.7285L12.4385-26.7285ZM55.1196 0L57.7637 0L30.6382-70.459L29.4326-70.459L29.4326-67.1323Z"/>
  </g>
  <line id="Baseline-S" style="fill:none;stroke:#27AAE1;opacity:1;stroke-width:0.5;" x1="263" x2="3036" y1="696" y2="696"/>
  <line id="Capline-S" style="fill:none;stroke:#27AAE1;opacity:1;stroke-width:0.5;" x1="263" x2="3036" y1="625.541" y2="625.541"/>
  <g id="H-reference" style="fill:#27AAE1;stroke:none;" transform="matrix(1 0 0 1 339 1126)">
   <path d="M0.993654 0L3.63775 0L29.3281-67.1323L30.0303-67.1323L30.0303-70.459L28.1226-70.459ZM11.6885-24.4799L46.9815-24.4799L46.2315-26.7285L12.4385-26.7285ZM55.1196 0L57.7637 0L30.6382-70.459L29.4326-70.459L29.4326-67.1323Z"/>
  </g>
  <line id="Baseline-M" style="fill:none;stroke:#27AAE1;opacity:1;stroke-width:0.5;" x1="263" x2="3036" y1="1126" y2="1126"/>
  <line id="Capline-M" style="fill:none;stroke:#27AAE1;opacity:1;stroke-width:0.5;" x1="263" x2="3036" y1="1055.54" y2="1055.54"/>
  <g id="H-reference" style="fill:#27AAE1;stroke:none;" transform="matrix(1 0 0 1 339 1556)">
   <path d="M0.993654 0L3.63775 0L29.3281-67.1323L30.0303-67.1323L30.0303-70.459L28.1226-70.459ZM11.6885-24.4799L46.9815-24.4799L46.2315-26.7285L12.4385-26.7285ZM55.1196 0L57.7637 0L30.6382-70.459L29.4326-70.459L29.4326-67.1323Z"/>
  </g>
  <line id="Baseline-L" style="fill:none;stroke:#27AAE1;opacity:1;stroke-width:0.5;" x1="263" x2="3036" y1="1556" y2="1556"/>
  <line id="Capline-L" style="fill:none;stroke:#27AAE1;opacity:1;stroke-width:0.5;" x1="263" x2="3036" y1="1485.54" y2="1485.54"/>
  <line id="right-margin-Black-S" style="fill:none;stroke:#00AEEF;stroke-width:0.5;opacity:1.0;" x1="2981.3" x2="2981.3" y1="600.785" y2="720.121"/>
  <line id="left-margin-Black-S" style="fill:none;stroke:#00AEEF;stroke-width:0.5;opacity:1.0;" x1="2885.5" x2="2885.5" y1="600.785" y2="720.121"/>
  <line id="right-margin-Regular-S" style="fill:none;stroke:#00AEEF;stroke-width:0.5;opacity:1.0;" x1="1495.18" x2="1495.18" y1="600.785" y2="720.121"/>
  <line id="left-margin-Regular-S" style="fill:none;stroke:#00AEEF;stroke-width:0.5;opacity:1.0;" x1="1404.51" x2="1404.51" y1="600.785" y2="720.121"/>
  <line id="right-margin-Ultralight-S" style="fill:none;stroke:#00AEEF;stroke-width:0.5;opacity:1.0;" x1="603.073" x2="603.073" y1="600.785" y2="720.121"/>
  <line id="left-margin-Ultralight-S" style="fill:none;stroke:#00AEEF;stroke-width:0.5;opacity:1.0;" x1="516.35" x2="516.35" y1="600.785" y2="720.121"/>
 </g>
 <g id="Symbols">
  <g id="Black-S" transform="matrix(1 0 0 1 2885.5 696)">
   <path class="monochrome-0 multicolor-0:tintColor hierarchical-0:tertiary SFSymbolsPreviewWireframe" d="M25 2.88086L70.8008 2.88086C80.3711 2.88086 86.0352-2.7832 86.0352-12.3535L86.0352-58.1543C86.0352-67.7246 80.3711-73.3887 70.8008-73.3887L25-73.3887C15.4297-73.3887 9.76562-67.7246 9.76562-58.1543L9.76562-12.3535C9.76562-2.7832 15.4297 2.88086 25 2.88086Z"/>
   <path class="monochrome-1 multicolor-1:white hierarchical-1:primary SFSymbolsPreviewWireframe" d="M36.5292-17.5213L40.2666-17.5213C40.4732-17.5213 40.5881-17.4845 40.7578-17.3148L43.3839-14.6812C46.3738-11.6927 49.4269-11.6912 52.4169-14.6812L55.043-17.3148C55.2127-17.4845 55.3276-17.5213 55.5327-17.5213L59.2716-17.5213C63.4981-17.5213 65.6519-19.7026 65.6519-23.9001L65.6519-27.6391C65.6519-27.8426 65.7132-27.9865 65.857-28.1258L68.4891-30.7564C71.4805-33.7433 71.482-36.7979 68.4891-39.7848L65.857-42.4154C65.6842-42.5837 65.6519-42.6986 65.6519-42.9022L65.6519-46.6411C65.6519-50.8691 63.4677-53.0199 59.2716-53.0199L55.5327-53.0199C55.3276-53.0199 55.1838-53.0856 55.043-53.2265L52.4169-55.8601C49.401-58.8744 46.4317-58.8151 43.3869-55.8311L40.7578-53.2265C40.614-53.0826 40.4732-53.0199 40.2666-53.0199L36.5292-53.0199C32.3042-53.0199 30.1488-50.8965 30.1488-46.6411L30.1488-42.9022C30.1488-42.6986 30.0861-42.5548 29.9423-42.4154L27.3117-39.7848C24.3203-36.7979 24.3188-33.7433 27.3117-30.7564L29.9423-28.1258C30.0861-27.9865 30.1488-27.8426 30.1488-27.6391L30.1488-23.9001C30.1488-19.6722 32.3331-17.5213 36.5292-17.5213ZM38.3513-23.8448C36.7731-23.8448 36.5027-24.1167 36.4738-25.6934L36.4738-29.7749C36.4738-30.2846 36.3592-30.6448 35.993-31.0126L33.0675-33.938C31.9456-35.0599 31.9456-35.4235 33.0675-36.5454L35.993-39.4708C36.3592-39.8386 36.4738-40.1988 36.5027-40.7085L36.5027-44.79C36.5027-46.3912 36.7487-46.6386 38.3513-46.6386L42.4344-46.6676C42.9441-46.6676 43.3332-46.8125 43.6705-47.1468L46.5975-50.0723C47.7209-51.1972 48.051-51.2261 49.2033-50.0723L52.1303-47.1468C52.4661-46.8125 52.8552-46.6676 53.3664-46.6676L57.4495-46.6386C59.0277-46.6386 59.2951-46.3667 59.2951-44.79L59.2951-40.7085C59.324-40.1988 59.4386-39.8386 59.8063-39.4708L62.7303-36.5454C63.8537-35.4235 63.8537-35.0599 62.7303-33.938L59.8063-31.0126C59.4386-30.6448 59.324-30.2846 59.324-29.7749L59.2951-25.6934C59.2951-24.1167 59.0277-23.8448 57.4495-23.8448L53.3664-23.8158C52.8552-23.8158 52.5239-23.7287 52.1303-23.3366L49.2033-20.4111C48.0799-19.2862 47.7209-19.2862 46.5975-20.4111L43.6705-23.3366C43.2754-23.7287 42.9441-23.8158 42.4344-23.8158Z"/>
   <path class="monochrome-2 multicolor-2:white hierarchical-2:primary SFSymbolsPreviewWireframe" d="M41.9392-26.2338L53.8666-26.2338C55.3586-26.2338 56.2389-26.9683 56.2389-28.2274C56.2389-30.6321 52.8699-33.8786 47.9016-33.8786C42.9313-33.8786 39.565-30.6321 39.565-28.2274C39.565-26.9683 40.4426-26.2338 41.9392-26.2338ZM47.8962-35.4672C50.2389-35.4672 52.0099-37.4557 52.0099-39.8935C52.0099-42.2 50.2133-44.2737 47.8962-44.2737C45.5771-44.2737 43.7832-42.2077 43.7832-39.8973C43.7832-37.4557 45.5516-35.4672 47.8962-35.4672Z"/>
  </g>
  <g id="Regular-S" transform="matrix(1 0 0 1 1404.51 696)">
   <path class="monochrome-0 multicolor-0:tintColor hierarchical-0:tertiary SFSymbolsPreviewWireframe" d="M22.2168 0.390625L68.457 0.390625C76.8066 0.390625 80.9082-3.71094 80.9082-11.9141L80.9082-58.4961C80.9082-66.6992 76.8066-70.8008 68.457-70.8008L22.2168-70.8008C13.916-70.8008 9.76562-66.6992 9.76562-58.4961L9.76562-11.9141C9.76562-3.71094 13.916 0.390625 22.2168 0.390625Z"/>
   <path class="monochrome-1 multicolor-1:white hierarchical-1:primary SFSymbolsPreviewWireframe" d="M33.9073-18.0074L37.77-18.0074C38.0675-18.0074 38.2705-17.9357 38.4962-17.71L41.231-14.9859C43.9863-12.2166 46.6875-12.2305 49.4429-14.9859L52.1777-17.71C52.4033-17.9357 52.6064-18.0074 52.9177-18.0074L56.7666-18.0074C60.6551-18.0074 62.5772-19.9261 62.5772-23.8319L62.5772-27.6808C62.5772-27.9766 62.6733-28.1918 62.8885-28.4192L65.5971-31.1418C68.368-33.8955 68.3541-36.6122 65.5971-39.3659L62.8885-42.0884C62.6612-42.328 62.5772-42.531 62.5772-42.8268L62.5772-46.6757C62.5772-50.5798 60.6569-52.5002 56.7666-52.5002L52.9177-52.5002C52.6064-52.5002 52.3912-52.5841 52.1777-52.7977L49.4429-55.5218C46.677-58.3016 44.0106-58.2618 41.2326-55.5097L38.4962-52.7977C38.281-52.5825 38.0675-52.5002 37.77-52.5002L33.9073-52.5002C30.0048-52.5002 28.0967-50.6058 28.0967-46.6757L28.0967-42.8268C28.0967-42.531 28.0144-42.3159 27.7992-42.0884L25.0767-39.3659C22.3058-36.6122 22.3197-33.8955 25.0767-31.1418L27.7992-28.4192C28.0144-28.1918 28.0967-27.9766 28.0967-27.6808L28.0967-23.8319C28.0967-19.9279 30.0169-18.0074 33.9073-18.0074ZM34.6715-22.7245C33.0486-22.7245 32.812-22.9473 32.7999-24.5841L32.7999-29.2391C32.7999-29.8091 32.6377-30.2309 32.242-30.6421L28.9347-33.92C27.7863-35.0978 27.7863-35.3856 28.9347-36.5634L32.242-39.8413C32.6377-40.2525 32.7999-40.6743 32.812-41.2443L32.812-45.8993C32.812-47.5605 33.0242-47.7589 34.6715-47.7589L39.3421-47.771C39.9121-47.771 40.346-47.9314 40.7295-48.3427L44.023-51.6501C45.1869-52.8001 45.4748-52.8122 46.6508-51.6501L49.9443-48.3427C50.3417-47.9314 50.7757-47.771 51.3317-47.771L56.0023-47.7589C57.6252-47.7589 57.8602-47.5361 57.8602-45.8993L57.8602-41.2443C57.8724-40.6743 58.0345-40.2525 58.4457-39.8413L61.7375-36.5634C62.9014-35.3856 62.9014-35.0978 61.7375-33.92L58.4457-30.6421C58.0345-30.2309 57.8724-29.8091 57.8724-29.2391L57.8602-24.5841C57.8602-22.9473 57.6252-22.7245 56.0023-22.7245L51.3317-22.7124C50.7757-22.7124 50.366-22.5763 49.9443-22.1407L46.6508-18.8333C45.4869-17.6833 45.1869-17.6833 44.023-18.8333L40.7295-22.1407C40.3218-22.5763 39.9121-22.7124 39.3421-22.7124Z"/>
   <path class="monochrome-2 multicolor-2:white hierarchical-2:primary SFSymbolsPreviewWireframe" d="M39.2238-26.3646L51.4489-26.3646C52.7887-26.3646 53.5794-27.0092 53.5794-28.1074C53.5794-30.539 50.3084-33.8482 45.3354-33.8482C40.3658-33.8482 37.0965-30.539 37.0965-28.1074C37.0965-27.0092 37.8855-26.3646 39.2238-26.3646ZM45.332-35.4808C47.5679-35.4808 49.3523-37.4163 49.3523-39.8422C49.3523-42.1805 47.5518-44.1296 45.332-44.1296C43.1155-44.1296 41.3167-42.1674 41.3167-39.8356C41.3167-37.4163 43.0993-35.4808 45.332-35.4808Z"/>
  </g>
  <g id="Ultralight-S" transform="matrix(1 0 0 1 516.35 696)">
   <path class="monochrome-0 multicolor-0:tintColor hierarchical-0:tertiary SFSymbolsPreviewWireframe" d="M19.7647-1.65282L66.9585-1.65282C73.4917-1.65282 76.9576-5.20946 76.9576-11.6416L76.9576-58.8594C76.9576-65.2915 73.4917-68.8482 66.9585-68.8482L19.7647-68.8482C13.2349-68.8482 9.76562-65.3823 9.76562-58.8594L9.76562-11.6416C9.76562-5.11864 13.2349-1.65282 19.7647-1.65282Z"/>
   <path class="monochrome-1 multicolor-1:white hierarchical-1:primary SFSymbolsPreviewWireframe" d="M31.5294-19.2594L36.1133-19.2594C36.5515-19.2594 36.8632-19.1474 37.1893-18.8213L40.453-15.5963C42.4985-13.5409 44.2247-13.5509 46.2701-15.5963L49.5339-18.8213C49.86-19.1474 50.1717-19.2594 50.6199-19.2594L55.1938-19.2594C58.0875-19.2594 59.3317-20.5079 59.3317-23.4073L59.3317-27.9812C59.3317-28.4337 59.4681-28.7455 59.7798-29.0816L63.0092-32.3209C65.0502-34.3808 65.0402-36.1026 63.0092-38.1625L59.7798-41.4018C59.4681-41.7379 59.3317-42.0497 59.3317-42.5022L59.3317-47.0761C59.3317-49.9655 58.0976-51.224 55.1938-51.224L50.6199-51.224C50.1717-51.224 49.86-51.336 49.5339-51.6621L46.2701-54.8871C44.2103-56.9569 42.4985-56.9613 40.4386-54.8871L37.1893-51.6621C36.8776-51.3504 36.5515-51.224 36.1133-51.224L31.5294-51.224C28.6256-51.224 27.3915-49.9755 27.3915-47.0761L27.3915-42.5022C27.3915-42.0497 27.2651-41.7379 26.9534-41.4018L23.714-38.1625C21.673-36.1026 21.683-34.3808 23.714-32.3209L26.9534-29.0816C27.2651-28.7455 27.3915-28.4337 27.3915-27.9812L27.3915-23.4073C27.3915-20.5179 28.6256-19.2594 31.5294-19.2594ZM31.5294-21.2396C29.7541-21.2396 29.3617-21.622 29.3617-23.4073L29.3617-28.6869C29.3617-29.2253 29.1952-29.6316 28.8233-29.9991L25.1049-33.7119C23.8323-34.9901 23.8323-35.4933 25.1049-36.7715L28.8233-40.4843C29.1952-40.8518 29.3617-41.2581 29.3617-41.7965L29.3617-47.0761C29.3617-48.8858 29.7297-49.2438 31.5294-49.2438L36.8046-49.2438C37.343-49.2438 37.7493-49.4003 38.1212-49.7922L41.8296-53.5106C43.0978-54.7688 43.6254-54.7688 44.8936-53.5106L48.602-49.7922C48.9839-49.4003 49.3902-49.2438 49.9185-49.2438L55.1938-49.2438C56.9691-49.2438 57.3759-48.8614 57.3759-47.0761L57.3759-41.7965C57.3759-41.2581 57.5424-40.8518 57.9099-40.4843L61.6326-36.7715C62.9009-35.4933 62.9009-34.9901 61.6326-33.7119L57.9099-29.9991C57.5424-29.6316 57.3759-29.2253 57.3759-28.6869L57.3759-23.4073C57.3759-21.622 56.9691-21.2396 55.1938-21.2396L49.9185-21.2396C49.3902-21.2396 48.9839-21.0831 48.602-20.6912L44.8936-16.9728C43.6254-15.7146 43.0978-15.7146 41.8296-16.9728L38.1212-20.6912C37.7493-21.0831 37.343-21.2396 36.8046-21.2396Z"/>
   <path class="monochrome-2 multicolor-2:white hierarchical-2:primary SFSymbolsPreviewWireframe" d="M36.9462-26.6426L49.7718-26.6426C50.7904-26.6426 51.4114-27.1449 51.4114-27.9564C51.4114-30.4062 48.303-33.7785 43.3611-33.7785C38.4249-33.7785 35.3123-30.4062 35.3123-27.9564C35.3123-27.1449 35.9376-26.6426 36.9462-26.6426ZM43.3696-35.4762C45.4775-35.4762 47.1963-37.3202 47.1963-39.7016C47.1963-41.9997 45.4602-43.8288 43.3696-43.8288C41.2848-43.8288 39.5445-41.9768 39.5445-39.6901C39.5445-37.3202 41.2676-35.4762 43.3696-35.4762Z"/>
  </g>
 </g>
</svg>
