<?xml version="1.0" encoding="UTF-8"?>
<!--Generator: Apple Native CoreSVG 341-->
<!DOCTYPE svg
PUBLIC "-//W3C//DTD SVG 1.1//EN"
       "http://www.w3.org/Graphics/SVG/1.1/DTD/svg11.dtd">
<svg version="1.1" xmlns="http://www.w3.org/2000/svg" xmlns:xlink="http://www.w3.org/1999/xlink" viewBox="0 0 3300 2200">
 <!--glyph: "", point size: 100.0, font version: "20.0d8e1", template writer version: "138.0.0"-->
 <style>.monochrome-0 {-sfsymbols-motion-group:1;-sfsymbols-indices:0;-sfsymbols-layer-tags:-14d06099e6df62d3 square.fill}
.monochrome-1 {opacity:0.0;-sfsymbols-clear-behind:true;-sfsymbols-motion-group:0;-sfsymbols-always-pulses:true;-sfsymbols-layer-tags:-14d06099e6df62d3}

.multicolor-0:tintColor {-sfsymbols-motion-group:1;-sfsymbols-indices:0;-sfsymbols-layer-tags:-14d06099e6df62d3 square.fill}
.multicolor-1:white {-sfsymbols-motion-group:0;-sfsymbols-always-pulses:true;-sfsymbols-layer-tags:-14d06099e6df62d3}

.hierarchical-0:tertiary {-sfsymbols-motion-group:1;-sfsymbols-indices:0;-sfsymbols-layer-tags:-14d06099e6df62d3 square.fill}
.hierarchical-1:primary {-sfsymbols-motion-group:0;-sfsymbols-layer-tags:-14d06099e6df62d3}

.shapeGroupLayer-0 {-sfsymbols-fill-action:draw;-sfsymbols-indices:1 2 3 4 5 6}
.shapeGroupLayer-1 {-sfsymbols-fill-action:draw;-sfsymbols-indices:7}
.shapeGroupLayer-2 {-sfsymbols-fill-action:erase;-sfsymbols-indices:8}
.shapeGroupLayer-3 {-sfsymbols-fill-action:draw;-sfsymbols-indices:9}

.SFSymbolsPreviewWireframe {fill:none;opacity:1.0;stroke:black;stroke-width:0.5}
</style>
 <g id="Notes">
  <rect height="2200" id="artboard" style="fill:white;opacity:1" width="3300" x="0" y="0"/>
  <line style="fill:none;stroke:black;opacity:1;stroke-width:0.5;" x1="263" x2="3036" y1="292" y2="292"/>
  <text style="stroke:none;fill:black;font-family:sans-serif;font-size:13;font-weight:bold;" transform="matrix(1 0 0 1 263 322)">Weight/Scale Variations</text>
  <text style="stroke:none;fill:black;font-family:sans-serif;font-size:13;text-anchor:middle;" transform="matrix(1 0 0 1 559.711 322)">Ultralight</text>
  <text style="stroke:none;fill:black;font-family:sans-serif;font-size:13;text-anchor:middle;" transform="matrix(1 0 0 1 856.422 322)">Thin</text>
  <text style="stroke:none;fill:black;font-family:sans-serif;font-size:13;text-anchor:middle;" transform="matrix(1 0 0 1 1153.13 322)">Light</text>
  <text style="stroke:none;fill:black;font-family:sans-serif;font-size:13;text-anchor:middle;" transform="matrix(1 0 0 1 1449.84 322)">Regular</text>
  <text style="stroke:none;fill:black;font-family:sans-serif;font-size:13;text-anchor:middle;" transform="matrix(1 0 0 1 1746.56 322)">Medium</text>
  <text style="stroke:none;fill:black;font-family:sans-serif;font-size:13;text-anchor:middle;" transform="matrix(1 0 0 1 2043.27 322)">Semibold</text>
  <text style="stroke:none;fill:black;font-family:sans-serif;font-size:13;text-anchor:middle;" transform="matrix(1 0 0 1 2339.98 322)">Bold</text>
  <text style="stroke:none;fill:black;font-family:sans-serif;font-size:13;text-anchor:middle;" transform="matrix(1 0 0 1 2636.69 322)">Heavy</text>
  <text style="stroke:none;fill:black;font-family:sans-serif;font-size:13;text-anchor:middle;" transform="matrix(1 0 0 1 2933.4 322)">Black</text>
  <line style="fill:none;stroke:black;opacity:1;stroke-width:0.5;" x1="263" x2="3036" y1="1903" y2="1903"/>
  <g transform="matrix(0.2 0 0 0.2 263 1933)">
   <path d="m46.2402 4.15039c21.7773 0 39.4531-17.627 39.4531-39.4043s-17.6758-39.4043-39.4531-39.4043c-21.7285 0-39.4043 17.627-39.4043 39.4043s17.6758 39.4043 39.4043 39.4043Zm0-7.42188c-17.6758 0-31.9336-14.3066-31.9336-31.9824s14.2578-31.9824 31.9336-31.9824 31.9824 14.3066 31.9824 31.9824-14.3066 31.9824-31.9824 31.9824Zm-17.9688-31.9824c0 2.14844 1.51367 3.61328 3.75977 3.61328h10.498v10.5957c0 2.19727 1.46484 3.71094 3.61328 3.71094 2.24609 0 3.71094-1.51367 3.71094-3.71094v-10.5957h10.5957c2.19727 0 3.71094-1.46484 3.71094-3.61328 0-2.19727-1.51367-3.71094-3.71094-3.71094h-10.5957v-10.5469c0-2.24609-1.46484-3.75977-3.71094-3.75977-2.14844 0-3.61328 1.51367-3.61328 3.75977v10.5469h-10.498c-2.24609 0-3.75977 1.51367-3.75977 3.71094Z"/>
  </g>
  <g transform="matrix(0.2 0 0 0.2 281.506 1933)">
   <path d="m58.5449 14.5508c27.4902 0 49.8047-22.3145 49.8047-49.8047s-22.3145-49.8047-49.8047-49.8047-49.8047 22.3145-49.8047 49.8047 22.3145 49.8047 49.8047 49.8047Zm0-8.30078c-22.9492 0-41.5039-18.5547-41.5039-41.5039s18.5547-41.5039 41.5039-41.5039 41.5039 18.5547 41.5039 41.5039-18.5547 41.5039-41.5039 41.5039Zm-22.6562-41.5039c0 2.39258 1.66016 4.00391 4.15039 4.00391h14.3555v14.4043c0 2.44141 1.66016 4.15039 4.05273 4.15039 2.44141 0 4.15039-1.66016 4.15039-4.15039v-14.4043h14.4043c2.44141 0 4.15039-1.61133 4.15039-4.00391 0-2.44141-1.70898-4.15039-4.15039-4.15039h-14.4043v-14.3555c0-2.49023-1.70898-4.19922-4.15039-4.19922-2.39258 0-4.05273 1.70898-4.05273 4.19922v14.3555h-14.3555c-2.49023 0-4.15039 1.70898-4.15039 4.15039Z"/>
  </g>
  <g transform="matrix(0.2 0 0 0.2 304.924 1933)">
   <path d="m74.8535 28.3203c35.1074 0 63.623-28.4668 63.623-63.5742s-28.5156-63.623-63.623-63.623-63.5742 28.5156-63.5742 63.623 28.4668 63.5742 63.5742 63.5742Zm0-9.08203c-30.127 0-54.4922-24.3652-54.4922-54.4922s24.3652-54.4922 54.4922-54.4922 54.4922 24.3652 54.4922 54.4922-24.3652 54.4922-54.4922 54.4922Zm-28.8574-54.4922c0 2.58789 1.85547 4.39453 4.58984 4.39453h19.7266v19.7754c0 2.68555 1.85547 4.58984 4.44336 4.58984 2.68555 0 4.54102-1.85547 4.54102-4.58984v-19.7754h19.7754c2.68555 0 4.58984-1.80664 4.58984-4.39453 0-2.73438-1.85547-4.58984-4.58984-4.58984h-19.7754v-19.7266c0-2.73438-1.85547-4.63867-4.54102-4.63867-2.58789 0-4.44336 1.9043-4.44336 4.63867v19.7266h-19.7266c-2.73438 0-4.58984 1.85547-4.58984 4.58984Z"/>
  </g>
  <text style="stroke:none;fill:black;font-family:sans-serif;font-size:13;font-weight:bold;" transform="matrix(1 0 0 1 263 1953)">Design Variations</text>
  <text style="stroke:none;fill:black;font-family:sans-serif;font-size:13;" transform="matrix(1 0 0 1 263 1971)">Symbols are supported in up to nine weights and three scales.</text>
  <text style="stroke:none;fill:black;font-family:sans-serif;font-size:13;" transform="matrix(1 0 0 1 263 1989)">For optimal layout with text and other symbols, vertically align</text>
  <text style="stroke:none;fill:black;font-family:sans-serif;font-size:13;" transform="matrix(1 0 0 1 263 2007)">symbols with the adjacent text.</text>
  <line style="fill:none;stroke:#00AEEF;stroke-width:0.5;opacity:1.0;" x1="776" x2="776" y1="1919" y2="1933"/>
  <g transform="matrix(0.2 0 0 0.2 776 1933)">
   <path d="m16.5527 0.78125c2.58789 0 3.85742-0.976562 4.78516-3.71094l6.29883-17.2363h28.8086l6.29883 17.2363c0.927734 2.73438 2.19727 3.71094 4.73633 3.71094 2.58789 0 4.24805-1.5625 4.24805-4.00391 0-0.830078-0.146484-1.61133-0.537109-2.63672l-22.9004-60.9863c-1.12305-2.97852-3.125-4.49219-6.25-4.49219-3.02734 0-5.07812 1.46484-6.15234 4.44336l-22.9004 61.084c-0.390625 1.02539-0.537109 1.80664-0.537109 2.63672 0 2.44141 1.5625 3.95508 4.10156 3.95508Zm13.4766-28.3691 11.8652-32.8613h0.244141l11.8652 32.8613Z"/>
  </g>
  <line style="fill:none;stroke:#00AEEF;stroke-width:0.5;opacity:1.0;" x1="792.836" x2="792.836" y1="1919" y2="1933"/>
  <text style="stroke:none;fill:black;font-family:sans-serif;font-size:13;font-weight:bold;" transform="matrix(1 0 0 1 776 1953)">Margins</text>
  <text style="stroke:none;fill:black;font-family:sans-serif;font-size:13;" transform="matrix(1 0 0 1 776 1971)">Leading and trailing margins on the left and right side of each symbol</text>
  <text style="stroke:none;fill:black;font-family:sans-serif;font-size:13;" transform="matrix(1 0 0 1 776 1989)">can be adjusted by modifying the x-location of the margin guidelines.</text>
  <text style="stroke:none;fill:black;font-family:sans-serif;font-size:13;" transform="matrix(1 0 0 1 776 2007)">Modifications are automatically applied proportionally to all</text>
  <text style="stroke:none;fill:black;font-family:sans-serif;font-size:13;" transform="matrix(1 0 0 1 776 2025)">scales and weights.</text>
  <g transform="matrix(0.2 0 0 0.2 1289 1933)">
   <path d="m14.209 9.32617 8.49609 8.54492c4.29688 4.3457 9.22852 4.05273 13.8672-1.07422l53.4668-58.9355-4.83398-4.88281-53.0762 58.3984c-1.75781 2.00195-3.41797 2.49023-5.76172 0.146484l-5.85938-5.81055c-2.34375-2.29492-1.80664-4.00391 0.195312-5.81055l57.373-54.0039-4.88281-4.83398-57.959 54.4434c-4.93164 4.58984-5.32227 9.47266-1.02539 13.8184Zm32.0801-90.9668c-2.09961 2.05078-2.24609 4.93164-1.07422 6.88477 1.17188 1.80664 3.4668 2.97852 6.68945 2.14844 7.32422-1.70898 14.9414-2.00195 22.0703 2.68555l-2.92969 7.27539c-1.70898 4.15039-0.830078 7.08008 1.85547 9.81445l11.4746 11.5723c2.44141 2.44141 4.49219 2.53906 7.32422 2.05078l5.32227-0.976562 3.32031 3.36914-0.195312 2.7832c-0.195312 2.49023 0.439453 4.39453 2.88086 6.78711l3.80859 3.71094c2.39258 2.39258 5.46875 2.53906 7.8125 0.195312l14.5508-14.5996c2.34375-2.34375 2.24609-5.32227-0.146484-7.71484l-3.85742-3.80859c-2.39258-2.39258-4.24805-3.17383-6.64062-2.97852l-2.88086 0.244141-3.22266-3.17383 1.2207-5.61523c0.634766-2.83203-0.146484-5.0293-3.07617-7.95898l-10.9863-10.9375c-16.6992-16.6016-38.8672-16.2109-53.3203-1.75781Zm7.4707 1.85547c12.1582-8.88672 28.6133-7.37305 39.7461 3.75977l12.1582 12.0605c1.17188 1.17188 1.36719 2.09961 1.02539 3.80859l-1.61133 7.42188 7.51953 7.42188 4.93164-0.292969c1.26953-0.0488281 1.66016 0.0488281 2.63672 1.02539l2.88086 2.88086-12.207 12.207-2.88086-2.88086c-0.976562-0.976562-1.12305-1.36719-1.07422-2.68555l0.341797-4.88281-7.4707-7.42188-7.61719 1.26953c-1.61133 0.341797-2.34375 0.195312-3.56445-0.976562l-10.0098-10.0098c-1.26953-1.17188-1.41602-2.00195-0.634766-3.85742l4.39453-10.4492c-7.8125-7.27539-17.9688-10.4004-28.125-7.42188-0.78125 0.195312-1.07422-0.439453-0.439453-0.976562Z"/>
  </g>
  <text style="stroke:none;fill:black;font-family:sans-serif;font-size:13;font-weight:bold;" transform="matrix(1 0 0 1 1289 1953)">Exporting</text>
  <text style="stroke:none;fill:black;font-family:sans-serif;font-size:13;" transform="matrix(1 0 0 1 1289 1971)">Symbols should be outlined when exporting to ensure the</text>
  <text style="stroke:none;fill:black;font-family:sans-serif;font-size:13;" transform="matrix(1 0 0 1 1289 1989)">design is preserved when submitting to Xcode.</text>
  <text id="template-version" style="stroke:none;fill:black;font-family:sans-serif;font-size:13;text-anchor:end;" transform="matrix(1 0 0 1 3036 1933)">Template v.6.0</text>
  <text style="stroke:none;fill:black;font-family:sans-serif;font-size:13;text-anchor:end;" transform="matrix(1 0 0 1 3036 1951)">Requires Xcode 16 or greater</text>
  <text id="descriptive-name" style="stroke:none;fill:black;font-family:sans-serif;font-size:13;text-anchor:end;" transform="matrix(1 0 0 1 3036 1969)">Generated from square.fill</text>
  <text style="stroke:none;fill:black;font-family:sans-serif;font-size:13;text-anchor:end;" transform="matrix(1 0 0 1 3036 1987)">Typeset at 100.0 points</text>
  <text style="stroke:none;fill:black;font-family:sans-serif;font-size:13;" transform="matrix(1 0 0 1 263 726)">Small</text>
  <text style="stroke:none;fill:black;font-family:sans-serif;font-size:13;" transform="matrix(1 0 0 1 263 1156)">Medium</text>
  <text style="stroke:none;fill:black;font-family:sans-serif;font-size:13;" transform="matrix(1 0 0 1 263 1586)">Large</text>
 </g>
 <g id="Guides">
  <g id="H-reference" style="fill:#27AAE1;stroke:none;" transform="matrix(1 0 0 1 339 696)">
   <path d="M0.993654 0L3.63775 0L29.3281-67.1323L30.0303-67.1323L30.0303-70.459L28.1226-70.459ZM11.6885-24.4799L46.9815-24.4799L46.2315-26.7285L12.4385-26.7285ZM55.1196 0L57.7637 0L30.6382-70.459L29.4326-70.459L29.4326-67.1323Z"/>
  </g>
  <line id="Baseline-S" style="fill:none;stroke:#27AAE1;opacity:1;stroke-width:0.5;" x1="263" x2="3036" y1="696" y2="696"/>
  <line id="Capline-S" style="fill:none;stroke:#27AAE1;opacity:1;stroke-width:0.5;" x1="263" x2="3036" y1="625.541" y2="625.541"/>
  <g id="H-reference" style="fill:#27AAE1;stroke:none;" transform="matrix(1 0 0 1 339 1126)">
   <path d="M0.993654 0L3.63775 0L29.3281-67.1323L30.0303-67.1323L30.0303-70.459L28.1226-70.459ZM11.6885-24.4799L46.9815-24.4799L46.2315-26.7285L12.4385-26.7285ZM55.1196 0L57.7637 0L30.6382-70.459L29.4326-70.459L29.4326-67.1323Z"/>
  </g>
  <line id="Baseline-M" style="fill:none;stroke:#27AAE1;opacity:1;stroke-width:0.5;" x1="263" x2="3036" y1="1126" y2="1126"/>
  <line id="Capline-M" style="fill:none;stroke:#27AAE1;opacity:1;stroke-width:0.5;" x1="263" x2="3036" y1="1055.54" y2="1055.54"/>
  <g id="H-reference" style="fill:#27AAE1;stroke:none;" transform="matrix(1 0 0 1 339 1556)">
   <path d="M0.993654 0L3.63775 0L29.3281-67.1323L30.0303-67.1323L30.0303-70.459L28.1226-70.459ZM11.6885-24.4799L46.9815-24.4799L46.2315-26.7285L12.4385-26.7285ZM55.1196 0L57.7637 0L30.6382-70.459L29.4326-70.459L29.4326-67.1323Z"/>
  </g>
  <line id="Baseline-L" style="fill:none;stroke:#27AAE1;opacity:1;stroke-width:0.5;" x1="263" x2="3036" y1="1556" y2="1556"/>
  <line id="Capline-L" style="fill:none;stroke:#27AAE1;opacity:1;stroke-width:0.5;" x1="263" x2="3036" y1="1485.54" y2="1485.54"/>
  <line id="right-margin-Black-S" style="fill:none;stroke:#00AEEF;stroke-width:0.5;opacity:1.0;" x1="2981.3" x2="2981.3" y1="600.785" y2="720.121"/>
  <line id="left-margin-Black-S" style="fill:none;stroke:#00AEEF;stroke-width:0.5;opacity:1.0;" x1="2885.5" x2="2885.5" y1="600.785" y2="720.121"/>
  <line id="right-margin-Regular-S" style="fill:none;stroke:#00AEEF;stroke-width:0.5;opacity:1.0;" x1="1495.18" x2="1495.18" y1="600.785" y2="720.121"/>
  <line id="left-margin-Regular-S" style="fill:none;stroke:#00AEEF;stroke-width:0.5;opacity:1.0;" x1="1404.51" x2="1404.51" y1="600.785" y2="720.121"/>
  <line id="right-margin-Ultralight-S" style="fill:none;stroke:#00AEEF;stroke-width:0.5;opacity:1.0;" x1="603.073" x2="603.073" y1="600.785" y2="720.121"/>
  <line id="left-margin-Ultralight-S" style="fill:none;stroke:#00AEEF;stroke-width:0.5;opacity:1.0;" x1="516.35" x2="516.35" y1="600.785" y2="720.121"/>
 </g>
 <g id="Symbols">
  <g id="Black-S" transform="matrix(1 0 0 1 2885.5 696)">
   <path class="SFSymbolsPreviewWireframe" d="M25 2.88086L70.8008 2.88086C80.3711 2.88086 86.0352-2.7832 86.0352-12.3535L86.0352-58.1543C86.0352-67.7246 80.3711-73.3887 70.8008-73.3887L25-73.3887C15.4297-73.3887 9.76562-67.7246 9.76562-58.1543L9.76562-12.3535C9.76562-2.7832 15.4297 2.88086 25 2.88086ZM30.3582-11.4915L65.4048-11.4915C70.4695-11.4915 73.4804-14.5084 73.4804-19.5342L73.4804-37.4395C73.4804-41.561 71.3513-44.9247 68.0259-47.0883L53.8809-56.2893C49.6785-59.0133 46.1702-59.0133 41.9677-56.2893L27.7758-47.0883C24.4476-44.9278 22.3215-41.561 22.3215-37.4395L22.3215-19.5342C22.3215-14.5084 25.3324-11.4915 30.3582-11.4915ZM30.9975-18.8088C30.1214-18.8088 29.6373-19.2959 29.6373-20.1645L29.6373-37.2893C29.6373-38.8742 30.3184-40.0115 31.5535-40.8009L45.7395-50.0005C47.279-50.997 48.5711-50.997 50.1091-50.0005L64.2484-40.8009C65.4807-40.0085 66.1647-38.8742 66.1647-37.2893L66.1647-20.166C66.1647-19.2959 65.6806-18.8088 64.8061-18.8088L30.9975-18.8088ZM47.9047-35.655C46.0526-35.655 44.7563-35.0969 43.1235-33.6181L25.9962-18.2016L30.2251-13.9438L46.8832-28.9978C47.2197-29.2885 47.5379-29.4687 47.9047-29.4687C48.2702-29.4687 48.5883-29.2885 48.9248-28.9978L65.5829-13.9438L69.8145-18.2016L52.686-33.6181C51.0517-35.0969 49.7554-35.655 47.9047-35.655ZM30.8743-43.286L26.6105-39.0327L39.6715-25.9657L44.0465-30.1139L30.8743-43.286ZM64.9262-43.2845L51.7556-30.1139L56.1306-25.9657L69.1902-39.0312L64.9262-43.2845ZM33.6734-35.9902L33.6734-54.416C33.6734-56.146 35.0759-57.5485 36.8059-57.5485L58.7909-57.5485C60.5209-57.5485 61.9234-56.146 61.9234-54.416L61.9234-35.9902L61.9234-35.9902L54.0871-28.7201L50.3812-31.8563C48.8254-33.169 46.543-33.144 45.0164-31.7977L41.5358-28.7201L41.5358-28.7201L33.6734-35.9902ZM58.7909-60.6375C62.2269-60.6375 65.0124-57.852 65.0124-54.416L65.0124-35.9902C65.0124-35.1343 64.6572-34.3167 64.0316-33.7324L56.1952-26.4624C55.0513-25.3943 53.2894-25.3504 52.0937-26.3603L48.3879-29.4965C48.0015-29.8214 47.4355-29.8141 47.0577-29.4792L43.5771-26.4018C42.3851-25.3522 40.5915-25.3776 39.4296-26.4604L31.5672-33.7305C30.9403-34.3149 30.5844-35.1333 30.5844-35.9902L30.5844-54.416C30.5844-57.852 33.3698-60.6375 36.8059-60.6375L58.7909-60.6375ZM58.7909-54.4595L36.8059-54.4595C36.7818-54.4595 36.7624-54.44 36.7624-54.416L36.7624-37.3336L41.5949-32.8879L42.9751-34.116C45.6062-36.4348 49.517-36.5145 52.2379-34.3289L52.3745-34.2162L53.9839-32.8505L58.8344-37.3325L58.8344-54.416C58.8344-54.4271 58.8344-54.4382 58.8286-54.4552L58.7909-54.4595ZM44.9704-39.3938L47.8114-41.4873L50.6549-39.3938C51.4853-38.7949 52.5097-39.2668 52.0884-40.4585L50.9913-43.7945L53.8287-45.8198C54.4985-46.3313 54.4859-47.5708 53.2651-47.5708L49.7616-47.5254L48.7077-50.8876C48.3486-51.9367 47.2766-51.9367 46.9163-50.8876L45.8624-47.5254L42.3374-47.5708C41.1621-47.5708 41.0584-46.3313 41.7737-45.8198L44.6315-43.7717L43.5128-40.4585C43.1143-39.3578 44.1172-38.7721 44.9704-39.3938Z"/>
  </g>
  <g id="Regular-S" transform="matrix(1 0 0 1 1404.51 696)">
   <path class="SFSymbolsPreviewWireframe" d="M22.2168 0.390625L68.457 0.390625C76.8066 0.390625 80.9082-3.71094 80.9082-11.9141L80.9082-58.4961C80.9082-66.6992 76.8066-70.8008 68.457-70.8008L22.2168-70.8008C13.916-70.8008 9.76562-66.6992 9.76562-58.4961L9.76562-11.9141C9.76562-3.71094 13.916 0.390625 22.2168 0.390625ZM28.0801-12.3418L62.9842-12.3418C67.1256-12.3418 69.598-14.788 69.598-19.2909L69.598-37.8754C69.598-41.1585 68.3896-43.4143 65.9545-45.0698L50.2576-55.8345C46.6771-58.2527 44.0066-58.2527 40.4262-55.8345L24.7187-45.0698C22.2821-43.416 21.0753-41.1585 21.0753-37.8754L21.0753-19.2909C21.0753-14.788 23.5477-12.3418 28.0801-12.3418ZM28.2602-17.374C26.8991-17.374 26.1214-18.1239 26.1214-19.5546L26.1214-38.1761C26.1214-39.4719 26.6081-40.3742 27.5318-40.991L43.4422-51.7992C44.8192-52.7535 45.8507-52.7535 47.2416-51.7992L63.1415-40.991C64.0636-40.3726 64.5518-39.4719 64.5518-38.1761L64.5518-19.5407C64.5518-18.1239 63.7742-17.374 62.3991-17.374L28.2602-17.374ZM45.3313-34.6562C43.8134-34.6562 42.5407-34.1371 41.2017-32.934L23.6044-17.0726L26.7049-13.9599L43.8874-29.4502C44.3371-29.8526 44.8245-30.0693 45.3313-30.0693C45.852-30.0693 46.3394-29.8526 46.7892-29.4502L63.9716-13.9599L67.0737-17.0726L49.4609-32.934C48.1358-34.1371 46.8631-34.6562 45.3313-34.6562ZM27.1181-42.9265L24.0023-39.8015L37.2304-26.5701L40.4071-29.6374L27.1181-42.9265ZM63.5691-42.9403L50.2661-29.6374L53.4429-26.5701L66.685-39.8154L63.5691-42.9403ZM31.2896-35.6311L31.2896-54.5075C31.2896-56.2038 32.6648-57.579 34.3611-57.579L56.4681-57.579C58.1644-57.579 59.5396-56.2038 59.5396-54.5075L59.5396-35.6311L59.5396-35.6311L51.5923-28.2195L48.1765-31.2553C46.5293-32.7226 44.0451-32.7275 42.392-31.2664L38.9496-28.2195L38.9496-28.2195L31.2896-35.6311ZM56.4681-59.8489C59.4181-59.8489 61.8095-57.4574 61.8095-54.5075L61.8095-35.6311C61.8095-35.0027 61.5489-34.4024 61.0899-33.9731L53.1427-26.5616C52.2905-25.7647 50.9731-25.7439 50.0962-26.5131L46.6804-29.5489C45.8913-30.2634 44.6909-30.2701 43.8938-29.5643L40.4514-26.5175C39.5658-25.736 38.2288-25.7645 37.3772-26.5828L29.7173-33.9944C29.2717-34.4222 29.0197-35.0133 29.0197-35.6311L29.0197-54.5075C29.0197-57.4574 31.4111-59.8489 34.3611-59.8489L56.4681-59.8489ZM56.4681-55.3091L34.3611-55.3091C33.9184-55.3091 33.5595-54.9502 33.5595-54.5075L33.5595-36.5981L39.015-31.3048L40.8902-32.9684C43.3566-35.1471 47.0393-35.1813 49.5435-33.0735L49.6726-32.9618L51.5432-31.2818L57.2697-36.6167L57.2697-54.5075C57.2697-54.9281 56.9455-55.273 56.5335-55.3058L56.4681-55.3091ZM42.3442-38.3998L45.4319-40.6361L48.4969-38.3998C49.2661-37.8381 50.199-38.3242 49.835-39.3765L48.6391-42.936L51.7607-45.1672C52.4982-45.7045 52.2936-46.7301 51.2673-46.7301L47.4065-46.711L46.2523-50.2937C45.9496-51.2176 44.9155-51.2176 44.6002-50.2937L43.4459-46.711L39.5643-46.7301C38.5571-46.7301 38.3143-45.7045 39.0709-45.1672L42.2246-42.9264L41.0078-39.3765C40.6534-38.3623 41.5655-37.8285 42.3442-38.3998Z"/>
  </g>
  <g id="Ultralight-S" transform="matrix(1 0 0 1 516.35 696)">
   <path class="SFSymbolsPreviewWireframe" d="M19.7647-1.65282L66.9585-1.65282C73.4917-1.65282 76.9576-5.20946 76.9576-11.6416L76.9576-58.8594C76.9576-65.2915 73.4917-68.8482 66.9585-68.8482L19.7647-68.8482C13.2349-68.8482 9.76562-65.3823 9.76562-58.8594L9.76562-11.6416C9.76562-5.11864 13.2349-1.65282 19.7647-1.65282ZM26.2289-13.4366L60.7599-13.4366C64.054-13.4366 65.9421-15.2902 65.9421-18.845L65.9421-38.9109C65.9421-41.7836 65.549-42.8787 63.3969-44.3021L46.5036-55.491C44.1082-57.1026 42.3884-57.1026 39.9929-55.491L23.3256-44.3021C21.188-42.8642 20.7803-41.7836 20.7803-38.9109L20.7803-18.845C20.7803-15.2902 22.6685-13.4366 26.2289-13.4366ZM26.1975-15.3466C23.9604-15.3466 22.7004-16.5866 22.7004-18.8738L22.7004-39.1472C22.7004-41.1048 22.9415-41.8373 24.451-42.8249L41.1868-54.0294C42.6865-55.0435 43.8-55.0435 45.3098-54.0294L62.2715-42.8249C63.7953-41.8517 64.022-41.1048 64.022-39.1472L64.022-18.8637C64.022-16.5866 62.762-15.3466 60.5149-15.3466L26.1975-15.3466ZM43.3418-33.6643C42.2306-33.6643 41.2301-33.2336 40.1934-32.3046L22.0764-16.0317L23.4159-14.6922L41.3825-30.8579C42.0492-31.4613 42.6739-31.7342 43.3418-31.7342C44.0198-31.7342 44.6445-31.4613 45.3111-30.8579L63.2778-14.6922L64.6029-16.0317L46.4902-32.3046C45.4636-33.2336 44.4631-33.6643 43.3418-33.6643ZM23.1032-42.5916L21.7924-41.2277L35.8621-27.1868L37.1972-28.4976L23.1032-42.5916ZM63.6293-42.6016L49.5252-28.4976L50.8604-27.1868L64.94-41.2377L63.6293-42.6016ZM29.3231-35.2063L29.3231-55.5654C29.3231-56.8722 30.3825-57.9316 31.6893-57.9316L55.2069-57.9316C56.5137-57.9316 57.5731-56.8722 57.5731-55.5654L57.5731-35.2063L57.5731-35.2063L50.2069-28.0232L45.6509-31.904C44.3164-33.0659 42.3289-33.0663 40.9937-31.9044L36.5062-28.0232L36.5062-28.0232L29.3231-35.2063ZM55.2069-58.932C57.0662-58.932 58.5735-57.4247 58.5735-55.5654L58.5735-35.2063C58.5735-34.9342 58.4626-34.6739 58.2665-34.4854L50.9003-27.3023C50.5249-26.9414 49.9355-26.9289 49.5452-27.2733L44.9893-31.1542C44.0312-31.9835 42.6087-31.9823 41.6518-31.1511L37.1643-27.2699C36.768-26.9236 36.171-26.9437 35.7988-27.3158L28.6157-34.4989C28.4281-34.6865 28.3227-34.941 28.3227-35.2063L28.3227-55.5654C28.3227-57.4247 29.83-58.932 31.6893-58.932L55.2069-58.932ZM55.2069-56.9313L31.6893-56.9313C30.935-56.9313 30.3235-56.3198 30.3235-55.5654L30.3235-35.6204L36.5518-29.3921L40.3355-32.6577C42.011-34.1172 44.4888-34.1475 46.1968-32.7505L46.3126-32.6539L50.1775-29.3828L56.5727-35.6325L56.5727-55.5654C56.5727-56.2914 56.0063-56.8852 55.2912-56.9287L55.2069-56.9313ZM39.9972-38.2734L43.4563-40.7178L46.899-38.2734C47.3675-37.9214 47.9047-38.2235 47.7042-38.8342L46.3766-42.787L49.8601-45.236C50.3413-45.5734 50.1445-46.1636 49.564-46.1636L45.2523-46.1636L43.941-50.1017C43.7767-50.6191 43.124-50.6191 42.9633-50.1017L41.652-46.1636L37.3322-46.1636C36.7517-46.1636 36.5548-45.5734 37.0361-45.236L40.5359-42.787L39.2001-38.8342C38.9997-38.2235 39.5287-37.9214 39.9972-38.2734Z"/>
  </g>
 </g>
 <g id="LayerTree">
  <g class="monochrome-0 multicolor-0:tintColor hierarchical-0:tertiary"/>
  <g class="monochrome-1 multicolor-1:white hierarchical-1:primary">
   <g class="shapeGroupLayer-0"/>
   <g class="shapeGroupLayer-1"/>
   <g class="shapeGroupLayer-2"/>
   <g class="shapeGroupLayer-3"/>
  </g>
 </g>
</svg>
