<?xml version="1.0" encoding="UTF-8"?>
<!--Generator: Apple Native CoreSVG 232.5-->
<!DOCTYPE svg
PUBLIC "-//W3C//DTD SVG 1.1//EN"
       "http://www.w3.org/Graphics/SVG/1.1/DTD/svg11.dtd">
<svg version="1.1" xmlns="http://www.w3.org/2000/svg" xmlns:xlink="http://www.w3.org/1999/xlink" width="3300" height="2200">
 <!--glyph: "", point size: 100.0, font version: "19.2d2e1", template writer version: "128"-->
 <style>.monochrome-0 {-sfsymbols-motion-group:0}

.multicolor-0:tintColor {-sfsymbols-motion-group:0}

.hierarchical-0:primary {-sfsymbols-motion-group:0}

.SFSymbolsPreviewWireframe {fill:none;opacity:1.0;stroke:black;stroke-width:0.5}
</style>
 <g id="Notes">
  <rect height="2200" id="artboard" style="fill:white;opacity:1" width="3300" x="0" y="0"/>
  <line style="fill:none;stroke:black;opacity:1;stroke-width:0.5;" x1="263" x2="3036" y1="292" y2="292"/>
  <text style="stroke:none;fill:black;font-family:sans-serif;font-size:13;font-weight:bold;" transform="matrix(1 0 0 1 263 322)">Weight/Scale Variations</text>
  <text style="stroke:none;fill:black;font-family:sans-serif;font-size:13;text-anchor:middle;" transform="matrix(1 0 0 1 559.711 322)">Ultralight</text>
  <text style="stroke:none;fill:black;font-family:sans-serif;font-size:13;text-anchor:middle;" transform="matrix(1 0 0 1 856.422 322)">Thin</text>
  <text style="stroke:none;fill:black;font-family:sans-serif;font-size:13;text-anchor:middle;" transform="matrix(1 0 0 1 1153.13 322)">Light</text>
  <text style="stroke:none;fill:black;font-family:sans-serif;font-size:13;text-anchor:middle;" transform="matrix(1 0 0 1 1449.84 322)">Regular</text>
  <text style="stroke:none;fill:black;font-family:sans-serif;font-size:13;text-anchor:middle;" transform="matrix(1 0 0 1 1746.56 322)">Medium</text>
  <text style="stroke:none;fill:black;font-family:sans-serif;font-size:13;text-anchor:middle;" transform="matrix(1 0 0 1 2043.27 322)">Semibold</text>
  <text style="stroke:none;fill:black;font-family:sans-serif;font-size:13;text-anchor:middle;" transform="matrix(1 0 0 1 2339.98 322)">Bold</text>
  <text style="stroke:none;fill:black;font-family:sans-serif;font-size:13;text-anchor:middle;" transform="matrix(1 0 0 1 2636.69 322)">Heavy</text>
  <text style="stroke:none;fill:black;font-family:sans-serif;font-size:13;text-anchor:middle;" transform="matrix(1 0 0 1 2933.4 322)">Black</text>
  <line style="fill:none;stroke:black;opacity:1;stroke-width:0.5;" x1="263" x2="3036" y1="1903" y2="1903"/>
  <g transform="matrix(0.2 0 0 0.2 263 1933)">
   <path d="m46.2402 4.15039c21.5332 0 39.4531-17.8711 39.4531-39.4043s-17.9688-39.4043-39.502-39.4043c-21.4844 0-39.3555 17.8711-39.3555 39.4043s17.9199 39.4043 39.4043 39.4043Zm0-7.42188c-17.7246 0-31.8848-14.209-31.8848-31.9824s14.1113-31.9824 31.8359-31.9824c17.7734 0 32.0312 14.209 32.0312 31.9824s-14.209 31.9824-31.9824 31.9824Zm-17.9688-31.9824c0 2.14844 1.51367 3.61328 3.75977 3.61328h10.498v10.5957c0 2.19727 1.46484 3.71094 3.61328 3.71094 2.24609 0 3.71094-1.51367 3.71094-3.71094v-10.5957h10.5957c2.19727 0 3.71094-1.46484 3.71094-3.61328 0-2.19727-1.51367-3.71094-3.71094-3.71094h-10.5957v-10.5469c0-2.24609-1.46484-3.75977-3.71094-3.75977-2.14844 0-3.61328 1.51367-3.61328 3.75977v10.5469h-10.498c-2.24609 0-3.75977 1.51367-3.75977 3.71094Z"/>
  </g>
  <g transform="matrix(0.2 0 0 0.2 281.506 1933)">
   <path d="m58.5449 14.5508c27.2461 0 49.8047-22.6074 49.8047-49.8047 0-27.2461-22.6074-49.8047-49.8535-49.8047-27.1973 0-49.7559 22.5586-49.7559 49.8047 0 27.1973 22.6074 49.8047 49.8047 49.8047Zm0-8.30078c-23.0469 0-41.4551-18.457-41.4551-41.5039s18.3594-41.5039 41.4062-41.5039 41.5527 18.457 41.5527 41.5039-18.457 41.5039-41.5039 41.5039Zm-22.6562-41.5039c0 2.39258 1.66016 4.00391 4.15039 4.00391h14.3555v14.4043c0 2.44141 1.66016 4.15039 4.05273 4.15039 2.44141 0 4.15039-1.66016 4.15039-4.15039v-14.4043h14.4043c2.44141 0 4.15039-1.61133 4.15039-4.00391 0-2.44141-1.70898-4.15039-4.15039-4.15039h-14.4043v-14.3555c0-2.49023-1.70898-4.19922-4.15039-4.19922-2.39258 0-4.05273 1.70898-4.05273 4.19922v14.3555h-14.3555c-2.49023 0-4.15039 1.70898-4.15039 4.15039Z"/>
  </g>
  <g transform="matrix(0.2 0 0 0.2 304.924 1933)">
   <path d="m74.8535 28.3203c34.8145 0 63.623-28.8086 63.623-63.5742 0-34.8145-28.8574-63.623-63.6719-63.623-34.7656 0-63.5254 28.8086-63.5254 63.623 0 34.7656 28.8086 63.5742 63.5742 63.5742Zm0-9.08203c-30.1758 0-54.4434-24.3164-54.4434-54.4922 0-30.2246 24.2188-54.4922 54.3945-54.4922 30.2246 0 54.541 24.2676 54.541 54.4922 0 30.1758-24.2676 54.4922-54.4922 54.4922Zm-28.8574-54.4922c0 2.58789 1.85547 4.39453 4.58984 4.39453h19.7266v19.7754c0 2.68555 1.85547 4.58984 4.44336 4.58984 2.68555 0 4.54102-1.85547 4.54102-4.58984v-19.7754h19.7754c2.68555 0 4.58984-1.80664 4.58984-4.39453 0-2.73438-1.85547-4.58984-4.58984-4.58984h-19.7754v-19.7266c0-2.73438-1.85547-4.63867-4.54102-4.63867-2.58789 0-4.44336 1.9043-4.44336 4.63867v19.7266h-19.7266c-2.73438 0-4.58984 1.85547-4.58984 4.58984Z"/>
  </g>
  <text style="stroke:none;fill:black;font-family:sans-serif;font-size:13;font-weight:bold;" transform="matrix(1 0 0 1 263 1953)">Design Variations</text>
  <text style="stroke:none;fill:black;font-family:sans-serif;font-size:13;" transform="matrix(1 0 0 1 263 1971)">Symbols are supported in up to nine weights and three scales.</text>
  <text style="stroke:none;fill:black;font-family:sans-serif;font-size:13;" transform="matrix(1 0 0 1 263 1989)">For optimal layout with text and other symbols, vertically align</text>
  <text style="stroke:none;fill:black;font-family:sans-serif;font-size:13;" transform="matrix(1 0 0 1 263 2007)">symbols with the adjacent text.</text>
  <line style="fill:none;stroke:#00AEEF;stroke-width:0.5;opacity:1.0;" x1="776" x2="776" y1="1919" y2="1933"/>
  <g transform="matrix(0.2 0 0 0.2 776 1933)">
   <path d="m16.5527 0.78125c2.58789 0 3.85742-0.976562 4.78516-3.71094l6.29883-17.2363h28.8086l6.29883 17.2363c0.927734 2.73438 2.19727 3.71094 4.73633 3.71094 2.58789 0 4.24805-1.5625 4.24805-4.00391 0-0.830078-0.146484-1.61133-0.537109-2.63672l-22.9004-60.9863c-1.12305-2.97852-3.125-4.49219-6.25-4.49219-3.02734 0-5.07812 1.46484-6.15234 4.44336l-22.9004 61.084c-0.390625 1.02539-0.537109 1.80664-0.537109 2.63672 0 2.44141 1.5625 3.95508 4.10156 3.95508Zm13.4766-28.3691 11.8652-32.8613h0.244141l11.8652 32.8613Z"/>
  </g>
  <line style="fill:none;stroke:#00AEEF;stroke-width:0.5;opacity:1.0;" x1="792.836" x2="792.836" y1="1919" y2="1933"/>
  <text style="stroke:none;fill:black;font-family:sans-serif;font-size:13;font-weight:bold;" transform="matrix(1 0 0 1 776 1953)">Margins</text>
  <text style="stroke:none;fill:black;font-family:sans-serif;font-size:13;" transform="matrix(1 0 0 1 776 1971)">Leading and trailing margins on the left and right side of each symbol</text>
  <text style="stroke:none;fill:black;font-family:sans-serif;font-size:13;" transform="matrix(1 0 0 1 776 1989)">can be adjusted by modifying the x-location of the margin guidelines.</text>
  <text style="stroke:none;fill:black;font-family:sans-serif;font-size:13;" transform="matrix(1 0 0 1 776 2007)">Modifications are automatically applied proportionally to all</text>
  <text style="stroke:none;fill:black;font-family:sans-serif;font-size:13;" transform="matrix(1 0 0 1 776 2025)">scales and weights.</text>
  <g transform="matrix(0.2 0 0 0.2 1289 1933)">
   <path d="m14.209 9.32617 8.49609 8.54492c4.29688 4.3457 9.22852 4.05273 13.8672-1.07422l53.4668-58.9355-4.83398-4.88281-53.0762 58.3984c-1.75781 2.00195-3.41797 2.49023-5.76172 0.146484l-5.85938-5.81055c-2.34375-2.29492-1.80664-4.00391 0.195312-5.81055l57.373-54.0039-4.88281-4.83398-57.959 54.4434c-4.93164 4.58984-5.32227 9.47266-1.02539 13.8184Zm32.0801-90.9668c-2.09961 2.05078-2.24609 4.93164-1.07422 6.88477 1.17188 1.80664 3.4668 2.97852 6.68945 2.14844 7.32422-1.70898 14.9414-2.00195 22.0703 2.68555l-2.92969 7.27539c-1.70898 4.15039-0.830078 7.08008 1.85547 9.81445l11.4746 11.5723c2.44141 2.44141 4.49219 2.53906 7.32422 2.05078l5.32227-0.976562 3.32031 3.36914-0.195312 2.7832c-0.195312 2.49023 0.439453 4.39453 2.88086 6.78711l3.80859 3.71094c2.39258 2.39258 5.46875 2.53906 7.8125 0.195312l14.5508-14.5996c2.34375-2.34375 2.24609-5.32227-0.146484-7.71484l-3.85742-3.80859c-2.39258-2.39258-4.24805-3.17383-6.64062-2.97852l-2.88086 0.244141-3.22266-3.17383 1.2207-5.61523c0.634766-2.83203-0.146484-5.0293-3.07617-7.95898l-10.9863-10.9375c-16.6992-16.6016-38.8672-16.2109-53.3203-1.75781Zm7.4707 1.85547c12.1582-8.88672 28.6133-7.37305 39.7461 3.75977l12.1582 12.0605c1.17188 1.17188 1.36719 2.09961 1.02539 3.80859l-1.61133 7.42188 7.51953 7.42188 4.93164-0.292969c1.26953-0.0488281 1.66016 0.0488281 2.63672 1.02539l2.88086 2.88086-12.207 12.207-2.88086-2.88086c-0.976562-0.976562-1.12305-1.36719-1.07422-2.68555l0.341797-4.88281-7.4707-7.42188-7.61719 1.26953c-1.61133 0.341797-2.34375 0.195312-3.56445-0.976562l-10.0098-10.0098c-1.26953-1.17188-1.41602-2.00195-0.634766-3.85742l4.39453-10.4492c-7.8125-7.27539-17.9688-10.4004-28.125-7.42188-0.78125 0.195312-1.07422-0.439453-0.439453-0.976562Z"/>
  </g>
  <text style="stroke:none;fill:black;font-family:sans-serif;font-size:13;font-weight:bold;" transform="matrix(1 0 0 1 1289 1953)">Exporting</text>
  <text style="stroke:none;fill:black;font-family:sans-serif;font-size:13;" transform="matrix(1 0 0 1 1289 1971)">Symbols should be outlined when exporting to ensure the</text>
  <text style="stroke:none;fill:black;font-family:sans-serif;font-size:13;" transform="matrix(1 0 0 1 1289 1989)">design is preserved when submitting to Xcode.</text>
  <text id="template-version" style="stroke:none;fill:black;font-family:sans-serif;font-size:13;text-anchor:end;" transform="matrix(1 0 0 1 3036 1933)">Template v.5.0</text>
  <text style="stroke:none;fill:black;font-family:sans-serif;font-size:13;text-anchor:end;" transform="matrix(1 0 0 1 3036 1951)">Requires Xcode 15 or greater</text>
  <text id="descriptive-name" style="stroke:none;fill:black;font-family:sans-serif;font-size:13;text-anchor:end;" transform="matrix(1 0 0 1 3036 1969)">Generated from xabber.globe.connected</text>
  <text style="stroke:none;fill:black;font-family:sans-serif;font-size:13;text-anchor:end;" transform="matrix(1 0 0 1 3036 1987)">Typeset at 100.0 points</text>
  <text style="stroke:none;fill:black;font-family:sans-serif;font-size:13;" transform="matrix(1 0 0 1 263 726)">Small</text>
  <text style="stroke:none;fill:black;font-family:sans-serif;font-size:13;" transform="matrix(1 0 0 1 263 1156)">Medium</text>
  <text style="stroke:none;fill:black;font-family:sans-serif;font-size:13;" transform="matrix(1 0 0 1 263 1586)">Large</text>
 </g>
 <g id="Guides">
  <g id="H-reference" style="fill:#27AAE1;stroke:none;" transform="matrix(1 0 0 1 339 696)">
   <path d="M0.993654 0L3.63775 0L29.3281-67.1323L30.0303-67.1323L30.0303-70.459L28.1226-70.459ZM11.6885-24.4799L46.9815-24.4799L46.2315-26.7285L12.4385-26.7285ZM55.1196 0L57.7637 0L30.6382-70.459L29.4326-70.459L29.4326-67.1323Z"/>
  </g>
  <line id="Baseline-S" style="fill:none;stroke:#27AAE1;opacity:1;stroke-width:0.5;" x1="263" x2="3036" y1="696" y2="696"/>
  <line id="Capline-S" style="fill:none;stroke:#27AAE1;opacity:1;stroke-width:0.5;" x1="263" x2="3036" y1="625.541" y2="625.541"/>
  <g id="H-reference" style="fill:#27AAE1;stroke:none;" transform="matrix(1 0 0 1 339 1126)">
   <path d="M0.993654 0L3.63775 0L29.3281-67.1323L30.0303-67.1323L30.0303-70.459L28.1226-70.459ZM11.6885-24.4799L46.9815-24.4799L46.2315-26.7285L12.4385-26.7285ZM55.1196 0L57.7637 0L30.6382-70.459L29.4326-70.459L29.4326-67.1323Z"/>
  </g>
  <line id="Baseline-M" style="fill:none;stroke:#27AAE1;opacity:1;stroke-width:0.5;" x1="263" x2="3036" y1="1126" y2="1126"/>
  <line id="Capline-M" style="fill:none;stroke:#27AAE1;opacity:1;stroke-width:0.5;" x1="263" x2="3036" y1="1055.54" y2="1055.54"/>
  <g id="H-reference" style="fill:#27AAE1;stroke:none;" transform="matrix(1 0 0 1 339 1556)">
   <path d="M0.993654 0L3.63775 0L29.3281-67.1323L30.0303-67.1323L30.0303-70.459L28.1226-70.459ZM11.6885-24.4799L46.9815-24.4799L46.2315-26.7285L12.4385-26.7285ZM55.1196 0L57.7637 0L30.6382-70.459L29.4326-70.459L29.4326-67.1323Z"/>
  </g>
  <line id="Baseline-L" style="fill:none;stroke:#27AAE1;opacity:1;stroke-width:0.5;" x1="263" x2="3036" y1="1556" y2="1556"/>
  <line id="Capline-L" style="fill:none;stroke:#27AAE1;opacity:1;stroke-width:0.5;" x1="263" x2="3036" y1="1485.54" y2="1485.54"/>
  <line id="left-margin-Ultralight-S" style="fill:none;stroke:#00AEEF;stroke-width:0.5;opacity:1.0;" x1="519.618" x2="519.618" y1="600.785" y2="720.121"/>
  <line id="right-margin-Ultralight-S" style="fill:none;stroke:#00AEEF;stroke-width:0.5;opacity:1.0;" x1="599.804" x2="599.804" y1="600.785" y2="720.121"/>
  <line id="left-margin-Regular-S" style="fill:none;stroke:#00AEEF;stroke-width:0.5;opacity:1.0;" x1="1404.17" x2="1404.17" y1="600.785" y2="720.121"/>
  <line id="right-margin-Regular-S" style="fill:none;stroke:#00AEEF;stroke-width:0.5;opacity:1.0;" x1="1495.52" x2="1495.52" y1="600.785" y2="720.121"/>
  <line id="left-margin-Black-S" style="fill:none;stroke:#00AEEF;stroke-width:0.5;opacity:1.0;" x1="2879.96" x2="2879.96" y1="600.785" y2="720.121"/>
  <line id="right-margin-Black-S" style="fill:none;stroke:#00AEEF;stroke-width:0.5;opacity:1.0;" x1="2986.84" x2="2986.84" y1="600.785" y2="720.121"/>
 </g>
 <g id="Symbols">
  <g id="Black-S" transform="matrix(1 0 0 1 2879.96 696)">
   <path class="monochrome-0 multicolor-0:tintColor hierarchical-0:primary SFSymbolsPreviewWireframe" d="M47.9492 6.46875L58.9355 6.46875L58.9355-16.8223L47.9492-16.8223L47.9492 6.46875ZM15.2344 9.93555L91.6504 9.93555C94.6777 9.93555 97.1191 7.49414 97.1191 4.4668C97.1191 1.43945 94.6777-1.05078 91.6504-1.05078L15.2344-1.05078C12.207-1.05078 9.7656 1.43945 9.7656 4.4668C9.7656 7.49414 12.207 9.93555 15.2344 9.93555ZM53.418 15.6484C59.6191 15.6484 64.6484 10.6191 64.6484 4.41797C64.6484-1.7832 59.6191-6.8125 53.418-6.8125C47.2168-6.8125 42.1875-1.7832 42.1875 4.41797C42.1875 10.6191 47.2168 15.6484 53.418 15.6484ZM53.4381-16.2207C64.9616-16.2207 74.1412-31.3574 74.1412-50.1562C74.1412-69.0039 64.9616-84.1895 53.4381-84.1895C41.9147-84.1895 32.735-69.0039 32.735-50.1562C32.735-31.3574 41.9147-16.2207 53.4381-16.2207ZM53.4381-77.5488C60.3229-77.5488 67.11-64.0234 67.11-50.1562C67.11-36.3867 60.3229-22.8613 53.4381-22.8613C46.5534-22.8613 39.7662-36.2891 39.7662-50.1562C39.7662-64.0234 46.5534-77.5488 53.4381-77.5488ZM49.9713-83.7012L49.9713-16.9043L56.9049-16.9043L56.9049-83.7012L49.9713-83.7012ZM53.4381-41.5625C40.5963-41.5625 29.0241-38.5352 24.1412-33.7988L29.3659-29.4043C33.7604-32.5781 43.3307-34.6289 53.4381-34.6289C63.5455-34.6289 73.1159-32.5781 77.5104-29.4043L82.735-33.7988C77.8522-38.5352 66.2799-41.5625 53.4381-41.5625ZM87.276-53.7207L19.6002-53.7207L19.6002-46.7871L87.276-46.7871L87.276-53.7207ZM53.4381-58.75C66.2799-58.75 77.8522-61.7773 82.735-66.5137L77.5104-70.9082C73.1159-67.7344 63.5455-65.6836 53.4381-65.6836C43.3795-65.6836 33.858-67.7344 29.3659-70.9082L24.1412-66.5137C29.0241-61.7773 40.5963-58.75 53.4381-58.75ZM53.4381-8.21289C76.5827-8.21289 95.4303-27.0605 95.4303-50.2051C95.4303-73.3496 76.5827-92.1973 53.4381-92.1973C30.2936-92.1973 11.4459-73.3496 11.4459-50.2051C11.4459-27.0605 30.2936-8.21289 53.4381-8.21289ZM53.4381-18.9551C36.2506-18.9551 22.1881-33.0176 22.1881-50.2051C22.1881-67.3926 36.2506-81.4551 53.4381-81.4551C70.6256-81.4551 84.6881-67.3926 84.6881-50.2051C84.6881-33.0176 70.6256-18.9551 53.4381-18.9551Z"/>
  </g>
  <g id="Regular-S" transform="matrix(1 0 0 1 1404.17 696)">
   <path class="monochrome-0 multicolor-0:tintColor hierarchical-0:primary SFSymbolsPreviewWireframe" d="M42.1387 1.24219L49.1699 1.24219L49.1699-17.7578L42.1387-17.7578L42.1387 1.24219ZM10.222 4.80664L81.0762 4.80664C82.9805 4.80664 84.5918 3.24414 84.5918 1.29102C84.5918-0.61328 82.9805-2.22461 81.0762-2.22461L10.222-2.22461C8.31782-2.22461 6.70644-0.61328 6.70644 1.29102C6.70644 3.24414 8.31782 4.80664 10.222 4.80664ZM45.6543 10.666C50.8301 10.666 55.0293 6.4668 55.0293 1.33984C55.0293-3.83594 50.8301-8.0352 45.6543-8.0352C40.5273-8.0352 36.2793-3.83594 36.2793 1.33984C36.2793 6.4668 40.5273 10.666 45.6543 10.666ZM45.6502-14.3398C56.5877-14.3398 65.2303-30.4043 65.2303-51.1562C65.2303-72.0547 56.6366-88.168 45.6502-88.168C34.6639-88.168 26.119-72.0547 26.119-51.1562C26.119-30.4043 34.7127-14.3398 45.6502-14.3398ZM45.6502-82.8457C52.9256-82.8457 59.4686-68.002 59.4686-51.1562C59.4686-34.5059 52.9256-19.6621 45.6502-19.6621C38.4237-19.6621 31.8807-34.5059 31.8807-51.1562C31.8807-68.002 38.4237-82.8457 45.6502-82.8457ZM42.8182-87.6309L42.8182-15.0723L48.4823-15.0723L48.4823-87.6309L42.8182-87.6309ZM45.6502-37.4355C33.785-37.4355 23.1405-34.2617 17.8182-29.1348L22.1639-25.5703C27.1444-29.5742 35.3475-31.7715 45.6502-31.7715C56.0018-31.7715 64.1561-29.5742 69.1854-25.5703L73.5311-29.1348C68.16-34.2617 57.5643-37.4355 45.6502-37.4355ZM80.8065-54.0859L10.494-54.0859L10.494-48.4219L80.8065-48.4219L80.8065-54.0859ZM45.6502-64.877C57.5643-64.877 68.16-68.0508 73.5311-73.1777L69.1854-76.7422C64.1561-72.7383 56.0018-70.541 45.6502-70.541C35.3475-70.541 27.1444-72.7383 22.1639-76.7422L17.8182-73.1777C23.1405-68.0508 33.785-64.877 45.6502-64.877ZM45.6502-11.8496C67.1834-11.8496 85.1034-29.7207 85.1034-51.2539C85.1034-72.7871 67.1346-90.6582 45.6014-90.6582C24.117-90.6582 6.2459-72.7871 6.2459-51.2539C6.2459-29.7207 24.1659-11.8496 45.6502-11.8496ZM45.6502-17.709C27.3885-17.709 12.1541-32.9922 12.1541-51.2539C12.1541-69.5156 27.3397-84.7988 45.6014-84.7988C63.912-84.7988 79.1952-69.5156 79.1952-51.2539C79.1952-32.9922 63.9608-17.709 45.6502-17.709Z"/>
  </g>
  <g id="Ultralight-S" transform="matrix(1 0 0 1 519.618 696)">
   <path class="monochrome-0 multicolor-0:tintColor hierarchical-0:primary SFSymbolsPreviewWireframe" d="M38.96 0.65383L41.1778 0.65383L41.1778-12.3462L38.96-12.3462L38.96 0.65383ZM3.87448 1.31205L75.3121 1.31205C75.8995 1.31205 76.421 0.83939 76.421 0.24856C76.421-0.38426 75.8995-0.86035 75.3121-0.86035L3.87448-0.86035C3.24168-0.86035 2.7656-0.38426 2.7656 0.24856C2.7656 0.83939 3.24168 1.31205 3.87448 1.31205ZM40.0689 7.21684C43.7916 7.21684 46.8555 4.15287 46.8555 0.47903C46.8555-3.24364 43.7916-6.3076 40.0689-6.3076C36.3951-6.3076 33.3277-3.24364 33.3277 0.47903C33.3277 4.15287 36.3951 7.21684 40.0689 7.21684ZM40.0916-10.4307C49.3943-10.4307 58.3093-24.6333 58.3093-47.1562C58.3093-69.6894 49.3977-83.8955 40.0916-83.8955C30.7854-83.8955 21.8772-69.6894 21.8772-47.1562C21.8772-24.6333 30.7888-10.4307 40.0916-10.4307ZM40.0916-82.1606C48.6384-82.1606 56.0896-66.8174 56.0896-47.1562C56.0896-28.417 48.6384-12.1656 40.0916-12.1656C31.5481-12.1656 24.097-28.417 24.097-47.1562C24.097-66.8174 31.5481-82.1606 40.0916-82.1606ZM39.0305-83.313L39.0305-11.2085L41.1526-11.2085L41.1526-83.313L39.0305-83.313ZM40.0916-30.3477C28.7712-30.3477 19.1711-27.5825 13.7581-23.4546L15.3338-22.1152C20.7683-25.9375 29.1985-28.1802 40.0916-28.1802C50.988-28.1802 59.4148-25.9375 64.8528-22.1152L66.4285-23.4546C61.012-27.5825 51.4153-30.3477 40.0916-30.3477ZM76.0652-48.315L4.11792-48.315L4.11792-46.1929L76.0652-46.1929L76.0652-48.315ZM40.0916-63.9648C51.4153-63.9648 61.012-66.73 66.4285-70.8579L64.8528-72.1973C59.4148-68.375 50.988-66.1323 40.0916-66.1323C29.1985-66.1323 20.7683-68.375 15.3338-72.1973L13.7581-70.8579C19.1711-66.73 28.7712-63.9648 40.0916-63.9648ZM40.0916-10.0293C60.5349-10.0293 77.3196-26.8105 77.3196-47.2539C77.3196-67.6973 60.5315-84.4785 40.0881-84.4785C19.6028-84.4785 2.86692-67.6973 2.86692-47.2539C2.86692-26.8105 19.6062-10.0293 40.0916-10.0293ZM40.0916-12.1651C20.74-12.1651 5.00611-27.9024 5.00611-47.2539C5.00611-66.6055 20.7366-82.3428 40.0881-82.3428C59.3977-82.3428 75.1804-66.6055 75.1804-47.2539C75.1804-27.9024 59.4011-12.1651 40.0916-12.1651Z"/>
  </g>
 </g>
</svg>
