<?xml version="1.0" encoding="UTF-8"?>
<!--Generator: Apple Native CoreSVG 232.5-->
<!DOCTYPE svg
PUBLIC "-//W3C//DTD SVG 1.1//EN"
       "http://www.w3.org/Graphics/SVG/1.1/DTD/svg11.dtd">
<svg version="1.1" xmlns="http://www.w3.org/2000/svg" xmlns:xlink="http://www.w3.org/1999/xlink" width="3300" height="2200">
 <!--glyph: "", point size: 100.0, font version: "19.2d2e1", template writer version: "128"-->
 <style>.monochrome-0 {-sfsymbols-motion-group:1}
.monochrome-1 {-sfsymbols-motion-group:0}

.multicolor-0:tintColor {-sfsymbols-motion-group:1}
.multicolor-1:tintColor {-sfsymbols-motion-group:0}

.hierarchical-0:secondary {-sfsymbols-motion-group:1}
.hierarchical-1:primary {-sfsymbols-motion-group:0}

.SFSymbolsPreviewWireframe {fill:none;opacity:1.0;stroke:black;stroke-width:0.5}
</style>
 <g id="Notes">
  <rect height="2200" id="artboard" style="fill:white;opacity:1" width="3300" x="0" y="0"/>
  <line style="fill:none;stroke:black;opacity:1;stroke-width:0.5;" x1="263" x2="3036" y1="292" y2="292"/>
  <text style="stroke:none;fill:black;font-family:sans-serif;font-size:13;font-weight:bold;" transform="matrix(1 0 0 1 263 322)">Weight/Scale Variations</text>
  <text style="stroke:none;fill:black;font-family:sans-serif;font-size:13;text-anchor:middle;" transform="matrix(1 0 0 1 559.711 322)">Ultralight</text>
  <text style="stroke:none;fill:black;font-family:sans-serif;font-size:13;text-anchor:middle;" transform="matrix(1 0 0 1 856.422 322)">Thin</text>
  <text style="stroke:none;fill:black;font-family:sans-serif;font-size:13;text-anchor:middle;" transform="matrix(1 0 0 1 1153.13 322)">Light</text>
  <text style="stroke:none;fill:black;font-family:sans-serif;font-size:13;text-anchor:middle;" transform="matrix(1 0 0 1 1449.84 322)">Regular</text>
  <text style="stroke:none;fill:black;font-family:sans-serif;font-size:13;text-anchor:middle;" transform="matrix(1 0 0 1 1746.56 322)">Medium</text>
  <text style="stroke:none;fill:black;font-family:sans-serif;font-size:13;text-anchor:middle;" transform="matrix(1 0 0 1 2043.27 322)">Semibold</text>
  <text style="stroke:none;fill:black;font-family:sans-serif;font-size:13;text-anchor:middle;" transform="matrix(1 0 0 1 2339.98 322)">Bold</text>
  <text style="stroke:none;fill:black;font-family:sans-serif;font-size:13;text-anchor:middle;" transform="matrix(1 0 0 1 2636.69 322)">Heavy</text>
  <text style="stroke:none;fill:black;font-family:sans-serif;font-size:13;text-anchor:middle;" transform="matrix(1 0 0 1 2933.4 322)">Black</text>
  <line style="fill:none;stroke:black;opacity:1;stroke-width:0.5;" x1="263" x2="3036" y1="1903" y2="1903"/>
  <g transform="matrix(0.2 0 0 0.2 263 1933)">
   <path d="m46.2402 4.15039c21.5332 0 39.4531-17.8711 39.4531-39.4043s-17.9688-39.4043-39.502-39.4043c-21.4844 0-39.3555 17.8711-39.3555 39.4043s17.9199 39.4043 39.4043 39.4043Zm0-7.42188c-17.7246 0-31.8848-14.209-31.8848-31.9824s14.1113-31.9824 31.8359-31.9824c17.7734 0 32.0312 14.209 32.0312 31.9824s-14.209 31.9824-31.9824 31.9824Zm-17.9688-31.9824c0 2.14844 1.51367 3.61328 3.75977 3.61328h10.498v10.5957c0 2.19727 1.46484 3.71094 3.61328 3.71094 2.24609 0 3.71094-1.51367 3.71094-3.71094v-10.5957h10.5957c2.19727 0 3.71094-1.46484 3.71094-3.61328 0-2.19727-1.51367-3.71094-3.71094-3.71094h-10.5957v-10.5469c0-2.24609-1.46484-3.75977-3.71094-3.75977-2.14844 0-3.61328 1.51367-3.61328 3.75977v10.5469h-10.498c-2.24609 0-3.75977 1.51367-3.75977 3.71094Z"/>
  </g>
  <g transform="matrix(0.2 0 0 0.2 281.506 1933)">
   <path d="m58.5449 14.5508c27.2461 0 49.8047-22.6074 49.8047-49.8047 0-27.2461-22.6074-49.8047-49.8535-49.8047-27.1973 0-49.7559 22.5586-49.7559 49.8047 0 27.1973 22.6074 49.8047 49.8047 49.8047Zm0-8.30078c-23.0469 0-41.4551-18.457-41.4551-41.5039s18.3594-41.5039 41.4062-41.5039 41.5527 18.457 41.5527 41.5039-18.457 41.5039-41.5039 41.5039Zm-22.6562-41.5039c0 2.39258 1.66016 4.00391 4.15039 4.00391h14.3555v14.4043c0 2.44141 1.66016 4.15039 4.05273 4.15039 2.44141 0 4.15039-1.66016 4.15039-4.15039v-14.4043h14.4043c2.44141 0 4.15039-1.61133 4.15039-4.00391 0-2.44141-1.70898-4.15039-4.15039-4.15039h-14.4043v-14.3555c0-2.49023-1.70898-4.19922-4.15039-4.19922-2.39258 0-4.05273 1.70898-4.05273 4.19922v14.3555h-14.3555c-2.49023 0-4.15039 1.70898-4.15039 4.15039Z"/>
  </g>
  <g transform="matrix(0.2 0 0 0.2 304.924 1933)">
   <path d="m74.8535 28.3203c34.8145 0 63.623-28.8086 63.623-63.5742 0-34.8145-28.8574-63.623-63.6719-63.623-34.7656 0-63.5254 28.8086-63.5254 63.623 0 34.7656 28.8086 63.5742 63.5742 63.5742Zm0-9.08203c-30.1758 0-54.4434-24.3164-54.4434-54.4922 0-30.2246 24.2188-54.4922 54.3945-54.4922 30.2246 0 54.541 24.2676 54.541 54.4922 0 30.1758-24.2676 54.4922-54.4922 54.4922Zm-28.8574-54.4922c0 2.58789 1.85547 4.39453 4.58984 4.39453h19.7266v19.7754c0 2.68555 1.85547 4.58984 4.44336 4.58984 2.68555 0 4.54102-1.85547 4.54102-4.58984v-19.7754h19.7754c2.68555 0 4.58984-1.80664 4.58984-4.39453 0-2.73438-1.85547-4.58984-4.58984-4.58984h-19.7754v-19.7266c0-2.73438-1.85547-4.63867-4.54102-4.63867-2.58789 0-4.44336 1.9043-4.44336 4.63867v19.7266h-19.7266c-2.73438 0-4.58984 1.85547-4.58984 4.58984Z"/>
  </g>
  <text style="stroke:none;fill:black;font-family:sans-serif;font-size:13;font-weight:bold;" transform="matrix(1 0 0 1 263 1953)">Design Variations</text>
  <text style="stroke:none;fill:black;font-family:sans-serif;font-size:13;" transform="matrix(1 0 0 1 263 1971)">Symbols are supported in up to nine weights and three scales.</text>
  <text style="stroke:none;fill:black;font-family:sans-serif;font-size:13;" transform="matrix(1 0 0 1 263 1989)">For optimal layout with text and other symbols, vertically align</text>
  <text style="stroke:none;fill:black;font-family:sans-serif;font-size:13;" transform="matrix(1 0 0 1 263 2007)">symbols with the adjacent text.</text>
  <line style="fill:none;stroke:#00AEEF;stroke-width:0.5;opacity:1.0;" x1="776" x2="776" y1="1919" y2="1933"/>
  <g transform="matrix(0.2 0 0 0.2 776 1933)">
   <path d="m16.5527 0.78125c2.58789 0 3.85742-0.976562 4.78516-3.71094l6.29883-17.2363h28.8086l6.29883 17.2363c0.927734 2.73438 2.19727 3.71094 4.73633 3.71094 2.58789 0 4.24805-1.5625 4.24805-4.00391 0-0.830078-0.146484-1.61133-0.537109-2.63672l-22.9004-60.9863c-1.12305-2.97852-3.125-4.49219-6.25-4.49219-3.02734 0-5.07812 1.46484-6.15234 4.44336l-22.9004 61.084c-0.390625 1.02539-0.537109 1.80664-0.537109 2.63672 0 2.44141 1.5625 3.95508 4.10156 3.95508Zm13.4766-28.3691 11.8652-32.8613h0.244141l11.8652 32.8613Z"/>
  </g>
  <line style="fill:none;stroke:#00AEEF;stroke-width:0.5;opacity:1.0;" x1="792.836" x2="792.836" y1="1919" y2="1933"/>
  <text style="stroke:none;fill:black;font-family:sans-serif;font-size:13;font-weight:bold;" transform="matrix(1 0 0 1 776 1953)">Margins</text>
  <text style="stroke:none;fill:black;font-family:sans-serif;font-size:13;" transform="matrix(1 0 0 1 776 1971)">Leading and trailing margins on the left and right side of each symbol</text>
  <text style="stroke:none;fill:black;font-family:sans-serif;font-size:13;" transform="matrix(1 0 0 1 776 1989)">can be adjusted by modifying the x-location of the margin guidelines.</text>
  <text style="stroke:none;fill:black;font-family:sans-serif;font-size:13;" transform="matrix(1 0 0 1 776 2007)">Modifications are automatically applied proportionally to all</text>
  <text style="stroke:none;fill:black;font-family:sans-serif;font-size:13;" transform="matrix(1 0 0 1 776 2025)">scales and weights.</text>
  <g transform="matrix(0.2 0 0 0.2 1289 1933)">
   <path d="m14.209 9.32617 8.49609 8.54492c4.29688 4.3457 9.22852 4.05273 13.8672-1.07422l53.4668-58.9355-4.83398-4.88281-53.0762 58.3984c-1.75781 2.00195-3.41797 2.49023-5.76172 0.146484l-5.85938-5.81055c-2.34375-2.29492-1.80664-4.00391 0.195312-5.81055l57.373-54.0039-4.88281-4.83398-57.959 54.4434c-4.93164 4.58984-5.32227 9.47266-1.02539 13.8184Zm32.0801-90.9668c-2.09961 2.05078-2.24609 4.93164-1.07422 6.88477 1.17188 1.80664 3.4668 2.97852 6.68945 2.14844 7.32422-1.70898 14.9414-2.00195 22.0703 2.68555l-2.92969 7.27539c-1.70898 4.15039-0.830078 7.08008 1.85547 9.81445l11.4746 11.5723c2.44141 2.44141 4.49219 2.53906 7.32422 2.05078l5.32227-0.976562 3.32031 3.36914-0.195312 2.7832c-0.195312 2.49023 0.439453 4.39453 2.88086 6.78711l3.80859 3.71094c2.39258 2.39258 5.46875 2.53906 7.8125 0.195312l14.5508-14.5996c2.34375-2.34375 2.24609-5.32227-0.146484-7.71484l-3.85742-3.80859c-2.39258-2.39258-4.24805-3.17383-6.64062-2.97852l-2.88086 0.244141-3.22266-3.17383 1.2207-5.61523c0.634766-2.83203-0.146484-5.0293-3.07617-7.95898l-10.9863-10.9375c-16.6992-16.6016-38.8672-16.2109-53.3203-1.75781Zm7.4707 1.85547c12.1582-8.88672 28.6133-7.37305 39.7461 3.75977l12.1582 12.0605c1.17188 1.17188 1.36719 2.09961 1.02539 3.80859l-1.61133 7.42188 7.51953 7.42188 4.93164-0.292969c1.26953-0.0488281 1.66016 0.0488281 2.63672 1.02539l2.88086 2.88086-12.207 12.207-2.88086-2.88086c-0.976562-0.976562-1.12305-1.36719-1.07422-2.68555l0.341797-4.88281-7.4707-7.42188-7.61719 1.26953c-1.61133 0.341797-2.34375 0.195312-3.56445-0.976562l-10.0098-10.0098c-1.26953-1.17188-1.41602-2.00195-0.634766-3.85742l4.39453-10.4492c-7.8125-7.27539-17.9688-10.4004-28.125-7.42188-0.78125 0.195312-1.07422-0.439453-0.439453-0.976562Z"/>
  </g>
  <text style="stroke:none;fill:black;font-family:sans-serif;font-size:13;font-weight:bold;" transform="matrix(1 0 0 1 1289 1953)">Exporting</text>
  <text style="stroke:none;fill:black;font-family:sans-serif;font-size:13;" transform="matrix(1 0 0 1 1289 1971)">Symbols should be outlined when exporting to ensure the</text>
  <text style="stroke:none;fill:black;font-family:sans-serif;font-size:13;" transform="matrix(1 0 0 1 1289 1989)">design is preserved when submitting to Xcode.</text>
  <text id="template-version" style="stroke:none;fill:black;font-family:sans-serif;font-size:13;text-anchor:end;" transform="matrix(1 0 0 1 3036 1933)">Template v.5.0</text>
  <text style="stroke:none;fill:black;font-family:sans-serif;font-size:13;text-anchor:end;" transform="matrix(1 0 0 1 3036 1951)">Requires Xcode 15 or greater</text>
  <text id="descriptive-name" style="stroke:none;fill:black;font-family:sans-serif;font-size:13;text-anchor:end;" transform="matrix(1 0 0 1 3036 1969)">Generated from xabber.figure.exit</text>
  <text style="stroke:none;fill:black;font-family:sans-serif;font-size:13;text-anchor:end;" transform="matrix(1 0 0 1 3036 1987)">Typeset at 100.0 points</text>
  <text style="stroke:none;fill:black;font-family:sans-serif;font-size:13;" transform="matrix(1 0 0 1 263 726)">Small</text>
  <text style="stroke:none;fill:black;font-family:sans-serif;font-size:13;" transform="matrix(1 0 0 1 263 1156)">Medium</text>
  <text style="stroke:none;fill:black;font-family:sans-serif;font-size:13;" transform="matrix(1 0 0 1 263 1586)">Large</text>
 </g>
 <g id="Guides">
  <g id="H-reference" style="fill:#27AAE1;stroke:none;" transform="matrix(1 0 0 1 339 696)">
   <path d="M0.993654 0L3.63775 0L29.3281-67.1323L30.0303-67.1323L30.0303-70.459L28.1226-70.459ZM11.6885-24.4799L46.9815-24.4799L46.2315-26.7285L12.4385-26.7285ZM55.1196 0L57.7637 0L30.6382-70.459L29.4326-70.459L29.4326-67.1323Z"/>
  </g>
  <line id="Baseline-S" style="fill:none;stroke:#27AAE1;opacity:1;stroke-width:0.5;" x1="263" x2="3036" y1="696" y2="696"/>
  <line id="Capline-S" style="fill:none;stroke:#27AAE1;opacity:1;stroke-width:0.5;" x1="263" x2="3036" y1="625.541" y2="625.541"/>
  <g id="H-reference" style="fill:#27AAE1;stroke:none;" transform="matrix(1 0 0 1 339 1126)">
   <path d="M0.993654 0L3.63775 0L29.3281-67.1323L30.0303-67.1323L30.0303-70.459L28.1226-70.459ZM11.6885-24.4799L46.9815-24.4799L46.2315-26.7285L12.4385-26.7285ZM55.1196 0L57.7637 0L30.6382-70.459L29.4326-70.459L29.4326-67.1323Z"/>
  </g>
  <line id="Baseline-M" style="fill:none;stroke:#27AAE1;opacity:1;stroke-width:0.5;" x1="263" x2="3036" y1="1126" y2="1126"/>
  <line id="Capline-M" style="fill:none;stroke:#27AAE1;opacity:1;stroke-width:0.5;" x1="263" x2="3036" y1="1055.54" y2="1055.54"/>
  <g id="H-reference" style="fill:#27AAE1;stroke:none;" transform="matrix(1 0 0 1 339 1556)">
   <path d="M0.993654 0L3.63775 0L29.3281-67.1323L30.0303-67.1323L30.0303-70.459L28.1226-70.459ZM11.6885-24.4799L46.9815-24.4799L46.2315-26.7285L12.4385-26.7285ZM55.1196 0L57.7637 0L30.6382-70.459L29.4326-70.459L29.4326-67.1323Z"/>
  </g>
  <line id="Baseline-L" style="fill:none;stroke:#27AAE1;opacity:1;stroke-width:0.5;" x1="263" x2="3036" y1="1556" y2="1556"/>
  <line id="Capline-L" style="fill:none;stroke:#27AAE1;opacity:1;stroke-width:0.5;" x1="263" x2="3036" y1="1485.54" y2="1485.54"/>
  <line id="left-margin-Ultralight-S" style="fill:none;stroke:#00AEEF;stroke-width:0.5;opacity:1.0;" x1="516.239" x2="516.239" y1="600.785" y2="720.121"/>
  <line id="right-margin-Ultralight-S" style="fill:none;stroke:#00AEEF;stroke-width:0.5;opacity:1.0;" x1="603.184" x2="603.184" y1="600.785" y2="720.121"/>
  <line id="left-margin-Regular-S" style="fill:none;stroke:#00AEEF;stroke-width:0.5;opacity:1.0;" x1="1401.63" x2="1401.63" y1="600.785" y2="720.121"/>
  <line id="right-margin-Regular-S" style="fill:none;stroke:#00AEEF;stroke-width:0.5;opacity:1.0;" x1="1498.06" x2="1498.06" y1="600.785" y2="720.121"/>
  <line id="left-margin-Black-S" style="fill:none;stroke:#00AEEF;stroke-width:0.5;opacity:1.0;" x1="2880.1" x2="2880.1" y1="600.785" y2="720.121"/>
  <line id="right-margin-Black-S" style="fill:none;stroke:#00AEEF;stroke-width:0.5;opacity:1.0;" x1="2986.7" x2="2986.7" y1="600.785" y2="720.121"/>
 </g>
 <g id="Symbols">
  <g id="Black-S" transform="matrix(1 0 0 1 2880.1 696)">
   <path class="monochrome-0 multicolor-0:tintColor hierarchical-0:secondary SFSymbolsPreviewWireframe" d="M89.4168-98.0595C93.0067-98.0595 95.9168-95.1494 95.9168-91.5595L95.9168 4.08056C95.9168 7.67041 93.0067 10.5806 89.4168 10.5806C85.827 10.5806 82.9168 7.67041 82.9168 4.08056L82.9164-85.0595L22.3854-85.0595L22.3854 4.08056C22.3854 7.59237 19.6004 10.4537 16.1185 10.5765L15.8854 10.5806C12.2955 10.5806 9.3854 7.67041 9.3854 4.08056L9.3854-91.5595C9.3854-95.1494 12.2955-98.0595 15.8854-98.0595L89.4168-98.0595Z"/>
   <path class="monochrome-1 multicolor-1:tintColor hierarchical-1:primary SFSymbolsPreviewWireframe" d="M32.6906 7.51953L45.0441-7.12891C46.3624-8.69141 46.6554-9.13086 47.0949-10.6445L47.1925-10.9863L39.5265-20.5566L37.9152-13.0859L25.9034 1.17188C21.3136 6.64062 28.882 12.0605 32.6906 7.51953ZM61.4503 6.15234C64.4288 12.1582 73.4132 8.39844 70.1906 1.85547L61.841-15.0391C61.2062-16.3086 60.3761-17.627 59.4484-18.9941L54.4191-26.1719L54.6144-26.8555C55.8839-31.3477 56.6163-33.8867 56.9093-38.0859L57.7394-49.9512C58.1788-56.25 54.3214-60.6934 48.2667-60.6934C43.6769-60.6934 40.5031-58.3008 36.4992-54.3945L30.2003-48.2422C28.1495-46.1914 27.3195-44.3848 27.0753-41.4062L26.2941-31.6895C26.0499-28.8086 27.8077-26.709 30.4933-26.6113C33.2277-26.416 34.9855-28.1738 35.2296-31.1523L36.1085-41.4551L38.3546-43.457C38.9894-44.043 40.0148-43.75 39.9171-42.7246L39.3312-34.8145C38.9894-30.4199 39.8683-27.9297 43.3351-23.6328L51.6359-13.2324C52.3683-12.3047 52.5148-12.0117 52.9054-11.2305L61.4503 6.15234ZM76.3917-44.6777L67.3097-44.6777L62.6222-49.8047L61.7921-37.9883L62.0851-37.6953C63.5499-36.2305 64.9171-35.7422 67.6027-35.7422L76.3917-35.7422C79.3702-35.7422 81.3234-37.5 81.3234-40.1855C81.3234-42.8711 79.3214-44.6777 76.3917-44.6777ZM53.1984-63.1836C58.5695-63.1836 62.964-67.5781 62.964-72.9492C62.964-78.3203 58.5695-82.7148 53.1984-82.7148C47.8273-82.7148 43.4327-78.3203 43.4327-72.9492C43.4327-67.5781 47.8273-63.1836 53.1984-63.1836Z"/>
  </g>
  <g id="Regular-S" transform="matrix(1 0 0 1 1401.63 696)">
   <path class="monochrome-0 multicolor-0:tintColor hierarchical-0:secondary SFSymbolsPreviewWireframe" d="M82.085-91.3839C84.018-91.3839 85.585-89.8169 85.585-87.8839L85.585 4.19666C85.585 6.12965 84.018 7.69666 82.085 7.69666C80.152 7.69666 78.585 6.12965 78.585 4.19666L78.5845-84.3839L16.6985-84.3839L16.6985 4.19666C16.6985 6.06522 15.2342 7.59178 13.3906 7.69148L13.1985 7.69666C11.2655 7.69666 9.69853 6.12965 9.69853 4.19666L9.69853-87.8839C9.69853-89.8169 11.2655-91.3839 13.1985-91.3839L82.085-91.3839Z"/>
   <path class="monochrome-1 multicolor-1:tintColor hierarchical-1:primary SFSymbolsPreviewWireframe" d="M29.8691 4.83398L41.5391-9.0332C42.7109-10.4004 42.8574-10.7422 43.3457-12.1582L44.127-14.5996L37.8281-22.5586L35.9727-13.916L24.4492-0.244141C20.7871 4.15039 26.8418 8.49609 29.8691 4.83398ZM58.2383 3.66211C60.6309 8.59375 67.8574 5.56641 65.2695 0.244141L57.3105-15.8203C56.6758-17.041 55.8457-18.3594 55.1133-19.3848L50.1328-26.5137L50.4746-27.5391C51.8418-31.543 52.3301-33.9844 52.623-37.9395L53.4043-49.1699C53.7949-54.4922 50.6699-58.5938 45.1523-58.5938C41.002-58.5938 38.2676-56.4941 34.459-52.832L28.5508-46.9727C26.5488-45.0684 25.9629-43.457 25.7676-40.9668L25.0352-31.7871C24.8398-29.4434 26.1582-27.832 28.3066-27.7344C30.5039-27.5879 31.8711-28.8574 32.0664-31.3477L32.9453-41.4062L35.7285-43.9453C36.7539-44.873 38.0723-44.2383 38.0234-43.2617L37.3887-34.7656C37.0469-30.4199 38.0723-28.3691 41.002-24.6582L48.9121-14.7949C49.6934-13.8184 49.7422-13.4277 50.084-12.793L58.2383 3.66211ZM71.7637-43.457L62.8281-43.457L57.3105-49.5605L56.627-40.0879L58.7266-38.0371C59.9473-36.7676 61.0703-36.377 63.4141-36.377L71.7637-36.377C74.1562-36.377 75.6699-37.7441 75.6699-39.8926C75.6699-42.041 74.1074-43.457 71.7637-43.457ZM49.498-62.0605C54.1855-62.0605 57.9941-65.8691 57.9941-70.5566C57.9941-75.2441 54.1855-79.0527 49.498-79.0527C44.8105-79.0527 41.002-75.2441 41.002-70.5566C41.002-65.8691 44.8105-62.0605 49.498-62.0605Z"/>
  </g>
  <g id="Ultralight-S" transform="matrix(1 0 0 1 516.239 696)">
   <path class="monochrome-0 multicolor-0:tintColor hierarchical-0:secondary SFSymbolsPreviewWireframe" d="M75.0403-86.6751C75.8688-86.6751 76.5403-86.0036 76.5403-85.1751L76.5403 1.17204C76.5403 2.00047 75.8688 2.67204 75.0403 2.67204C74.2119 2.67204 73.5403 2.00047 73.5403 1.17204L73.5394-83.6751L12.8084-83.6751L12.8084 1.17204C12.8084 1.95173 12.2135 2.59249 11.4529 2.66517L11.3084 2.67204C10.48 2.67204 9.80841 2.00047 9.80841 1.17204L9.80841-85.1751C9.80841-86.0036 10.48-86.6751 11.3084-86.6751L75.0403-86.6751Z"/>
   <path class="monochrome-1 multicolor-1:tintColor hierarchical-1:primary SFSymbolsPreviewWireframe" d="M25.1929 1.6553L35.8638-11.0766C36.8995-12.353 37.0914-12.604 37.4888-13.9292L38.4971-17.188L33.0611-24.0571L31.1602-15.3237L20.545-2.74168C17.3369 1.10793 22.5743 4.8179 25.1929 1.6553ZM51.564 0.665063C53.6841 4.87015 59.9571 2.25149 57.6417-2.34422L50.3638-17.0918C49.8653-18.1309 49.0806-19.2222 48.3482-20.293L43.6856-26.9224L44.0274-27.9932C45.213-31.6792 45.7466-33.8936 45.9942-37.4854L46.73-47.7622C47.0753-52.7666 44.0865-56.2324 39.3409-56.2324C35.6446-56.2324 33.1827-54.3599 29.7373-50.9702L24.2832-45.565C22.6446-43.9331 21.9678-42.6397 21.7725-40.2856L21.1309-31.8325C20.981-29.7612 22.0723-28.3769 23.9483-28.3247C25.8731-28.1782 26.9678-29.2661 27.1631-31.4385L27.9512-40.7705L30.6436-43.1733C31.6236-44.0557 33.169-43.5571 33.0748-42.3535L32.4854-34.5386C32.189-30.6016 33.0782-28.7778 35.7354-25.3848L42.9644-16.3843C43.7457-15.4531 43.7945-15.0625 44.0909-14.4731L51.564 0.665063ZM63.7725-42.2764L55.4727-42.2764L49.7281-48.6978L49.1807-40.4966L52.0069-37.7192C53.1368-36.5859 54.0782-36.2407 56.1041-36.2407L63.7725-36.2407C65.8472-36.2407 67.1793-37.4263 67.1793-39.3023C67.1793-41.1328 65.8438-42.2764 63.7725-42.2764ZM43.1417-59.6538C47.3751-59.6538 50.775-63.0537 50.775-67.2417C50.775-71.4751 47.3751-74.875 43.1417-74.875C38.9083-74.875 35.5084-71.4751 35.5084-67.2417C35.5084-63.0537 38.9083-59.6538 43.1417-59.6538Z"/>
  </g>
 </g>
</svg>
